G04 #@! TF.GenerationSoftware,KiCad,Pcbnew,6.0.9-8da3e8f707~116~ubuntu20.04.1*
G04 #@! TF.CreationDate,2022-12-14T15:49:57+01:00*
G04 #@! TF.ProjectId,z_adaptor,7a5f6164-6170-4746-9f72-2e6b69636164,rev?*
G04 #@! TF.SameCoordinates,Original*
G04 #@! TF.FileFunction,Copper,L2,Bot*
G04 #@! TF.FilePolarity,Positive*
%FSLAX46Y46*%
G04 Gerber Fmt 4.6, Leading zero omitted, Abs format (unit mm)*
G04 Created by KiCad (PCBNEW 6.0.9-8da3e8f707~116~ubuntu20.04.1) date 2022-12-14 15:49:57*
%MOMM*%
%LPD*%
G01*
G04 APERTURE LIST*
G04 #@! TA.AperFunction,ComponentPad*
%ADD10R,1.700000X1.700000*%
G04 #@! TD*
G04 #@! TA.AperFunction,ComponentPad*
%ADD11O,1.700000X1.700000*%
G04 #@! TD*
G04 #@! TA.AperFunction,Conductor*
%ADD12C,0.750000*%
G04 #@! TD*
G04 #@! TA.AperFunction,Conductor*
%ADD13C,0.250000*%
G04 #@! TD*
G04 APERTURE END LIST*
D10*
X162560000Y-73660000D03*
D11*
X162560000Y-76200000D03*
X160020000Y-73660000D03*
X160020000Y-76200000D03*
X157480000Y-73660000D03*
X157480000Y-76200000D03*
X154940000Y-73660000D03*
X154940000Y-76200000D03*
X152400000Y-73660000D03*
X152400000Y-76200000D03*
X149860000Y-73660000D03*
X149860000Y-76200000D03*
X147320000Y-73660000D03*
X147320000Y-76200000D03*
X144780000Y-73660000D03*
X144780000Y-76200000D03*
X142240000Y-73660000D03*
X142240000Y-76200000D03*
X139700000Y-73660000D03*
X139700000Y-76200000D03*
X137160000Y-73660000D03*
X137160000Y-76200000D03*
X134620000Y-73660000D03*
X134620000Y-76200000D03*
X132080000Y-73660000D03*
X132080000Y-76200000D03*
X129540000Y-73660000D03*
X129540000Y-76200000D03*
X127000000Y-73660000D03*
X127000000Y-76200000D03*
X124460000Y-73660000D03*
X124460000Y-76200000D03*
X121920000Y-73660000D03*
X121920000Y-76200000D03*
X119380000Y-73660000D03*
X119380000Y-76200000D03*
D10*
X162560000Y-50800000D03*
D11*
X162560000Y-53340000D03*
X160020000Y-50800000D03*
X160020000Y-53340000D03*
X157480000Y-50800000D03*
X157480000Y-53340000D03*
X154940000Y-50800000D03*
X154940000Y-53340000D03*
X152400000Y-50800000D03*
X152400000Y-53340000D03*
X149860000Y-50800000D03*
X149860000Y-53340000D03*
X147320000Y-50800000D03*
X147320000Y-53340000D03*
X144780000Y-50800000D03*
X144780000Y-53340000D03*
X142240000Y-50800000D03*
X142240000Y-53340000D03*
X139700000Y-50800000D03*
X139700000Y-53340000D03*
X137160000Y-50800000D03*
X137160000Y-53340000D03*
X134620000Y-50800000D03*
X134620000Y-53340000D03*
X132080000Y-50800000D03*
X132080000Y-53340000D03*
X129540000Y-50800000D03*
X129540000Y-53340000D03*
X127000000Y-50800000D03*
X127000000Y-53340000D03*
X124460000Y-50800000D03*
X124460000Y-53340000D03*
X121920000Y-50800000D03*
X121920000Y-53340000D03*
X119380000Y-50800000D03*
X119380000Y-53340000D03*
X116840000Y-50800000D03*
X116840000Y-53340000D03*
X114300000Y-50800000D03*
X114300000Y-53340000D03*
D10*
X147320000Y-81280000D03*
D11*
X147320000Y-83820000D03*
X149860000Y-81280000D03*
X149860000Y-83820000D03*
X152400000Y-81280000D03*
X152400000Y-83820000D03*
X154940000Y-81280000D03*
X154940000Y-83820000D03*
X157480000Y-81280000D03*
X157480000Y-83820000D03*
X160020000Y-81280000D03*
X160020000Y-83820000D03*
D10*
X116840000Y-81280000D03*
D11*
X116840000Y-83820000D03*
X119380000Y-81280000D03*
X119380000Y-83820000D03*
X121920000Y-81280000D03*
X121920000Y-83820000D03*
X124460000Y-81280000D03*
X124460000Y-83820000D03*
X127000000Y-81280000D03*
X127000000Y-83820000D03*
X129540000Y-81280000D03*
X129540000Y-83820000D03*
X132080000Y-81280000D03*
X132080000Y-83820000D03*
X134620000Y-81280000D03*
X134620000Y-83820000D03*
X137160000Y-81280000D03*
X137160000Y-83820000D03*
D10*
X162560000Y-66040000D03*
D11*
X162560000Y-68580000D03*
X160020000Y-66040000D03*
X160020000Y-68580000D03*
X157480000Y-66040000D03*
X157480000Y-68580000D03*
X154940000Y-66040000D03*
X154940000Y-68580000D03*
X152400000Y-66040000D03*
X152400000Y-68580000D03*
X149860000Y-66040000D03*
X149860000Y-68580000D03*
X147320000Y-66040000D03*
X147320000Y-68580000D03*
X144780000Y-66040000D03*
X144780000Y-68580000D03*
X142240000Y-66040000D03*
X142240000Y-68580000D03*
X139700000Y-66040000D03*
X139700000Y-68580000D03*
X137160000Y-66040000D03*
X137160000Y-68580000D03*
X134620000Y-66040000D03*
X134620000Y-68580000D03*
X132080000Y-66040000D03*
X132080000Y-68580000D03*
X129540000Y-66040000D03*
X129540000Y-68580000D03*
X127000000Y-66040000D03*
X127000000Y-68580000D03*
X124460000Y-66040000D03*
X124460000Y-68580000D03*
X121920000Y-66040000D03*
X121920000Y-68580000D03*
D10*
X152400000Y-58420000D03*
D11*
X152400000Y-60960000D03*
X149860000Y-58420000D03*
X149860000Y-60960000D03*
X147320000Y-58420000D03*
X147320000Y-60960000D03*
X144780000Y-58420000D03*
X144780000Y-60960000D03*
X142240000Y-58420000D03*
X142240000Y-60960000D03*
X139700000Y-58420000D03*
X139700000Y-60960000D03*
X137160000Y-58420000D03*
X137160000Y-60960000D03*
X134620000Y-58420000D03*
X134620000Y-60960000D03*
X132080000Y-58420000D03*
X132080000Y-60960000D03*
X129540000Y-58420000D03*
X129540000Y-60960000D03*
X127000000Y-58420000D03*
X127000000Y-60960000D03*
X124460000Y-58420000D03*
X124460000Y-60960000D03*
X121920000Y-58420000D03*
X121920000Y-60960000D03*
X119380000Y-58420000D03*
X119380000Y-60960000D03*
X116840000Y-58420000D03*
X116840000Y-60960000D03*
X114300000Y-58420000D03*
X114300000Y-60960000D03*
D10*
X114300000Y-45720000D03*
D11*
X114300000Y-43180000D03*
X116840000Y-45720000D03*
X116840000Y-43180000D03*
X119380000Y-45720000D03*
X119380000Y-43180000D03*
X121920000Y-45720000D03*
X121920000Y-43180000D03*
X124460000Y-45720000D03*
X124460000Y-43180000D03*
X127000000Y-45720000D03*
X127000000Y-43180000D03*
X129540000Y-45720000D03*
X129540000Y-43180000D03*
X132080000Y-45720000D03*
X132080000Y-43180000D03*
X134620000Y-45720000D03*
X134620000Y-43180000D03*
X137160000Y-45720000D03*
X137160000Y-43180000D03*
X139700000Y-45720000D03*
X139700000Y-43180000D03*
X142240000Y-45720000D03*
X142240000Y-43180000D03*
X144780000Y-45720000D03*
X144780000Y-43180000D03*
X147320000Y-45720000D03*
X147320000Y-43180000D03*
X149860000Y-45720000D03*
X149860000Y-43180000D03*
X152400000Y-45720000D03*
X152400000Y-43180000D03*
X154940000Y-45720000D03*
X154940000Y-43180000D03*
X157480000Y-45720000D03*
X157480000Y-43180000D03*
X160020000Y-45720000D03*
X160020000Y-43180000D03*
X162560000Y-45720000D03*
X162560000Y-43180000D03*
D12*
X164846000Y-67691000D02*
X164846000Y-53340000D01*
X114300000Y-45720000D02*
X112875000Y-47145000D01*
X114300000Y-45720000D02*
X112875000Y-44295000D01*
X113808745Y-41656000D02*
X163963000Y-41656000D01*
X162560000Y-68580000D02*
X163957000Y-68580000D01*
X163957000Y-68580000D02*
X164846000Y-67691000D01*
X112875000Y-47145000D02*
X112875000Y-56995000D01*
X112875000Y-56995000D02*
X114300000Y-58420000D01*
X112875000Y-42589745D02*
X113808745Y-41656000D01*
X163963000Y-41656000D02*
X164846000Y-42539000D01*
X164846000Y-42539000D02*
X164846000Y-53340000D01*
X112875000Y-44295000D02*
X112875000Y-42589745D01*
X164846000Y-53340000D02*
X162560000Y-53340000D01*
X114300000Y-58420000D02*
X114300000Y-60960000D01*
X149860000Y-81280000D02*
X149860000Y-83820000D01*
X149860000Y-83820000D02*
X149860000Y-86360000D01*
X149860000Y-76200000D02*
X149860000Y-81280000D01*
D13*
X119380000Y-76200000D02*
X119380000Y-77470000D01*
X120650000Y-81915000D02*
X119380000Y-83185000D01*
X119380000Y-46990000D02*
X119380000Y-45720000D01*
X119380000Y-60325000D02*
X120650000Y-59055000D01*
X120650000Y-78740000D02*
X120650000Y-81915000D01*
X120650000Y-55880000D02*
X120650000Y-59055000D01*
X120650000Y-48260000D02*
X119380000Y-46990000D01*
X119380000Y-76200000D02*
X119380000Y-75565000D01*
X119380000Y-54610000D02*
X120650000Y-55880000D01*
X119380000Y-69850000D02*
X119380000Y-60960000D01*
X120650000Y-74295000D02*
X120650000Y-71120000D01*
X119380000Y-52705000D02*
X120650000Y-51435000D01*
X119380000Y-83185000D02*
X119380000Y-83820000D01*
X119380000Y-60960000D02*
X119380000Y-60325000D01*
X120650000Y-51435000D02*
X120650000Y-48260000D01*
X119380000Y-75565000D02*
X120650000Y-74295000D01*
X119380000Y-77470000D02*
X120650000Y-78740000D01*
X119380000Y-53340000D02*
X119380000Y-52705000D01*
X119380000Y-53340000D02*
X119380000Y-54610000D01*
X120650000Y-71120000D02*
X119380000Y-69850000D01*
X119380000Y-55880000D02*
X119380000Y-58420000D01*
X119380000Y-51435000D02*
X118110000Y-52705000D01*
X119380000Y-73660000D02*
X119380000Y-71120000D01*
X119380000Y-71120000D02*
X118110000Y-69850000D01*
X119380000Y-59055000D02*
X119380000Y-58420000D01*
X119380000Y-78740000D02*
X118110000Y-77470000D01*
X118110000Y-46990000D02*
X119380000Y-48260000D01*
X119380000Y-50800000D02*
X119380000Y-51435000D01*
X119380000Y-43180000D02*
X118110000Y-44450000D01*
X118110000Y-44450000D02*
X118110000Y-46990000D01*
X118110000Y-54610000D02*
X119380000Y-55880000D01*
X118110000Y-52705000D02*
X118110000Y-54610000D01*
X119380000Y-81280000D02*
X119380000Y-78740000D01*
X119380000Y-48260000D02*
X119380000Y-50800000D01*
X118110000Y-69850000D02*
X118110000Y-60325000D01*
X118110000Y-74930000D02*
X119380000Y-73660000D01*
X118110000Y-77470000D02*
X118110000Y-74930000D01*
X118110000Y-60325000D02*
X119380000Y-59055000D01*
X121920000Y-53340000D02*
X121920000Y-52705000D01*
X121920000Y-76200000D02*
X121920000Y-77470000D01*
X123190000Y-51435000D02*
X123190000Y-48260000D01*
X121920000Y-52705000D02*
X123190000Y-51435000D01*
X121920000Y-46990000D02*
X121920000Y-45720000D01*
X123190000Y-55880000D02*
X123190000Y-59055000D01*
X121920000Y-60960000D02*
X121920000Y-62230000D01*
X121920000Y-54610000D02*
X123190000Y-55880000D01*
X121920000Y-67945000D02*
X121920000Y-68580000D01*
X123190000Y-74295000D02*
X123190000Y-71120000D01*
X123190000Y-63500000D02*
X123190000Y-66675000D01*
X121920000Y-76200000D02*
X121920000Y-75565000D01*
X123190000Y-48260000D02*
X121920000Y-46990000D01*
X121920000Y-75565000D02*
X123190000Y-74295000D01*
X123190000Y-81915000D02*
X121920000Y-83185000D01*
X121920000Y-60325000D02*
X121920000Y-60960000D01*
X121920000Y-83185000D02*
X121920000Y-83820000D01*
X123190000Y-78740000D02*
X123190000Y-81915000D01*
X121920000Y-53340000D02*
X121920000Y-54610000D01*
X121920000Y-62230000D02*
X123190000Y-63500000D01*
X121920000Y-77470000D02*
X123190000Y-78740000D01*
X121920000Y-69850000D02*
X121920000Y-68580000D01*
X123190000Y-66675000D02*
X121920000Y-67945000D01*
X123190000Y-59055000D02*
X121920000Y-60325000D01*
X123190000Y-71120000D02*
X121920000Y-69850000D01*
X120650000Y-54610000D02*
X121920000Y-55880000D01*
X120650000Y-60325000D02*
X120650000Y-62230000D01*
X120650000Y-69850000D02*
X121920000Y-71120000D01*
X121920000Y-73660000D02*
X121920000Y-74295000D01*
X121920000Y-50800000D02*
X121920000Y-51436396D01*
X121920000Y-58420000D02*
X121920000Y-59055000D01*
X121920000Y-63500000D02*
X121920000Y-66040000D01*
X121920000Y-71120000D02*
X121920000Y-73660000D01*
X121920000Y-66040000D02*
X121920000Y-66675000D01*
X120650000Y-46990000D02*
X120650000Y-44450000D01*
X120650000Y-67945000D02*
X120650000Y-69850000D01*
X120650000Y-44450000D02*
X121920000Y-43180000D01*
X121920000Y-74295000D02*
X120650000Y-75565000D01*
X121920000Y-59055000D02*
X120650000Y-60325000D01*
X121920000Y-66675000D02*
X120650000Y-67945000D01*
X121920000Y-48260000D02*
X120650000Y-46990000D01*
X120650000Y-77470000D02*
X121920000Y-78740000D01*
X120650000Y-52706396D02*
X120650000Y-54610000D01*
X121920000Y-55880000D02*
X121920000Y-58420000D01*
X120650000Y-62230000D02*
X121920000Y-63500000D01*
X121920000Y-51436396D02*
X120650000Y-52706396D01*
X121920000Y-50800000D02*
X121920000Y-48260000D01*
X121920000Y-78740000D02*
X121920000Y-81280000D01*
X120650000Y-75565000D02*
X120650000Y-77470000D01*
X124460000Y-46990000D02*
X124460000Y-45720000D01*
X124460000Y-54610000D02*
X125730000Y-55880000D01*
X125730000Y-48260000D02*
X124460000Y-46990000D01*
X125730000Y-74295000D02*
X124460000Y-75565000D01*
X124460000Y-77470000D02*
X125730000Y-78740000D01*
X124460000Y-53340000D02*
X124460000Y-52705000D01*
X124460000Y-68580000D02*
X124460000Y-69850000D01*
X125730000Y-71120000D02*
X125730000Y-74295000D01*
X124460000Y-52705000D02*
X125730000Y-51435000D01*
X125730000Y-51435000D02*
X125730000Y-48260000D01*
X124460000Y-53340000D02*
X124460000Y-54610000D01*
X125730000Y-78740000D02*
X125730000Y-81915000D01*
X124460000Y-60960000D02*
X124460000Y-62230000D01*
X125730000Y-59055000D02*
X124460000Y-60325000D01*
X125730000Y-66675000D02*
X124460000Y-67945000D01*
X124460000Y-67945000D02*
X124460000Y-68580000D01*
X124460000Y-69850000D02*
X125730000Y-71120000D01*
X124460000Y-62230000D02*
X125730000Y-63500000D01*
X124460000Y-60325000D02*
X124460000Y-60960000D01*
X124460000Y-75565000D02*
X124460000Y-76200000D01*
X125730000Y-55880000D02*
X125730000Y-59055000D01*
X125730000Y-81915000D02*
X124460000Y-83185000D01*
X124460000Y-76200000D02*
X124460000Y-77470000D01*
X125730000Y-63500000D02*
X125730000Y-66675000D01*
X124460000Y-83185000D02*
X124460000Y-83820000D01*
X124460000Y-58420000D02*
X124460000Y-59055000D01*
X124460000Y-59055000D02*
X123190000Y-60325000D01*
X124460000Y-73660000D02*
X124460000Y-74295000D01*
X124460000Y-66675000D02*
X123190000Y-67945000D01*
X124460000Y-63500000D02*
X124460000Y-66040000D01*
X123190000Y-62230000D02*
X124460000Y-63500000D01*
X123190000Y-69850000D02*
X124460000Y-71120000D01*
X123190000Y-67945000D02*
X123190000Y-69850000D01*
X124460000Y-51436396D02*
X123190000Y-52706396D01*
X124460000Y-71120000D02*
X124460000Y-73660000D01*
X123190000Y-46990000D02*
X124460000Y-48260000D01*
X123190000Y-52706396D02*
X123190000Y-54610000D01*
X124460000Y-50800000D02*
X124460000Y-51436396D01*
X124460000Y-55880000D02*
X124460000Y-58420000D01*
X124460000Y-78740000D02*
X124460000Y-81280000D01*
X124460000Y-66040000D02*
X124460000Y-66675000D01*
X124460000Y-43180000D02*
X123190000Y-44450000D01*
X123190000Y-77470000D02*
X124460000Y-78740000D01*
X123190000Y-60325000D02*
X123190000Y-62230000D01*
X123190000Y-44450000D02*
X123190000Y-46990000D01*
X123190000Y-75565000D02*
X123190000Y-77470000D01*
X124460000Y-74295000D02*
X123190000Y-75565000D01*
X123190000Y-54610000D02*
X124460000Y-55880000D01*
X124460000Y-48260000D02*
X124460000Y-50800000D01*
X128270000Y-48260000D02*
X128270000Y-51435000D01*
X127000000Y-46990000D02*
X128270000Y-48260000D01*
X128270000Y-59055000D02*
X127000000Y-60325000D01*
X127000000Y-52705000D02*
X128270000Y-51435000D01*
X128270000Y-55880000D02*
X128270000Y-59055000D01*
X127000000Y-54610000D02*
X128270000Y-55880000D01*
X127000000Y-53340000D02*
X127000000Y-52705000D01*
X127000000Y-60325000D02*
X127000000Y-60960000D01*
X127000000Y-62230000D02*
X128270000Y-63500000D01*
X127000000Y-60960000D02*
X127000000Y-62230000D01*
X127000000Y-45720000D02*
X127000000Y-46990000D01*
X128270000Y-66675000D02*
X127000000Y-67945000D01*
X127000000Y-67945000D02*
X127000000Y-68580000D01*
X127000000Y-53340000D02*
X127000000Y-54610000D01*
X128270000Y-63500000D02*
X128270000Y-66675000D01*
X127000000Y-71120000D02*
X127000000Y-73660000D01*
X127000000Y-48260000D02*
X127000000Y-50800000D01*
X127000000Y-59055000D02*
X125730000Y-60325000D01*
X127000000Y-66040000D02*
X127000000Y-66675000D01*
X125730000Y-69850000D02*
X127000000Y-71120000D01*
X125730000Y-46990000D02*
X127000000Y-48260000D01*
X127000000Y-43180000D02*
X125730000Y-44450000D01*
X127000000Y-50800000D02*
X127000000Y-51435000D01*
X127000000Y-66675000D02*
X125730000Y-67945000D01*
X127000000Y-55880000D02*
X127000000Y-58420000D01*
X127000000Y-58420000D02*
X127000000Y-59055000D01*
X127000000Y-51435000D02*
X125730000Y-52705000D01*
X125730000Y-67945000D02*
X125730000Y-69850000D01*
X125730000Y-54610000D02*
X127000000Y-55880000D01*
X125730000Y-60325000D02*
X125730000Y-62230000D01*
X125730000Y-52705000D02*
X125730000Y-54610000D01*
X127000000Y-63500000D02*
X127000000Y-66040000D01*
X125730000Y-44450000D02*
X125730000Y-46990000D01*
X125730000Y-62230000D02*
X127000000Y-63500000D01*
X130810000Y-63500000D02*
X130810000Y-66675000D01*
X129540000Y-67945000D02*
X129540000Y-68580000D01*
X130810000Y-48260000D02*
X130810000Y-51435000D01*
X129540000Y-77470698D02*
X128270000Y-78740698D01*
X129540000Y-69850000D02*
X129540000Y-68580000D01*
X130810000Y-74295000D02*
X130810000Y-71120000D01*
X128270000Y-81915000D02*
X127000000Y-83185000D01*
X127000000Y-83185000D02*
X127000000Y-83820000D01*
X129540000Y-46990000D02*
X130810000Y-48260000D01*
X130810000Y-59055000D02*
X129540000Y-60325000D01*
X129540000Y-54610000D02*
X130810000Y-55880000D01*
X129540000Y-76200000D02*
X129540000Y-77470698D01*
X129540000Y-45720000D02*
X129540000Y-46990000D01*
X130810000Y-71120000D02*
X129540000Y-69850000D01*
X129540000Y-60960000D02*
X129540000Y-62230000D01*
X129540000Y-53340000D02*
X129540000Y-54610000D01*
X128270000Y-78740698D02*
X128270000Y-81915000D01*
X129540000Y-60325000D02*
X129540000Y-60960000D01*
X129540000Y-52705000D02*
X130810000Y-51435000D01*
X130810000Y-55880000D02*
X130810000Y-59055000D01*
X129540000Y-76200000D02*
X129540000Y-75565000D01*
X129540000Y-75565000D02*
X130810000Y-74295000D01*
X129540000Y-53340000D02*
X129540000Y-52705000D01*
X130810000Y-66675000D02*
X129540000Y-67945000D01*
X129540000Y-62230000D02*
X130810000Y-63500000D01*
X129540000Y-66675000D02*
X128270000Y-67945000D01*
X128270000Y-44450000D02*
X129540000Y-43180000D01*
X129540000Y-48260000D02*
X128270000Y-46990000D01*
X127000000Y-81280000D02*
X127000000Y-78740000D01*
X129540000Y-50800000D02*
X129540000Y-48260000D01*
X129540000Y-50800000D02*
X129540000Y-51435000D01*
X129540000Y-59055000D02*
X128270000Y-60325000D01*
X128270000Y-75565000D02*
X129540000Y-74295000D01*
X129540000Y-55880000D02*
X129540000Y-58420000D01*
X128270000Y-52705000D02*
X128270000Y-54610000D01*
X129540000Y-58420000D02*
X129540000Y-59055000D01*
X128270000Y-46990000D02*
X128270000Y-44450000D01*
X128270000Y-60325000D02*
X128270000Y-62230000D01*
X128270000Y-77470000D02*
X128270000Y-75565000D01*
X129540000Y-66040000D02*
X129540000Y-66675000D01*
X129540000Y-71120000D02*
X129540000Y-73660000D01*
X129540000Y-51435000D02*
X128270000Y-52705000D01*
X127000000Y-78740000D02*
X128270000Y-77470000D01*
X128270000Y-54610000D02*
X129540000Y-55880000D01*
X128270000Y-62230000D02*
X129540000Y-63500000D01*
X129540000Y-63500000D02*
X129540000Y-66040000D01*
X128270000Y-69850000D02*
X129540000Y-71120000D01*
X128270000Y-67945000D02*
X128270000Y-69850000D01*
X129540000Y-74295000D02*
X129540000Y-73660000D01*
X132080000Y-53340000D02*
X132080000Y-54610000D01*
X132080000Y-52705000D02*
X133350000Y-51435000D01*
X132080000Y-62230000D02*
X133350000Y-63500000D01*
X130810000Y-81915000D02*
X130810000Y-78740000D01*
X132080000Y-53340000D02*
X132080000Y-52705000D01*
X129540000Y-83185000D02*
X130810000Y-81915000D01*
X133350000Y-63500000D02*
X133350000Y-66675000D01*
X132080000Y-69850000D02*
X132080000Y-68580000D01*
X132080000Y-46990000D02*
X132080000Y-45720000D01*
X133350000Y-51435000D02*
X133350000Y-48260000D01*
X132080000Y-60960000D02*
X132080000Y-62230000D01*
X133350000Y-66675000D02*
X132080000Y-67945000D01*
X132080000Y-54610000D02*
X133350000Y-55880000D01*
X129540000Y-83820000D02*
X129540000Y-83185000D01*
X132080000Y-60325000D02*
X132080000Y-60960000D01*
X132080000Y-76200000D02*
X132080000Y-75565000D01*
X132080000Y-77470000D02*
X132080000Y-76200000D01*
X133350000Y-59055000D02*
X132080000Y-60325000D01*
X133350000Y-48260000D02*
X132080000Y-46990000D01*
X132080000Y-67945000D02*
X132080000Y-68580000D01*
X130810000Y-78740000D02*
X132080000Y-77470000D01*
X133350000Y-55880000D02*
X133350000Y-59055000D01*
X132080000Y-75565000D02*
X133350000Y-74295000D01*
X133350000Y-71120000D02*
X132080000Y-69850000D01*
X133350000Y-74295000D02*
X133350000Y-71120000D01*
X130810000Y-69850000D02*
X132080000Y-71120000D01*
X130810000Y-67945000D02*
X130810000Y-69850000D01*
X132080000Y-66675000D02*
X130810000Y-67945000D01*
X130810000Y-75565000D02*
X130810000Y-77470000D01*
X132080000Y-73660000D02*
X132080000Y-74295000D01*
X132080000Y-58420000D02*
X132080000Y-59055000D01*
X132080000Y-71120000D02*
X132080000Y-73660000D01*
X132080000Y-55880000D02*
X132080000Y-58420000D01*
X130810000Y-62230000D02*
X132080000Y-63500000D01*
X132080000Y-50800000D02*
X132080000Y-51435000D01*
X130810000Y-60325000D02*
X130810000Y-62230000D01*
X132080000Y-51435000D02*
X130810000Y-52705000D01*
X132080000Y-63500000D02*
X132080000Y-66040000D01*
X130810000Y-52705000D02*
X130810000Y-54610000D01*
X130810000Y-77470000D02*
X129540000Y-78740000D01*
X132080000Y-43180000D02*
X130810000Y-44450000D01*
X130810000Y-46990000D02*
X132080000Y-48260000D01*
X132080000Y-74295000D02*
X130810000Y-75565000D01*
X129540000Y-78740000D02*
X129540000Y-81280000D01*
X132080000Y-59055000D02*
X130810000Y-60325000D01*
X130810000Y-44450000D02*
X130810000Y-46990000D01*
X130810000Y-54610000D02*
X132080000Y-55880000D01*
X132080000Y-48260000D02*
X132080000Y-50800000D01*
X132080000Y-66040000D02*
X132080000Y-66675000D01*
X134620000Y-75565000D02*
X134620000Y-76200000D01*
X135890000Y-63500000D02*
X135890000Y-66675000D01*
X135890000Y-48260000D02*
X134620000Y-46990000D01*
X134620000Y-52705000D02*
X135890000Y-51435000D01*
X135890000Y-59055000D02*
X134620000Y-60325000D01*
X134620000Y-67945000D02*
X134620000Y-68580000D01*
X132080000Y-83185000D02*
X133350000Y-81915000D01*
X134620000Y-69850000D02*
X135890000Y-71120000D01*
X133350000Y-78740000D02*
X134620000Y-77470000D01*
X135890000Y-71120000D02*
X135890000Y-74295000D01*
X135890000Y-74295000D02*
X134620000Y-75565000D01*
X134620000Y-60960000D02*
X134620000Y-62230000D01*
X134620000Y-46990000D02*
X134620000Y-45720000D01*
X135890000Y-66675000D02*
X134620000Y-67945000D01*
X134620000Y-60325000D02*
X134620000Y-60960000D01*
X134620000Y-68580000D02*
X134620000Y-69850000D01*
X134620000Y-53340000D02*
X134620000Y-54610000D01*
X133350000Y-81915000D02*
X133350000Y-78740000D01*
X134620000Y-54610000D02*
X135890000Y-55880000D01*
X135890000Y-55880000D02*
X135890000Y-59055000D01*
X132080000Y-83820000D02*
X132080000Y-83185000D01*
X134620000Y-77470000D02*
X134620000Y-76200000D01*
X135890000Y-51435000D02*
X135890000Y-48260000D01*
X134620000Y-53340000D02*
X134620000Y-52705000D01*
X134620000Y-62230000D02*
X135890000Y-63500000D01*
X134620000Y-74538299D02*
X134620000Y-73660000D01*
X134620000Y-66675000D02*
X133350000Y-67945000D01*
X134620000Y-50800000D02*
X134620000Y-51435000D01*
X134620000Y-43180000D02*
X133350000Y-44450000D01*
X134620000Y-55880000D02*
X134620000Y-58420000D01*
X133350000Y-46990000D02*
X134620000Y-48260000D01*
X133350000Y-67945000D02*
X133350000Y-69850000D01*
X134620000Y-48260000D02*
X134620000Y-50800000D01*
X133350000Y-44450000D02*
X133350000Y-46990000D01*
X132080000Y-81280000D02*
X132080000Y-78740000D01*
X133350000Y-75808299D02*
X134620000Y-74538299D01*
X133350000Y-52705000D02*
X133350000Y-54610000D01*
X133350000Y-62230000D02*
X134620000Y-63500000D01*
X134620000Y-59055000D02*
X133350000Y-60325000D01*
X134620000Y-51435000D02*
X133350000Y-52705000D01*
X133350000Y-77470000D02*
X133350000Y-75808299D01*
X133350000Y-69850000D02*
X134620000Y-71120000D01*
X134620000Y-63500000D02*
X134620000Y-66040000D01*
X134620000Y-66040000D02*
X134620000Y-66675000D01*
X133350000Y-60325000D02*
X133350000Y-62230000D01*
X134620000Y-71120000D02*
X134620000Y-73660000D01*
X134620000Y-58420000D02*
X134620000Y-59055000D01*
X133350000Y-54610000D02*
X134620000Y-55880000D01*
X132080000Y-78740000D02*
X133350000Y-77470000D01*
X138430000Y-55880000D02*
X138430000Y-59055000D01*
X137160000Y-54610000D02*
X138430000Y-55880000D01*
X135890000Y-78740000D02*
X137160000Y-77470000D01*
X138430000Y-74295000D02*
X137160000Y-75565000D01*
X138430000Y-51435000D02*
X138430000Y-48260000D01*
X137160000Y-46990000D02*
X137160000Y-45720000D01*
X137160000Y-67945000D02*
X137160000Y-68580000D01*
X137160000Y-53340000D02*
X137160000Y-52705000D01*
X137160000Y-52705000D02*
X138430000Y-51435000D01*
X138430000Y-59055000D02*
X137160000Y-60325000D01*
X138430000Y-66675000D02*
X137160000Y-67945000D01*
X137160000Y-77470000D02*
X137160000Y-76200000D01*
X137160000Y-69850000D02*
X138430000Y-71120000D01*
X138430000Y-63500000D02*
X138430000Y-66675000D01*
X134620000Y-83820000D02*
X134620000Y-83185000D01*
X137160000Y-75565000D02*
X137160000Y-76200000D01*
X134620000Y-83185000D02*
X135890000Y-81915000D01*
X138430000Y-48260000D02*
X137160000Y-46990000D01*
X137160000Y-68580000D02*
X137160000Y-69850000D01*
X138430000Y-71120000D02*
X138430000Y-74295000D01*
X135890000Y-81915000D02*
X135890000Y-78740000D01*
X137160000Y-60960000D02*
X137160000Y-62230000D01*
X137160000Y-53340000D02*
X137160000Y-54610000D01*
X137160000Y-62230000D02*
X138430000Y-63500000D01*
X137160000Y-55880000D02*
X137160000Y-58420000D01*
X135890000Y-77470000D02*
X135890000Y-75565000D01*
X137160000Y-63500000D02*
X137160000Y-66040000D01*
X137160000Y-66918299D02*
X135890000Y-68188299D01*
X135890000Y-68188299D02*
X135890000Y-69850000D01*
X137160000Y-43180000D02*
X135890000Y-44450000D01*
X137160000Y-59055000D02*
X135890000Y-60325000D01*
X137160000Y-48260000D02*
X137160000Y-50800000D01*
X135890000Y-46990000D02*
X137160000Y-48260000D01*
X135890000Y-44450000D02*
X135890000Y-46990000D01*
X137160000Y-58420000D02*
X137160000Y-59055000D01*
X135890000Y-75565000D02*
X137160000Y-74295000D01*
X135890000Y-62230000D02*
X137160000Y-63500000D01*
X134620000Y-78740000D02*
X135890000Y-77470000D01*
X135890000Y-60325000D02*
X135890000Y-62230000D01*
X137160000Y-74295000D02*
X137160000Y-73660000D01*
X137160000Y-66040000D02*
X137160000Y-66918299D01*
X135890000Y-54610000D02*
X137160000Y-55880000D01*
X137160000Y-51435000D02*
X135890000Y-52705000D01*
X137160000Y-50800000D02*
X137160000Y-51435000D01*
X135890000Y-69850000D02*
X137160000Y-71120000D01*
X135890000Y-52705000D02*
X135890000Y-54610000D01*
X134620000Y-81280000D02*
X134620000Y-78740000D01*
X137160000Y-71120000D02*
X137160000Y-73660000D01*
X140970000Y-48260000D02*
X139700000Y-46990000D01*
X140970000Y-74295000D02*
X139700000Y-75565000D01*
X139700000Y-60960000D02*
X139700000Y-62230000D01*
X140970000Y-66675000D02*
X139700000Y-67945000D01*
X140970000Y-55880000D02*
X140970000Y-59055000D01*
X140970000Y-63500000D02*
X140970000Y-66675000D01*
X139700000Y-69850000D02*
X140970000Y-71120000D01*
X139700000Y-53340000D02*
X139700000Y-54610000D01*
X140970000Y-59055000D02*
X139700000Y-60325000D01*
X138430000Y-78740000D02*
X139700000Y-77470000D01*
X139700000Y-75565000D02*
X139700000Y-76200000D01*
X139700000Y-77470000D02*
X139700000Y-76200000D01*
X138430000Y-81915000D02*
X138430000Y-78740000D01*
X139700000Y-67945000D02*
X139700000Y-68580000D01*
X139700000Y-46990000D02*
X139700000Y-45720000D01*
X139700000Y-62230000D02*
X140970000Y-63500000D01*
X139700000Y-52705000D02*
X140970000Y-51435000D01*
X137160000Y-83820000D02*
X137160000Y-83185000D01*
X139700000Y-53340000D02*
X139700000Y-52705000D01*
X137160000Y-83185000D02*
X138430000Y-81915000D01*
X139700000Y-68580000D02*
X139700000Y-69850000D01*
X139700000Y-54610000D02*
X140970000Y-55880000D01*
X140970000Y-71120000D02*
X140970000Y-74295000D01*
X140970000Y-51435000D02*
X140970000Y-48260000D01*
X139700000Y-71120000D02*
X139700000Y-73660000D01*
X139700000Y-48260000D02*
X139700000Y-50800000D01*
X139700000Y-66040000D02*
X139700000Y-66918299D01*
X139700000Y-66918299D02*
X138430000Y-68188299D01*
X138430000Y-69850000D02*
X139700000Y-71120000D01*
X138430000Y-54610000D02*
X138430000Y-52705000D01*
X138430000Y-68188299D02*
X138430000Y-69850000D01*
X138430000Y-77470000D02*
X138430000Y-75565000D01*
X139700000Y-43180000D02*
X138430000Y-44450000D01*
X139700000Y-58420000D02*
X139700000Y-55880000D01*
X139700000Y-74295000D02*
X139700000Y-73660000D01*
X138430000Y-62230000D02*
X139700000Y-63500000D01*
X138430000Y-46990000D02*
X139700000Y-48260000D01*
X137160000Y-81280000D02*
X137160000Y-78740000D01*
X139700000Y-58420000D02*
X139700000Y-59055000D01*
X139700000Y-63500000D02*
X139700000Y-66040000D01*
X138430000Y-60325000D02*
X138430000Y-62230000D01*
X139700000Y-59055000D02*
X138430000Y-60325000D01*
X137160000Y-78740000D02*
X138430000Y-77470000D01*
X138430000Y-75565000D02*
X139700000Y-74295000D01*
X139700000Y-55880000D02*
X138430000Y-54610000D01*
X138430000Y-44450000D02*
X138430000Y-46990000D01*
X138430000Y-52705000D02*
X139700000Y-51435000D01*
X142240000Y-67945000D02*
X142240000Y-68580000D01*
X143510000Y-66675000D02*
X142240000Y-67945000D01*
X143510000Y-59055000D02*
X142240000Y-60325000D01*
X142240000Y-46990000D02*
X143510000Y-48260000D01*
X142240000Y-69850000D02*
X143510000Y-71120000D01*
X143510000Y-71120000D02*
X143510000Y-74295000D01*
X142240000Y-62230000D02*
X143510000Y-63500000D01*
X142240000Y-75565000D02*
X142240000Y-76200000D01*
X142240000Y-53340000D02*
X142240000Y-54610000D01*
X142240000Y-45720000D02*
X142240000Y-46990000D01*
X142240000Y-60960000D02*
X142240000Y-62230000D01*
X142240000Y-68580000D02*
X142240000Y-69850000D01*
X143510000Y-48260000D02*
X143510000Y-51435000D01*
X143510000Y-63500000D02*
X143510000Y-66675000D01*
X143510000Y-55880000D02*
X143510000Y-59055000D01*
X142240000Y-60325000D02*
X142240000Y-60960000D01*
X142240000Y-54610000D02*
X143510000Y-55880000D01*
X142240000Y-52705000D02*
X143510000Y-51435000D01*
X143510000Y-74295000D02*
X142240000Y-75565000D01*
X142240000Y-53340000D02*
X142240000Y-52705000D01*
X140970000Y-69850000D02*
X142240000Y-71120000D01*
X140970000Y-54610000D02*
X140970000Y-52705000D01*
X140970000Y-46990000D02*
X142240000Y-48260000D01*
X142240000Y-55880000D02*
X140970000Y-54610000D01*
X142240000Y-63500000D02*
X142240000Y-66040000D01*
X142240000Y-66675000D02*
X140970000Y-67945000D01*
X142240000Y-66040000D02*
X142240000Y-66675000D01*
X142240000Y-59055000D02*
X140970000Y-60325000D01*
X142240000Y-58420000D02*
X142240000Y-59055000D01*
X140970000Y-62230000D02*
X142240000Y-63500000D01*
X142240000Y-51435000D02*
X142240000Y-50800000D01*
X140970000Y-60325000D02*
X140970000Y-62230000D01*
X142240000Y-48260000D02*
X142240000Y-50800000D01*
X142240000Y-71120000D02*
X142240000Y-73660000D01*
X142240000Y-43180000D02*
X140970000Y-44450000D01*
X140970000Y-67945000D02*
X140970000Y-69850000D01*
X140970000Y-44450000D02*
X140970000Y-46990000D01*
X140970000Y-52705000D02*
X142240000Y-51435000D01*
X142240000Y-58420000D02*
X142240000Y-55880000D01*
X144780000Y-67945000D02*
X144780000Y-68580000D01*
X144780000Y-54610000D02*
X144780000Y-53340000D01*
X144780000Y-46990000D02*
X146050000Y-48260000D01*
X146050000Y-63500000D02*
X146050000Y-66675000D01*
X146050000Y-66675000D02*
X144780000Y-67945000D01*
X146050000Y-48260000D02*
X146050000Y-51435000D01*
X146050000Y-71120000D02*
X146050000Y-74295000D01*
X144780000Y-62230000D02*
X146050000Y-63500000D01*
X144780000Y-75565000D02*
X144780000Y-76200000D01*
X144780000Y-45720000D02*
X144780000Y-46990000D01*
X144780000Y-69850000D02*
X146050000Y-71120000D01*
X144780000Y-60325000D02*
X146050000Y-59055000D01*
X144780000Y-53340000D02*
X144780000Y-52705000D01*
X144780000Y-68580000D02*
X144780000Y-69850000D01*
X146050000Y-59055000D02*
X146050000Y-55880000D01*
X144780000Y-60960000D02*
X144780000Y-60325000D01*
X144780000Y-60960000D02*
X144780000Y-62230000D01*
X146050000Y-74295000D02*
X144780000Y-75565000D01*
X146050000Y-55880000D02*
X144780000Y-54610000D01*
X144780000Y-52705000D02*
X146050000Y-51435000D01*
X143510000Y-69850000D02*
X144780000Y-71120000D01*
X144780000Y-58420000D02*
X144780000Y-59055000D01*
X144780000Y-50800000D02*
X144780000Y-51435000D01*
X144780000Y-50800000D02*
X144780000Y-48260000D01*
X143510000Y-60325000D02*
X143510000Y-62230000D01*
X143510000Y-62230000D02*
X144780000Y-63500000D01*
X143510000Y-52705000D02*
X144780000Y-51435000D01*
X144780000Y-66040000D02*
X144780000Y-66675000D01*
X144780000Y-55880000D02*
X143510000Y-54610000D01*
X144780000Y-71120000D02*
X144780000Y-73660000D01*
X143510000Y-44450000D02*
X144780000Y-43180000D01*
X144780000Y-63500000D02*
X144780000Y-66040000D01*
X144780000Y-58420000D02*
X144780000Y-55880000D01*
X144780000Y-59055000D02*
X143510000Y-60325000D01*
X143510000Y-54610000D02*
X143510000Y-52705000D01*
X143510000Y-67945000D02*
X143510000Y-69850000D01*
X144780000Y-48260000D02*
X143510000Y-46990000D01*
X143510000Y-46990000D02*
X143510000Y-44450000D01*
X144780000Y-66675000D02*
X143510000Y-67945000D01*
X147320000Y-45720000D02*
X147320000Y-46990000D01*
X148590000Y-55880000D02*
X147320000Y-54610000D01*
X147320000Y-52705000D02*
X148590000Y-51435000D01*
X148590000Y-48260000D02*
X148590000Y-51435000D01*
X147320000Y-62230000D02*
X148590000Y-63500000D01*
X147320000Y-60960000D02*
X147320000Y-60325000D01*
X147320000Y-67945000D02*
X147320000Y-68580000D01*
X147320000Y-68580000D02*
X147320000Y-69850000D01*
X148590000Y-66675000D02*
X147320000Y-67945000D01*
X147320000Y-75565000D02*
X147320000Y-76200000D01*
X148590000Y-74295000D02*
X147320000Y-75565000D01*
X147320000Y-69850000D02*
X148590000Y-71120000D01*
X148590000Y-71120000D02*
X148590000Y-74295000D01*
X147320000Y-54610000D02*
X147320000Y-53340000D01*
X147320000Y-60325000D02*
X148590000Y-59055000D01*
X147320000Y-53340000D02*
X147320000Y-52705000D01*
X147320000Y-60960000D02*
X147320000Y-62230000D01*
X147320000Y-46990000D02*
X148590000Y-48260000D01*
X148590000Y-63500000D02*
X148590000Y-66675000D01*
X148590000Y-59055000D02*
X148590000Y-55880000D01*
X147320000Y-50800000D02*
X147320000Y-51435000D01*
X147320000Y-50800000D02*
X147320000Y-48260000D01*
X147320000Y-58420000D02*
X147320000Y-59055000D01*
X147320000Y-51435000D02*
X146050000Y-52705000D01*
X146050000Y-44450000D02*
X147320000Y-43180000D01*
X147320000Y-48260000D02*
X146050000Y-46990000D01*
X146050000Y-67945000D02*
X146050000Y-69850000D01*
X146050000Y-54610000D02*
X147320000Y-55880000D01*
X147320000Y-66040000D02*
X147320000Y-66675000D01*
X146050000Y-62230000D02*
X147320000Y-63500000D01*
X147320000Y-55880000D02*
X147320000Y-58420000D01*
X147320000Y-63500000D02*
X147320000Y-66040000D01*
X146050000Y-69850000D02*
X147320000Y-71120000D01*
X146050000Y-52705000D02*
X146050000Y-54610000D01*
X147320000Y-66675000D02*
X146050000Y-67945000D01*
X146050000Y-46990000D02*
X146050000Y-44450000D01*
X146050000Y-60325000D02*
X146050000Y-62230000D01*
X147320000Y-59055000D02*
X146050000Y-60325000D01*
X147320000Y-71120000D02*
X147320000Y-73660000D01*
X153670000Y-82550000D02*
X153670000Y-78740000D01*
X152400000Y-75565000D02*
X152400000Y-76200000D01*
X151130000Y-59055000D02*
X151130000Y-55880000D01*
X153670000Y-78740000D02*
X152400000Y-77470000D01*
X149860000Y-52705000D02*
X151130000Y-51435000D01*
X149860000Y-60325000D02*
X151130000Y-59055000D01*
X149860000Y-67945000D02*
X149860000Y-68580000D01*
X149860000Y-69215000D02*
X153670000Y-73025000D01*
X149860000Y-46990000D02*
X151130000Y-48260000D01*
X152400000Y-77470000D02*
X152400000Y-76200000D01*
X149860000Y-53340000D02*
X149860000Y-52705000D01*
X153670000Y-74295000D02*
X152400000Y-75565000D01*
X152400000Y-83820000D02*
X153670000Y-82550000D01*
X153670000Y-73025000D02*
X153670000Y-74295000D01*
X149860000Y-68580000D02*
X149860000Y-69215000D01*
X149860000Y-45720000D02*
X149860000Y-46990000D01*
X149860000Y-60960000D02*
X149860000Y-62230000D01*
X151130000Y-66675000D02*
X149860000Y-67945000D01*
X149860000Y-54610000D02*
X149860000Y-53340000D01*
X151130000Y-55880000D02*
X149860000Y-54610000D01*
X151130000Y-63500000D02*
X151130000Y-66675000D01*
X149860000Y-60960000D02*
X149860000Y-60325000D01*
X151130000Y-48260000D02*
X151130000Y-51435000D01*
X149860000Y-62230000D02*
X151130000Y-63500000D01*
X148590000Y-62230000D02*
X149860000Y-63500000D01*
X148590000Y-46990000D02*
X149860000Y-48260000D01*
X152400000Y-74295000D02*
X151130000Y-75565000D01*
X149860000Y-48260000D02*
X149860000Y-50800000D01*
X149860000Y-58420000D02*
X149860000Y-55880000D01*
X151130000Y-77470000D02*
X152400000Y-78740000D01*
X152400000Y-73660000D02*
X152400000Y-74295000D01*
X148590000Y-54610000D02*
X148590000Y-52706396D01*
X149860000Y-66675000D02*
X149860000Y-66040000D01*
X148590000Y-67945000D02*
X149860000Y-66675000D01*
X151130000Y-75565000D02*
X151130000Y-77470000D01*
X149860000Y-43180000D02*
X148590000Y-44450000D01*
X149860000Y-58420000D02*
X149860000Y-59055000D01*
X152400000Y-73660000D02*
X152400000Y-73025000D01*
X148590000Y-44450000D02*
X148590000Y-46990000D01*
X148590000Y-69215000D02*
X148590000Y-67945000D01*
X148590000Y-52706396D02*
X149860000Y-51436396D01*
X152400000Y-73025000D02*
X148590000Y-69215000D01*
X149860000Y-59055000D02*
X148590000Y-60325000D01*
X152400000Y-78740000D02*
X152400000Y-81280000D01*
X149860000Y-51436396D02*
X149860000Y-50800000D01*
X148590000Y-60325000D02*
X148590000Y-62230000D01*
X149860000Y-63500000D02*
X149860000Y-66040000D01*
X149860000Y-55880000D02*
X148590000Y-54610000D01*
X152400000Y-46990000D02*
X153670000Y-48260000D01*
X153670000Y-63500000D02*
X153670000Y-66675000D01*
X152400000Y-60960000D02*
X153670000Y-59690000D01*
X152400000Y-52705000D02*
X153670000Y-51435000D01*
X154940000Y-77470000D02*
X154940000Y-76200000D01*
X152400000Y-53340000D02*
X152400000Y-52705000D01*
X154940000Y-75565000D02*
X156210000Y-74295000D01*
X152400000Y-54610000D02*
X152400000Y-53340000D01*
X152400000Y-60960000D02*
X152400000Y-62230000D01*
X153670000Y-48260000D02*
X153670000Y-51435000D01*
X152401396Y-69215000D02*
X152400000Y-69215000D01*
X152400000Y-68580000D02*
X152400000Y-67945000D01*
X152400000Y-45720000D02*
X152400000Y-46990000D01*
X152400000Y-69215000D02*
X152400000Y-68580000D01*
X156210000Y-78740000D02*
X154940000Y-77470000D01*
X156210000Y-74295000D02*
X156210000Y-73023604D01*
X152400000Y-67945000D02*
X153670000Y-66675000D01*
X156210000Y-73023604D02*
X152401396Y-69215000D01*
X154940000Y-76200000D02*
X154940000Y-75565000D01*
X154940000Y-83820000D02*
X156210000Y-82550000D01*
X152400000Y-62230000D02*
X153670000Y-63500000D01*
X153670000Y-55880000D02*
X152400000Y-54610000D01*
X156210000Y-82550000D02*
X156210000Y-78740000D01*
X153670000Y-59690000D02*
X153670000Y-55880000D01*
X154940000Y-73025000D02*
X154940000Y-73660000D01*
X151130000Y-62230000D02*
X152400000Y-63500000D01*
X153670000Y-75565000D02*
X153670000Y-77470000D01*
X152400000Y-58420000D02*
X152400000Y-59055000D01*
X152400000Y-63500000D02*
X152400000Y-66040000D01*
X151130000Y-44450000D02*
X152400000Y-43180000D01*
X151130000Y-54610000D02*
X151130000Y-52705000D01*
X151130000Y-67945000D02*
X152400000Y-66675000D01*
X151130000Y-69215000D02*
X154940000Y-73025000D01*
X151130000Y-52705000D02*
X152400000Y-51435000D01*
X152400000Y-48260000D02*
X151130000Y-46990000D01*
X151130000Y-67945000D02*
X151130000Y-69215000D01*
X152400000Y-59055000D02*
X151130000Y-60325000D01*
X151130000Y-46990000D02*
X151130000Y-44450000D01*
X154940000Y-74295000D02*
X153670000Y-75565000D01*
X151130000Y-60325000D02*
X151130000Y-62230000D01*
X153670000Y-77470000D02*
X154940000Y-78740000D01*
X152400000Y-58420000D02*
X152400000Y-55880000D01*
X154940000Y-78740000D02*
X154940000Y-81280000D01*
X154940000Y-73660000D02*
X154940000Y-74295000D01*
X152400000Y-55880000D02*
X151130000Y-54610000D01*
X152400000Y-66675000D02*
X152400000Y-66040000D01*
X152400000Y-50800000D02*
X152400000Y-48260000D01*
X158750000Y-78740000D02*
X158750000Y-82550000D01*
X157480000Y-75565000D02*
X158750000Y-74295000D01*
X156210000Y-55880000D02*
X156210000Y-66675000D01*
X154940000Y-67945000D02*
X156210000Y-66675000D01*
X156210000Y-48260000D02*
X154940000Y-46990000D01*
X156210000Y-51435000D02*
X156210000Y-48260000D01*
X154940000Y-53340000D02*
X154940000Y-52705000D01*
X154940000Y-68580000D02*
X154940000Y-67945000D01*
X157480000Y-76200000D02*
X157480000Y-75565000D01*
X154940000Y-46990000D02*
X154940000Y-45720000D01*
X154940000Y-52705000D02*
X156210000Y-51435000D01*
X154940000Y-54610000D02*
X156210000Y-55880000D01*
X158750000Y-82550000D02*
X157480000Y-83820000D01*
X158750000Y-73025000D02*
X154940000Y-69215000D01*
X157480000Y-77470000D02*
X158750000Y-78740000D01*
X157480000Y-76200000D02*
X157480000Y-77470000D01*
X154940000Y-53340000D02*
X154940000Y-54610000D01*
X154940000Y-69215000D02*
X154940000Y-68580000D01*
X158750000Y-74295000D02*
X158750000Y-73025000D01*
X153670000Y-46990000D02*
X154940000Y-48260000D01*
X157480000Y-73660000D02*
X157480000Y-73023604D01*
X157480000Y-78740000D02*
X157480000Y-81280000D01*
X156210000Y-75565000D02*
X156210000Y-77470000D01*
X154940000Y-66040000D02*
X154940000Y-55880000D01*
X153670000Y-52706396D02*
X154940000Y-51436396D01*
X153670000Y-67945000D02*
X154940000Y-66675000D01*
X154940000Y-48260000D02*
X154940000Y-50800000D01*
X157480000Y-73023604D02*
X154306396Y-69850000D01*
X153670000Y-54610000D02*
X153670000Y-52706396D01*
X153670000Y-44450000D02*
X153670000Y-46990000D01*
X157480000Y-73660000D02*
X157480000Y-74295000D01*
X156210000Y-77470000D02*
X157480000Y-78740000D01*
X154940000Y-51436396D02*
X154940000Y-50800000D01*
X157480000Y-74295000D02*
X156210000Y-75565000D01*
X154306396Y-69850000D02*
X154305000Y-69850000D01*
X154305000Y-69850000D02*
X153670000Y-69215000D01*
X153670000Y-69215000D02*
X153670000Y-67945000D01*
X154940000Y-55880000D02*
X153670000Y-54610000D01*
X154940000Y-43180000D02*
X153670000Y-44450000D01*
X154940000Y-66675000D02*
X154940000Y-66040000D01*
X157480000Y-69215000D02*
X161290000Y-73025000D01*
X157480000Y-68580000D02*
X157480000Y-69215000D01*
X157480000Y-45720000D02*
X157480000Y-46990000D01*
X160020000Y-76200000D02*
X160020000Y-77470000D01*
X161290000Y-82550000D02*
X160020000Y-83820000D01*
X157480000Y-67945000D02*
X157480000Y-68580000D01*
X161290000Y-78740000D02*
X161290000Y-82550000D01*
X161290000Y-73025000D02*
X161290000Y-74295000D01*
X158750000Y-48260000D02*
X158750000Y-51435000D01*
X160020000Y-77470000D02*
X161290000Y-78740000D01*
X160020000Y-75565000D02*
X160020000Y-76200000D01*
X157480000Y-53340000D02*
X157480000Y-54610000D01*
X157480000Y-52705000D02*
X158750000Y-51435000D01*
X158750000Y-55880000D02*
X158750000Y-66675000D01*
X157480000Y-53340000D02*
X157480000Y-52705000D01*
X161290000Y-74295000D02*
X160020000Y-75565000D01*
X158750000Y-66675000D02*
X157480000Y-67945000D01*
X157480000Y-54610000D02*
X158750000Y-55880000D01*
X157480000Y-46990000D02*
X158750000Y-48260000D01*
X157480000Y-66040000D02*
X157480000Y-66675000D01*
X157480000Y-51435000D02*
X156210000Y-52705000D01*
X157480000Y-48260000D02*
X157480000Y-50800000D01*
X156210000Y-44450000D02*
X156210000Y-46990000D01*
X157480000Y-66675000D02*
X156210000Y-67945000D01*
X156210000Y-67945000D02*
X156210000Y-69215000D01*
X156210000Y-46990000D02*
X157480000Y-48260000D01*
X160020000Y-73660000D02*
X160020000Y-74295000D01*
X157480000Y-43180000D02*
X156210000Y-44450000D01*
X160020000Y-74295000D02*
X158750000Y-75565000D01*
X156210000Y-69215000D02*
X160020000Y-73025000D01*
X160020000Y-73660000D02*
X160020000Y-73025000D01*
X158750000Y-77470000D02*
X160020000Y-78740000D01*
X158750000Y-75565000D02*
X158750000Y-77470000D01*
X157480000Y-50800000D02*
X157480000Y-51435000D01*
X156210000Y-52705000D02*
X156210000Y-54610000D01*
X157480000Y-55880000D02*
X157480000Y-66040000D01*
X160020000Y-78740000D02*
X160020000Y-81280000D01*
X156210000Y-54610000D02*
X157480000Y-55880000D01*
X160020000Y-67945000D02*
X160020000Y-68580000D01*
X161290000Y-55880000D02*
X161290000Y-66675000D01*
X163830000Y-74930000D02*
X163830000Y-72390000D01*
X160020000Y-53340000D02*
X160020000Y-54610000D01*
X161290000Y-66675000D02*
X160020000Y-67945000D01*
X160020000Y-46990000D02*
X161290000Y-48260000D01*
X161290000Y-52070000D02*
X160020000Y-53340000D01*
X160020000Y-54610000D02*
X161290000Y-55880000D01*
X160020000Y-45720000D02*
X160020000Y-46990000D01*
X163830000Y-72390000D02*
X160020000Y-68580000D01*
X162560000Y-76200000D02*
X163830000Y-74930000D01*
X161290000Y-48260000D02*
X161290000Y-52070000D01*
X158750000Y-54610000D02*
X160020000Y-55880000D01*
X158750000Y-46990000D02*
X160020000Y-48260000D01*
X160020000Y-50800000D02*
X160020000Y-51435000D01*
X160020000Y-51435000D02*
X158750000Y-52705000D01*
X158750000Y-69215000D02*
X162560000Y-73025000D01*
X162560000Y-73025000D02*
X162560000Y-73660000D01*
X160020000Y-66675000D02*
X158750000Y-67945000D01*
X160020000Y-55880000D02*
X160020000Y-66040000D01*
X160020000Y-66040000D02*
X160020000Y-66675000D01*
X158750000Y-44450000D02*
X160020000Y-43180000D01*
X158750000Y-67945000D02*
X158750000Y-69215000D01*
X158750000Y-44450000D02*
X158750000Y-46990000D01*
X158750000Y-52705000D02*
X158750000Y-54610000D01*
X160020000Y-48260000D02*
X160020000Y-50800000D01*
G04 #@! TA.AperFunction,Conductor*
G36*
X166340018Y-38610000D02*
G01*
X166354852Y-38612310D01*
X166354855Y-38612310D01*
X166363724Y-38613691D01*
X166373659Y-38612392D01*
X166374746Y-38612250D01*
X166403431Y-38611793D01*
X166476741Y-38619013D01*
X166506212Y-38621916D01*
X166530432Y-38626733D01*
X166649546Y-38662866D01*
X166672355Y-38672315D01*
X166782124Y-38730987D01*
X166802655Y-38744705D01*
X166898876Y-38823671D01*
X166916329Y-38841124D01*
X166995295Y-38937345D01*
X167009013Y-38957876D01*
X167067685Y-39067645D01*
X167077134Y-39090454D01*
X167113267Y-39209568D01*
X167118084Y-39233789D01*
X167127541Y-39329809D01*
X167127091Y-39345868D01*
X167127800Y-39345877D01*
X167127690Y-39354853D01*
X167126309Y-39363724D01*
X167127473Y-39372626D01*
X167127473Y-39372628D01*
X167130436Y-39395283D01*
X167131500Y-39411621D01*
X167131500Y-92660633D01*
X167130000Y-92680018D01*
X167126309Y-92703724D01*
X167127473Y-92712626D01*
X167127750Y-92714746D01*
X167128207Y-92743431D01*
X167127289Y-92752755D01*
X167118084Y-92846212D01*
X167113267Y-92870432D01*
X167077134Y-92989546D01*
X167067685Y-93012355D01*
X167009013Y-93122124D01*
X166995295Y-93142655D01*
X166916329Y-93238876D01*
X166898876Y-93256329D01*
X166802655Y-93335295D01*
X166782124Y-93349013D01*
X166672355Y-93407685D01*
X166649546Y-93417134D01*
X166530432Y-93453267D01*
X166506211Y-93458084D01*
X166410191Y-93467541D01*
X166394132Y-93467091D01*
X166394123Y-93467800D01*
X166385147Y-93467690D01*
X166376276Y-93466309D01*
X166367374Y-93467473D01*
X166367372Y-93467473D01*
X166354856Y-93469110D01*
X166344714Y-93470436D01*
X166328379Y-93471500D01*
X111809367Y-93471500D01*
X111789982Y-93470000D01*
X111775148Y-93467690D01*
X111775145Y-93467690D01*
X111766276Y-93466309D01*
X111756341Y-93467608D01*
X111755254Y-93467750D01*
X111726569Y-93468207D01*
X111653259Y-93460987D01*
X111623788Y-93458084D01*
X111599568Y-93453267D01*
X111480454Y-93417134D01*
X111457645Y-93407685D01*
X111347876Y-93349013D01*
X111327345Y-93335295D01*
X111231124Y-93256329D01*
X111213671Y-93238876D01*
X111134705Y-93142655D01*
X111120987Y-93122124D01*
X111062315Y-93012355D01*
X111052866Y-92989546D01*
X111016733Y-92870432D01*
X111011916Y-92846212D01*
X111002711Y-92752755D01*
X111002607Y-92729151D01*
X111002768Y-92727354D01*
X111003576Y-92722552D01*
X111003729Y-92710000D01*
X110999773Y-92682376D01*
X110998500Y-92664514D01*
X110998500Y-89642655D01*
X140479858Y-89642655D01*
X140515104Y-89901638D01*
X140516412Y-89906124D01*
X140516412Y-89906126D01*
X140536098Y-89973664D01*
X140588243Y-90152567D01*
X140697668Y-90389928D01*
X140700231Y-90393837D01*
X140838410Y-90604596D01*
X140838414Y-90604601D01*
X140840976Y-90608509D01*
X141015018Y-90803506D01*
X141215970Y-90970637D01*
X141219973Y-90973066D01*
X141435422Y-91103804D01*
X141435426Y-91103806D01*
X141439419Y-91106229D01*
X141680455Y-91207303D01*
X141933783Y-91271641D01*
X141938434Y-91272109D01*
X141938438Y-91272110D01*
X142131308Y-91291531D01*
X142150867Y-91293500D01*
X142306354Y-91293500D01*
X142308679Y-91293327D01*
X142308685Y-91293327D01*
X142496000Y-91279407D01*
X142496004Y-91279406D01*
X142500652Y-91279061D01*
X142505200Y-91278032D01*
X142505206Y-91278031D01*
X142691601Y-91235853D01*
X142755577Y-91221377D01*
X142791769Y-91207303D01*
X142994824Y-91128340D01*
X142994827Y-91128339D01*
X142999177Y-91126647D01*
X143226098Y-90996951D01*
X143431357Y-90835138D01*
X143610443Y-90644763D01*
X143759424Y-90430009D01*
X143875025Y-90195593D01*
X143954707Y-89946665D01*
X143996721Y-89688693D01*
X144000142Y-89427345D01*
X143964896Y-89168362D01*
X143950473Y-89118877D01*
X143893068Y-88921932D01*
X143891757Y-88917433D01*
X143782332Y-88680072D01*
X143749519Y-88630024D01*
X143641590Y-88465404D01*
X143641586Y-88465399D01*
X143639024Y-88461491D01*
X143464982Y-88266494D01*
X143264030Y-88099363D01*
X143216844Y-88070730D01*
X143044578Y-87966196D01*
X143044574Y-87966194D01*
X143040581Y-87963771D01*
X142799545Y-87862697D01*
X142546217Y-87798359D01*
X142541566Y-87797891D01*
X142541562Y-87797890D01*
X142332271Y-87776816D01*
X142329133Y-87776500D01*
X142173646Y-87776500D01*
X142171321Y-87776673D01*
X142171315Y-87776673D01*
X141984000Y-87790593D01*
X141983996Y-87790594D01*
X141979348Y-87790939D01*
X141974800Y-87791968D01*
X141974794Y-87791969D01*
X141788399Y-87834147D01*
X141724423Y-87848623D01*
X141720071Y-87850315D01*
X141720069Y-87850316D01*
X141485176Y-87941660D01*
X141485173Y-87941661D01*
X141480823Y-87943353D01*
X141253902Y-88073049D01*
X141048643Y-88234862D01*
X140869557Y-88425237D01*
X140720576Y-88639991D01*
X140604975Y-88874407D01*
X140525293Y-89123335D01*
X140483279Y-89381307D01*
X140479858Y-89642655D01*
X110998500Y-89642655D01*
X110998500Y-81007885D01*
X115482000Y-81007885D01*
X115486475Y-81023124D01*
X115487865Y-81024329D01*
X115495548Y-81026000D01*
X116567885Y-81026000D01*
X116583124Y-81021525D01*
X116584329Y-81020135D01*
X116586000Y-81012452D01*
X116586000Y-79940116D01*
X116581525Y-79924877D01*
X116580135Y-79923672D01*
X116572452Y-79922001D01*
X115945331Y-79922001D01*
X115938510Y-79922371D01*
X115887648Y-79927895D01*
X115872396Y-79931521D01*
X115751946Y-79976676D01*
X115736351Y-79985214D01*
X115634276Y-80061715D01*
X115621715Y-80074276D01*
X115545214Y-80176351D01*
X115536676Y-80191946D01*
X115491522Y-80312394D01*
X115487895Y-80327649D01*
X115482369Y-80378514D01*
X115482000Y-80385328D01*
X115482000Y-81007885D01*
X110998500Y-81007885D01*
X110998500Y-56948507D01*
X111987850Y-56948507D01*
X111988195Y-56955094D01*
X111988195Y-56955098D01*
X111991327Y-57014850D01*
X111991500Y-57021445D01*
X111991500Y-57041306D01*
X111991844Y-57044577D01*
X111993576Y-57061059D01*
X111994093Y-57067628D01*
X111997570Y-57133971D01*
X112001042Y-57146929D01*
X112004645Y-57166372D01*
X112006046Y-57179702D01*
X112026578Y-57242894D01*
X112028444Y-57249196D01*
X112032444Y-57264124D01*
X112045638Y-57313363D01*
X112048634Y-57319242D01*
X112048637Y-57319251D01*
X112051728Y-57325317D01*
X112059292Y-57343579D01*
X112061392Y-57350043D01*
X112061395Y-57350051D01*
X112063436Y-57356331D01*
X112066738Y-57362050D01*
X112066740Y-57362055D01*
X112096654Y-57413867D01*
X112099787Y-57419637D01*
X112129953Y-57478839D01*
X112134109Y-57483971D01*
X112138391Y-57489259D01*
X112149589Y-57505552D01*
X112156296Y-57517169D01*
X112160713Y-57522075D01*
X112160717Y-57522080D01*
X112200747Y-57566538D01*
X112205031Y-57571554D01*
X112215441Y-57584409D01*
X112217528Y-57586986D01*
X112231573Y-57601031D01*
X112236114Y-57605816D01*
X112280566Y-57655185D01*
X112291426Y-57663075D01*
X112306454Y-57675912D01*
X112902381Y-58271839D01*
X112936407Y-58334151D01*
X112938573Y-58374322D01*
X112937251Y-58386695D01*
X112950110Y-58609715D01*
X112951247Y-58614761D01*
X112951248Y-58614767D01*
X112972275Y-58708069D01*
X112999222Y-58827639D01*
X113083266Y-59034616D01*
X113199987Y-59225088D01*
X113346250Y-59393938D01*
X113350230Y-59397242D01*
X113370986Y-59414475D01*
X113410621Y-59473378D01*
X113416500Y-59511418D01*
X113416500Y-59867576D01*
X113396498Y-59935697D01*
X113381594Y-59954627D01*
X113240629Y-60102138D01*
X113114743Y-60286680D01*
X113020688Y-60489305D01*
X112960989Y-60704570D01*
X112937251Y-60926695D01*
X112937548Y-60931848D01*
X112937548Y-60931851D01*
X112943011Y-61026590D01*
X112950110Y-61149715D01*
X112951247Y-61154761D01*
X112951248Y-61154767D01*
X112971119Y-61242939D01*
X112999222Y-61367639D01*
X113083266Y-61574616D01*
X113199987Y-61765088D01*
X113346250Y-61933938D01*
X113518126Y-62076632D01*
X113711000Y-62189338D01*
X113715825Y-62191180D01*
X113715826Y-62191181D01*
X113788612Y-62218975D01*
X113919692Y-62269030D01*
X113924760Y-62270061D01*
X113924763Y-62270062D01*
X113972431Y-62279760D01*
X114138597Y-62313567D01*
X114143772Y-62313757D01*
X114143774Y-62313757D01*
X114356673Y-62321564D01*
X114356677Y-62321564D01*
X114361837Y-62321753D01*
X114366957Y-62321097D01*
X114366959Y-62321097D01*
X114578288Y-62294025D01*
X114578289Y-62294025D01*
X114583416Y-62293368D01*
X114588366Y-62291883D01*
X114792429Y-62230661D01*
X114792434Y-62230659D01*
X114797384Y-62229174D01*
X114997994Y-62130896D01*
X115179860Y-62001173D01*
X115338096Y-61843489D01*
X115397594Y-61760689D01*
X115468453Y-61662077D01*
X115469640Y-61662930D01*
X115516960Y-61619362D01*
X115586897Y-61607145D01*
X115652338Y-61634678D01*
X115680166Y-61666511D01*
X115737694Y-61760388D01*
X115743777Y-61768699D01*
X115883213Y-61929667D01*
X115890580Y-61936883D01*
X116054434Y-62072916D01*
X116062881Y-62078831D01*
X116246756Y-62186279D01*
X116256042Y-62190729D01*
X116455001Y-62266703D01*
X116464899Y-62269579D01*
X116568250Y-62290606D01*
X116582299Y-62289410D01*
X116586000Y-62279065D01*
X116586000Y-57103102D01*
X116582082Y-57089758D01*
X116567806Y-57087771D01*
X116529324Y-57093660D01*
X116519288Y-57096051D01*
X116316868Y-57162212D01*
X116307359Y-57166209D01*
X116118463Y-57264542D01*
X116109738Y-57270036D01*
X115939433Y-57397905D01*
X115931726Y-57404748D01*
X115784590Y-57558717D01*
X115778109Y-57566722D01*
X115673498Y-57720074D01*
X115618587Y-57765076D01*
X115548062Y-57773247D01*
X115484315Y-57741993D01*
X115463618Y-57717509D01*
X115382822Y-57592617D01*
X115382820Y-57592614D01*
X115380014Y-57588277D01*
X115229670Y-57423051D01*
X115225619Y-57419852D01*
X115225615Y-57419848D01*
X115058414Y-57287800D01*
X115058410Y-57287798D01*
X115054359Y-57284598D01*
X115018028Y-57264542D01*
X114978776Y-57242874D01*
X114858789Y-57176638D01*
X114853920Y-57174914D01*
X114853916Y-57174912D01*
X114653087Y-57103795D01*
X114653083Y-57103794D01*
X114648212Y-57102069D01*
X114643119Y-57101162D01*
X114643116Y-57101161D01*
X114433373Y-57063800D01*
X114433367Y-57063799D01*
X114428284Y-57062894D01*
X114397499Y-57062518D01*
X114240719Y-57060602D01*
X114172848Y-57039769D01*
X114153164Y-57023706D01*
X113795405Y-56665947D01*
X113761379Y-56603635D01*
X113758500Y-56576852D01*
X113758500Y-54769574D01*
X113778502Y-54701453D01*
X113832158Y-54654960D01*
X113902432Y-54644856D01*
X113917009Y-54648006D01*
X113919692Y-54649030D01*
X113924762Y-54650061D01*
X113924767Y-54650063D01*
X114044354Y-54674393D01*
X114138597Y-54693567D01*
X114143772Y-54693757D01*
X114143774Y-54693757D01*
X114356673Y-54701564D01*
X114356677Y-54701564D01*
X114361837Y-54701753D01*
X114366957Y-54701097D01*
X114366959Y-54701097D01*
X114578288Y-54674025D01*
X114578289Y-54674025D01*
X114583416Y-54673368D01*
X114596609Y-54669410D01*
X114792429Y-54610661D01*
X114792434Y-54610659D01*
X114797384Y-54609174D01*
X114997994Y-54510896D01*
X115179860Y-54381173D01*
X115338096Y-54223489D01*
X115468453Y-54042077D01*
X115469640Y-54042930D01*
X115516960Y-53999362D01*
X115586897Y-53987145D01*
X115652338Y-54014678D01*
X115680166Y-54046511D01*
X115737694Y-54140388D01*
X115743777Y-54148699D01*
X115883213Y-54309667D01*
X115890580Y-54316883D01*
X116054434Y-54452916D01*
X116062881Y-54458831D01*
X116246756Y-54566279D01*
X116256042Y-54570729D01*
X116455001Y-54646703D01*
X116464899Y-54649579D01*
X116568250Y-54670606D01*
X116582299Y-54669410D01*
X116586000Y-54659065D01*
X116586000Y-49483102D01*
X116582082Y-49469758D01*
X116567806Y-49467771D01*
X116529324Y-49473660D01*
X116519288Y-49476051D01*
X116316868Y-49542212D01*
X116307359Y-49546209D01*
X116118463Y-49644542D01*
X116109738Y-49650036D01*
X115939433Y-49777905D01*
X115931726Y-49784748D01*
X115784590Y-49938717D01*
X115778109Y-49946722D01*
X115673498Y-50100074D01*
X115618587Y-50145076D01*
X115548062Y-50153247D01*
X115484315Y-50121993D01*
X115463618Y-50097509D01*
X115382822Y-49972617D01*
X115382820Y-49972614D01*
X115380014Y-49968277D01*
X115229670Y-49803051D01*
X115225619Y-49799852D01*
X115225615Y-49799848D01*
X115058414Y-49667800D01*
X115058410Y-49667798D01*
X115054359Y-49664598D01*
X115018028Y-49644542D01*
X114940995Y-49602018D01*
X114858789Y-49556638D01*
X114853920Y-49554914D01*
X114853916Y-49554912D01*
X114653087Y-49483795D01*
X114653083Y-49483794D01*
X114648212Y-49482069D01*
X114643119Y-49481162D01*
X114643116Y-49481161D01*
X114433373Y-49443800D01*
X114433367Y-49443799D01*
X114428284Y-49442894D01*
X114354452Y-49441992D01*
X114210081Y-49440228D01*
X114210079Y-49440228D01*
X114204911Y-49440165D01*
X113984091Y-49473955D01*
X113923644Y-49493712D01*
X113852682Y-49495863D01*
X113791820Y-49459307D01*
X113760383Y-49395650D01*
X113758500Y-49373947D01*
X113758500Y-47563148D01*
X113778502Y-47495027D01*
X113795405Y-47474053D01*
X114154053Y-47115405D01*
X114216365Y-47081379D01*
X114243148Y-47078500D01*
X115198134Y-47078500D01*
X115260316Y-47071745D01*
X115396705Y-47020615D01*
X115513261Y-46933261D01*
X115600615Y-46816705D01*
X115613000Y-46783669D01*
X115644798Y-46698848D01*
X115687440Y-46642084D01*
X115754001Y-46617384D01*
X115823350Y-46632592D01*
X115858017Y-46660580D01*
X115883218Y-46689673D01*
X115890580Y-46696883D01*
X116054434Y-46832916D01*
X116062881Y-46838831D01*
X116246756Y-46946279D01*
X116256042Y-46950729D01*
X116455001Y-47026703D01*
X116464899Y-47029579D01*
X116568250Y-47050606D01*
X116582299Y-47049410D01*
X116586000Y-47039065D01*
X116586000Y-43052000D01*
X116606002Y-42983879D01*
X116659658Y-42937386D01*
X116712000Y-42926000D01*
X116968000Y-42926000D01*
X117036121Y-42946002D01*
X117082614Y-42999658D01*
X117094000Y-43052000D01*
X117094000Y-47038517D01*
X117098064Y-47052359D01*
X117111478Y-47054393D01*
X117118184Y-47053534D01*
X117128266Y-47051391D01*
X117320441Y-46993736D01*
X117391436Y-46993320D01*
X117451386Y-47031352D01*
X117478895Y-47090014D01*
X117479327Y-47089888D01*
X117479327Y-47089889D01*
X117481539Y-47097503D01*
X117484978Y-47109339D01*
X117488987Y-47128700D01*
X117491526Y-47148797D01*
X117494445Y-47156168D01*
X117494445Y-47156170D01*
X117507804Y-47189912D01*
X117511649Y-47201142D01*
X117515541Y-47214538D01*
X117523982Y-47243593D01*
X117528015Y-47250412D01*
X117528017Y-47250417D01*
X117534293Y-47261028D01*
X117542988Y-47278776D01*
X117550448Y-47297617D01*
X117555110Y-47304033D01*
X117555110Y-47304034D01*
X117576436Y-47333387D01*
X117582952Y-47343307D01*
X117605458Y-47381362D01*
X117619779Y-47395683D01*
X117632619Y-47410716D01*
X117644528Y-47427107D01*
X117650634Y-47432158D01*
X117678605Y-47455298D01*
X117687384Y-47463288D01*
X118709595Y-48485499D01*
X118743621Y-48547811D01*
X118746500Y-48574594D01*
X118746500Y-49521692D01*
X118726498Y-49589813D01*
X118678683Y-49633453D01*
X118653607Y-49646507D01*
X118649474Y-49649610D01*
X118649471Y-49649612D01*
X118625247Y-49667800D01*
X118474965Y-49780635D01*
X118320629Y-49942138D01*
X118317715Y-49946410D01*
X118317714Y-49946411D01*
X118212898Y-50100066D01*
X118157987Y-50145069D01*
X118087462Y-50153240D01*
X118023715Y-50121986D01*
X118003018Y-50097502D01*
X117922426Y-49972926D01*
X117916136Y-49964757D01*
X117772806Y-49807240D01*
X117765273Y-49800215D01*
X117598139Y-49668222D01*
X117589552Y-49662517D01*
X117403117Y-49559599D01*
X117393705Y-49555369D01*
X117192959Y-49484280D01*
X117182988Y-49481646D01*
X117111837Y-49468972D01*
X117098540Y-49470432D01*
X117094000Y-49484989D01*
X117094000Y-54658517D01*
X117098064Y-54672359D01*
X117111478Y-54674393D01*
X117118184Y-54673534D01*
X117128266Y-54671391D01*
X117320441Y-54613736D01*
X117391436Y-54613320D01*
X117451386Y-54651352D01*
X117478895Y-54710014D01*
X117479327Y-54709888D01*
X117479327Y-54709889D01*
X117481539Y-54717503D01*
X117484978Y-54729339D01*
X117488987Y-54748700D01*
X117491526Y-54768797D01*
X117494445Y-54776168D01*
X117494445Y-54776170D01*
X117507804Y-54809912D01*
X117511649Y-54821142D01*
X117523982Y-54863593D01*
X117528015Y-54870412D01*
X117528017Y-54870417D01*
X117534293Y-54881028D01*
X117542988Y-54898776D01*
X117550448Y-54917617D01*
X117555110Y-54924033D01*
X117555110Y-54924034D01*
X117576436Y-54953387D01*
X117582952Y-54963307D01*
X117605458Y-55001362D01*
X117619779Y-55015683D01*
X117632619Y-55030716D01*
X117644528Y-55047107D01*
X117650634Y-55052158D01*
X117678605Y-55075298D01*
X117687384Y-55083288D01*
X118709595Y-56105499D01*
X118743621Y-56167811D01*
X118746500Y-56194594D01*
X118746500Y-57141692D01*
X118726498Y-57209813D01*
X118678683Y-57253453D01*
X118653607Y-57266507D01*
X118649474Y-57269610D01*
X118649471Y-57269612D01*
X118479100Y-57397530D01*
X118474965Y-57400635D01*
X118320629Y-57562138D01*
X118317715Y-57566410D01*
X118317714Y-57566411D01*
X118212898Y-57720066D01*
X118157987Y-57765069D01*
X118087462Y-57773240D01*
X118023715Y-57741986D01*
X118003018Y-57717502D01*
X117922426Y-57592926D01*
X117916136Y-57584757D01*
X117772806Y-57427240D01*
X117765273Y-57420215D01*
X117598139Y-57288222D01*
X117589552Y-57282517D01*
X117403117Y-57179599D01*
X117393705Y-57175369D01*
X117192959Y-57104280D01*
X117182988Y-57101646D01*
X117111837Y-57088972D01*
X117098540Y-57090432D01*
X117094000Y-57104989D01*
X117094000Y-62278517D01*
X117098064Y-62292359D01*
X117111478Y-62294393D01*
X117118184Y-62293534D01*
X117128262Y-62291392D01*
X117314292Y-62235580D01*
X117385288Y-62235164D01*
X117445238Y-62273196D01*
X117475110Y-62337602D01*
X117476500Y-62356266D01*
X117476500Y-69771233D01*
X117475973Y-69782416D01*
X117474298Y-69789909D01*
X117474547Y-69797835D01*
X117474547Y-69797836D01*
X117476438Y-69857986D01*
X117476500Y-69861945D01*
X117476500Y-69889856D01*
X117476997Y-69893790D01*
X117476997Y-69893791D01*
X117477005Y-69893856D01*
X117477938Y-69905693D01*
X117479327Y-69949889D01*
X117483848Y-69965450D01*
X117484978Y-69969339D01*
X117488987Y-69988700D01*
X117491526Y-70008797D01*
X117494445Y-70016168D01*
X117494445Y-70016170D01*
X117507804Y-70049912D01*
X117511649Y-70061142D01*
X117523982Y-70103593D01*
X117528015Y-70110412D01*
X117528017Y-70110417D01*
X117534293Y-70121028D01*
X117542988Y-70138776D01*
X117550448Y-70157617D01*
X117555110Y-70164033D01*
X117555110Y-70164034D01*
X117576436Y-70193387D01*
X117582952Y-70203307D01*
X117605458Y-70241362D01*
X117619779Y-70255683D01*
X117632619Y-70270716D01*
X117644528Y-70287107D01*
X117650634Y-70292158D01*
X117678605Y-70315298D01*
X117687384Y-70323288D01*
X118709595Y-71345499D01*
X118743621Y-71407811D01*
X118746500Y-71434594D01*
X118746500Y-72381692D01*
X118726498Y-72449813D01*
X118678683Y-72493453D01*
X118653607Y-72506507D01*
X118649474Y-72509610D01*
X118649471Y-72509612D01*
X118625247Y-72527800D01*
X118474965Y-72640635D01*
X118320629Y-72802138D01*
X118194743Y-72986680D01*
X118100688Y-73189305D01*
X118040989Y-73404570D01*
X118017251Y-73626695D01*
X118030110Y-73849715D01*
X118031247Y-73854761D01*
X118031248Y-73854767D01*
X118063453Y-73997668D01*
X118058917Y-74068520D01*
X118029631Y-74114464D01*
X117717747Y-74426348D01*
X117709461Y-74433888D01*
X117702982Y-74438000D01*
X117697557Y-74443777D01*
X117656357Y-74487651D01*
X117653602Y-74490493D01*
X117633865Y-74510230D01*
X117631385Y-74513427D01*
X117623682Y-74522447D01*
X117593414Y-74554679D01*
X117589595Y-74561625D01*
X117589593Y-74561628D01*
X117583652Y-74572434D01*
X117572801Y-74588953D01*
X117560386Y-74604959D01*
X117557241Y-74612228D01*
X117557238Y-74612232D01*
X117542826Y-74645537D01*
X117537609Y-74656187D01*
X117516305Y-74694940D01*
X117514334Y-74702615D01*
X117514334Y-74702616D01*
X117511267Y-74714562D01*
X117504863Y-74733266D01*
X117496819Y-74751855D01*
X117495580Y-74759678D01*
X117495577Y-74759688D01*
X117489901Y-74795524D01*
X117487495Y-74807144D01*
X117476500Y-74849970D01*
X117476500Y-74870224D01*
X117474949Y-74889934D01*
X117471780Y-74909943D01*
X117472526Y-74917835D01*
X117475941Y-74953961D01*
X117476500Y-74965819D01*
X117476500Y-77391233D01*
X117475973Y-77402416D01*
X117474298Y-77409909D01*
X117474547Y-77417835D01*
X117474547Y-77417836D01*
X117476438Y-77477986D01*
X117476500Y-77481945D01*
X117476500Y-77509856D01*
X117476997Y-77513790D01*
X117476997Y-77513791D01*
X117477005Y-77513856D01*
X117477938Y-77525693D01*
X117479327Y-77569889D01*
X117484978Y-77589339D01*
X117488987Y-77608700D01*
X117491526Y-77628797D01*
X117494445Y-77636168D01*
X117494445Y-77636170D01*
X117507804Y-77669912D01*
X117511649Y-77681142D01*
X117523982Y-77723593D01*
X117528015Y-77730412D01*
X117528017Y-77730417D01*
X117534293Y-77741028D01*
X117542988Y-77758776D01*
X117550448Y-77777617D01*
X117555110Y-77784033D01*
X117555110Y-77784034D01*
X117576436Y-77813387D01*
X117582952Y-77823307D01*
X117599390Y-77851101D01*
X117605458Y-77861362D01*
X117619779Y-77875683D01*
X117632619Y-77890716D01*
X117644528Y-77907107D01*
X117678605Y-77935298D01*
X117687384Y-77943288D01*
X118709595Y-78965499D01*
X118743621Y-79027811D01*
X118746500Y-79054594D01*
X118746500Y-80001692D01*
X118726498Y-80069813D01*
X118678683Y-80113453D01*
X118653607Y-80126507D01*
X118649474Y-80129610D01*
X118649471Y-80129612D01*
X118566450Y-80191946D01*
X118474965Y-80260635D01*
X118471393Y-80264373D01*
X118393898Y-80345466D01*
X118332374Y-80380895D01*
X118261462Y-80377438D01*
X118203676Y-80336192D01*
X118184823Y-80302644D01*
X118143324Y-80191946D01*
X118134786Y-80176351D01*
X118058285Y-80074276D01*
X118045724Y-80061715D01*
X117943649Y-79985214D01*
X117928054Y-79976676D01*
X117807606Y-79931522D01*
X117792351Y-79927895D01*
X117741486Y-79922369D01*
X117734672Y-79922000D01*
X117112115Y-79922000D01*
X117096876Y-79926475D01*
X117095671Y-79927865D01*
X117094000Y-79935548D01*
X117094000Y-81408000D01*
X117073998Y-81476121D01*
X117020342Y-81522614D01*
X116968000Y-81534000D01*
X115500116Y-81534000D01*
X115484877Y-81538475D01*
X115483672Y-81539865D01*
X115482001Y-81547548D01*
X115482001Y-82174669D01*
X115482371Y-82181490D01*
X115487895Y-82232352D01*
X115491521Y-82247604D01*
X115536676Y-82368054D01*
X115545214Y-82383649D01*
X115621715Y-82485724D01*
X115634276Y-82498285D01*
X115736351Y-82574786D01*
X115751946Y-82583324D01*
X115860827Y-82624142D01*
X115917591Y-82666784D01*
X115942291Y-82733345D01*
X115927083Y-82802694D01*
X115907691Y-82829175D01*
X115784200Y-82958401D01*
X115780629Y-82962138D01*
X115777720Y-82966403D01*
X115777714Y-82966411D01*
X115745666Y-83013392D01*
X115654743Y-83146680D01*
X115560688Y-83349305D01*
X115500989Y-83564570D01*
X115477251Y-83786695D01*
X115477548Y-83791848D01*
X115477548Y-83791851D01*
X115483011Y-83886590D01*
X115490110Y-84009715D01*
X115491247Y-84014761D01*
X115491248Y-84014767D01*
X115511119Y-84102939D01*
X115539222Y-84227639D01*
X115623266Y-84434616D01*
X115674019Y-84517438D01*
X115737291Y-84620688D01*
X115739987Y-84625088D01*
X115886250Y-84793938D01*
X116058126Y-84936632D01*
X116251000Y-85049338D01*
X116459692Y-85129030D01*
X116464760Y-85130061D01*
X116464763Y-85130062D01*
X116559862Y-85149410D01*
X116678597Y-85173567D01*
X116683772Y-85173757D01*
X116683774Y-85173757D01*
X116896673Y-85181564D01*
X116896677Y-85181564D01*
X116901837Y-85181753D01*
X116906957Y-85181097D01*
X116906959Y-85181097D01*
X117118288Y-85154025D01*
X117118289Y-85154025D01*
X117123416Y-85153368D01*
X117128366Y-85151883D01*
X117332429Y-85090661D01*
X117332434Y-85090659D01*
X117337384Y-85089174D01*
X117537994Y-84990896D01*
X117719860Y-84861173D01*
X117878096Y-84703489D01*
X117937594Y-84620689D01*
X118008453Y-84522077D01*
X118009776Y-84523028D01*
X118056645Y-84479857D01*
X118126580Y-84467625D01*
X118192026Y-84495144D01*
X118219875Y-84526994D01*
X118279987Y-84625088D01*
X118426250Y-84793938D01*
X118598126Y-84936632D01*
X118791000Y-85049338D01*
X118999692Y-85129030D01*
X119004760Y-85130061D01*
X119004763Y-85130062D01*
X119099862Y-85149410D01*
X119218597Y-85173567D01*
X119223772Y-85173757D01*
X119223774Y-85173757D01*
X119436673Y-85181564D01*
X119436677Y-85181564D01*
X119441837Y-85181753D01*
X119446957Y-85181097D01*
X119446959Y-85181097D01*
X119658288Y-85154025D01*
X119658289Y-85154025D01*
X119663416Y-85153368D01*
X119668366Y-85151883D01*
X119872429Y-85090661D01*
X119872434Y-85090659D01*
X119877384Y-85089174D01*
X120077994Y-84990896D01*
X120259860Y-84861173D01*
X120418096Y-84703489D01*
X120477594Y-84620689D01*
X120548453Y-84522077D01*
X120549776Y-84523028D01*
X120596645Y-84479857D01*
X120666580Y-84467625D01*
X120732026Y-84495144D01*
X120759875Y-84526994D01*
X120819987Y-84625088D01*
X120966250Y-84793938D01*
X121138126Y-84936632D01*
X121331000Y-85049338D01*
X121539692Y-85129030D01*
X121544760Y-85130061D01*
X121544763Y-85130062D01*
X121639862Y-85149410D01*
X121758597Y-85173567D01*
X121763772Y-85173757D01*
X121763774Y-85173757D01*
X121976673Y-85181564D01*
X121976677Y-85181564D01*
X121981837Y-85181753D01*
X121986957Y-85181097D01*
X121986959Y-85181097D01*
X122198288Y-85154025D01*
X122198289Y-85154025D01*
X122203416Y-85153368D01*
X122208366Y-85151883D01*
X122412429Y-85090661D01*
X122412434Y-85090659D01*
X122417384Y-85089174D01*
X122617994Y-84990896D01*
X122799860Y-84861173D01*
X122958096Y-84703489D01*
X123017594Y-84620689D01*
X123088453Y-84522077D01*
X123089776Y-84523028D01*
X123136645Y-84479857D01*
X123206580Y-84467625D01*
X123272026Y-84495144D01*
X123299875Y-84526994D01*
X123359987Y-84625088D01*
X123506250Y-84793938D01*
X123678126Y-84936632D01*
X123871000Y-85049338D01*
X124079692Y-85129030D01*
X124084760Y-85130061D01*
X124084763Y-85130062D01*
X124179862Y-85149410D01*
X124298597Y-85173567D01*
X124303772Y-85173757D01*
X124303774Y-85173757D01*
X124516673Y-85181564D01*
X124516677Y-85181564D01*
X124521837Y-85181753D01*
X124526957Y-85181097D01*
X124526959Y-85181097D01*
X124738288Y-85154025D01*
X124738289Y-85154025D01*
X124743416Y-85153368D01*
X124748366Y-85151883D01*
X124952429Y-85090661D01*
X124952434Y-85090659D01*
X124957384Y-85089174D01*
X125157994Y-84990896D01*
X125339860Y-84861173D01*
X125498096Y-84703489D01*
X125557594Y-84620689D01*
X125628453Y-84522077D01*
X125629776Y-84523028D01*
X125676645Y-84479857D01*
X125746580Y-84467625D01*
X125812026Y-84495144D01*
X125839875Y-84526994D01*
X125899987Y-84625088D01*
X126046250Y-84793938D01*
X126218126Y-84936632D01*
X126411000Y-85049338D01*
X126619692Y-85129030D01*
X126624760Y-85130061D01*
X126624763Y-85130062D01*
X126719862Y-85149410D01*
X126838597Y-85173567D01*
X126843772Y-85173757D01*
X126843774Y-85173757D01*
X127056673Y-85181564D01*
X127056677Y-85181564D01*
X127061837Y-85181753D01*
X127066957Y-85181097D01*
X127066959Y-85181097D01*
X127278288Y-85154025D01*
X127278289Y-85154025D01*
X127283416Y-85153368D01*
X127288366Y-85151883D01*
X127492429Y-85090661D01*
X127492434Y-85090659D01*
X127497384Y-85089174D01*
X127697994Y-84990896D01*
X127879860Y-84861173D01*
X128038096Y-84703489D01*
X128097594Y-84620689D01*
X128168453Y-84522077D01*
X128169776Y-84523028D01*
X128216645Y-84479857D01*
X128286580Y-84467625D01*
X128352026Y-84495144D01*
X128379875Y-84526994D01*
X128439987Y-84625088D01*
X128586250Y-84793938D01*
X128758126Y-84936632D01*
X128951000Y-85049338D01*
X129159692Y-85129030D01*
X129164760Y-85130061D01*
X129164763Y-85130062D01*
X129259862Y-85149410D01*
X129378597Y-85173567D01*
X129383772Y-85173757D01*
X129383774Y-85173757D01*
X129596673Y-85181564D01*
X129596677Y-85181564D01*
X129601837Y-85181753D01*
X129606957Y-85181097D01*
X129606959Y-85181097D01*
X129818288Y-85154025D01*
X129818289Y-85154025D01*
X129823416Y-85153368D01*
X129828366Y-85151883D01*
X130032429Y-85090661D01*
X130032434Y-85090659D01*
X130037384Y-85089174D01*
X130237994Y-84990896D01*
X130419860Y-84861173D01*
X130578096Y-84703489D01*
X130637594Y-84620689D01*
X130708453Y-84522077D01*
X130709776Y-84523028D01*
X130756645Y-84479857D01*
X130826580Y-84467625D01*
X130892026Y-84495144D01*
X130919875Y-84526994D01*
X130979987Y-84625088D01*
X131126250Y-84793938D01*
X131298126Y-84936632D01*
X131491000Y-85049338D01*
X131699692Y-85129030D01*
X131704760Y-85130061D01*
X131704763Y-85130062D01*
X131799862Y-85149410D01*
X131918597Y-85173567D01*
X131923772Y-85173757D01*
X131923774Y-85173757D01*
X132136673Y-85181564D01*
X132136677Y-85181564D01*
X132141837Y-85181753D01*
X132146957Y-85181097D01*
X132146959Y-85181097D01*
X132358288Y-85154025D01*
X132358289Y-85154025D01*
X132363416Y-85153368D01*
X132368366Y-85151883D01*
X132572429Y-85090661D01*
X132572434Y-85090659D01*
X132577384Y-85089174D01*
X132777994Y-84990896D01*
X132959860Y-84861173D01*
X133118096Y-84703489D01*
X133177594Y-84620689D01*
X133248453Y-84522077D01*
X133249776Y-84523028D01*
X133296645Y-84479857D01*
X133366580Y-84467625D01*
X133432026Y-84495144D01*
X133459875Y-84526994D01*
X133519987Y-84625088D01*
X133666250Y-84793938D01*
X133838126Y-84936632D01*
X134031000Y-85049338D01*
X134239692Y-85129030D01*
X134244760Y-85130061D01*
X134244763Y-85130062D01*
X134339862Y-85149410D01*
X134458597Y-85173567D01*
X134463772Y-85173757D01*
X134463774Y-85173757D01*
X134676673Y-85181564D01*
X134676677Y-85181564D01*
X134681837Y-85181753D01*
X134686957Y-85181097D01*
X134686959Y-85181097D01*
X134898288Y-85154025D01*
X134898289Y-85154025D01*
X134903416Y-85153368D01*
X134908366Y-85151883D01*
X135112429Y-85090661D01*
X135112434Y-85090659D01*
X135117384Y-85089174D01*
X135317994Y-84990896D01*
X135499860Y-84861173D01*
X135658096Y-84703489D01*
X135717594Y-84620689D01*
X135788453Y-84522077D01*
X135789776Y-84523028D01*
X135836645Y-84479857D01*
X135906580Y-84467625D01*
X135972026Y-84495144D01*
X135999875Y-84526994D01*
X136059987Y-84625088D01*
X136206250Y-84793938D01*
X136378126Y-84936632D01*
X136571000Y-85049338D01*
X136779692Y-85129030D01*
X136784760Y-85130061D01*
X136784763Y-85130062D01*
X136879862Y-85149410D01*
X136998597Y-85173567D01*
X137003772Y-85173757D01*
X137003774Y-85173757D01*
X137216673Y-85181564D01*
X137216677Y-85181564D01*
X137221837Y-85181753D01*
X137226957Y-85181097D01*
X137226959Y-85181097D01*
X137438288Y-85154025D01*
X137438289Y-85154025D01*
X137443416Y-85153368D01*
X137448366Y-85151883D01*
X137652429Y-85090661D01*
X137652434Y-85090659D01*
X137657384Y-85089174D01*
X137857994Y-84990896D01*
X138039860Y-84861173D01*
X138198096Y-84703489D01*
X138257594Y-84620689D01*
X138325435Y-84526277D01*
X138328453Y-84522077D01*
X138341995Y-84494678D01*
X138425136Y-84326453D01*
X138425137Y-84326451D01*
X138427430Y-84321811D01*
X138492370Y-84108069D01*
X138521529Y-83886590D01*
X138523156Y-83820000D01*
X138520418Y-83786695D01*
X145957251Y-83786695D01*
X145957548Y-83791848D01*
X145957548Y-83791851D01*
X145963011Y-83886590D01*
X145970110Y-84009715D01*
X145971247Y-84014761D01*
X145971248Y-84014767D01*
X145991119Y-84102939D01*
X146019222Y-84227639D01*
X146103266Y-84434616D01*
X146154019Y-84517438D01*
X146217291Y-84620688D01*
X146219987Y-84625088D01*
X146366250Y-84793938D01*
X146538126Y-84936632D01*
X146731000Y-85049338D01*
X146939692Y-85129030D01*
X146944760Y-85130061D01*
X146944763Y-85130062D01*
X147039862Y-85149410D01*
X147158597Y-85173567D01*
X147163772Y-85173757D01*
X147163774Y-85173757D01*
X147376673Y-85181564D01*
X147376677Y-85181564D01*
X147381837Y-85181753D01*
X147386957Y-85181097D01*
X147386959Y-85181097D01*
X147598288Y-85154025D01*
X147598289Y-85154025D01*
X147603416Y-85153368D01*
X147608366Y-85151883D01*
X147812429Y-85090661D01*
X147812434Y-85090659D01*
X147817384Y-85089174D01*
X148017994Y-84990896D01*
X148199860Y-84861173D01*
X148358096Y-84703489D01*
X148417594Y-84620689D01*
X148488453Y-84522077D01*
X148489640Y-84522930D01*
X148536960Y-84479362D01*
X148606897Y-84467145D01*
X148672338Y-84494678D01*
X148700166Y-84526511D01*
X148757694Y-84620388D01*
X148763777Y-84628699D01*
X148903213Y-84789667D01*
X148910580Y-84796883D01*
X149074434Y-84932916D01*
X149082881Y-84938831D01*
X149266756Y-85046279D01*
X149276042Y-85050729D01*
X149475001Y-85126703D01*
X149484899Y-85129579D01*
X149588250Y-85150606D01*
X149602299Y-85149410D01*
X149606000Y-85139065D01*
X149606000Y-79963102D01*
X149602082Y-79949758D01*
X149587806Y-79947771D01*
X149549324Y-79953660D01*
X149539288Y-79956051D01*
X149336868Y-80022212D01*
X149327359Y-80026209D01*
X149138463Y-80124542D01*
X149129738Y-80130036D01*
X148959433Y-80257905D01*
X148951726Y-80264748D01*
X148874478Y-80345584D01*
X148812954Y-80381014D01*
X148742042Y-80377557D01*
X148684255Y-80336311D01*
X148665402Y-80302763D01*
X148623767Y-80191703D01*
X148620615Y-80183295D01*
X148533261Y-80066739D01*
X148416705Y-79979385D01*
X148280316Y-79928255D01*
X148218134Y-79921500D01*
X146421866Y-79921500D01*
X146359684Y-79928255D01*
X146223295Y-79979385D01*
X146106739Y-80066739D01*
X146019385Y-80183295D01*
X145968255Y-80319684D01*
X145961500Y-80381866D01*
X145961500Y-82178134D01*
X145968255Y-82240316D01*
X146019385Y-82376705D01*
X146106739Y-82493261D01*
X146223295Y-82580615D01*
X146231704Y-82583767D01*
X146231705Y-82583768D01*
X146340451Y-82624535D01*
X146397216Y-82667176D01*
X146421916Y-82733738D01*
X146406709Y-82803087D01*
X146387316Y-82829568D01*
X146265011Y-82957553D01*
X146260629Y-82962138D01*
X146257720Y-82966403D01*
X146257714Y-82966411D01*
X146225666Y-83013392D01*
X146134743Y-83146680D01*
X146040688Y-83349305D01*
X145980989Y-83564570D01*
X145957251Y-83786695D01*
X138520418Y-83786695D01*
X138504852Y-83597361D01*
X138450431Y-83380702D01*
X138361354Y-83175840D01*
X138300291Y-83081450D01*
X138280084Y-83013391D01*
X138299880Y-82945210D01*
X138316988Y-82923916D01*
X138822247Y-82418657D01*
X138830537Y-82411113D01*
X138837018Y-82407000D01*
X138883659Y-82357332D01*
X138886413Y-82354491D01*
X138906134Y-82334770D01*
X138908612Y-82331575D01*
X138916318Y-82322553D01*
X138941158Y-82296101D01*
X138946586Y-82290321D01*
X138956346Y-82272568D01*
X138967199Y-82256045D01*
X138971864Y-82250031D01*
X138979613Y-82240041D01*
X138997176Y-82199457D01*
X139002383Y-82188827D01*
X139023695Y-82150060D01*
X139025666Y-82142383D01*
X139025668Y-82142378D01*
X139028732Y-82130442D01*
X139035138Y-82111730D01*
X139040033Y-82100419D01*
X139043181Y-82093145D01*
X139044421Y-82085317D01*
X139044423Y-82085310D01*
X139050099Y-82049476D01*
X139052505Y-82037856D01*
X139061528Y-82002711D01*
X139061528Y-82002710D01*
X139063500Y-81995030D01*
X139063500Y-81974776D01*
X139065051Y-81955065D01*
X139066980Y-81942886D01*
X139068220Y-81935057D01*
X139064059Y-81891038D01*
X139063500Y-81879181D01*
X139063500Y-79054594D01*
X139083502Y-78986473D01*
X139100405Y-78965499D01*
X140092247Y-77973657D01*
X140100537Y-77966113D01*
X140107018Y-77962000D01*
X140153659Y-77912332D01*
X140156413Y-77909491D01*
X140176134Y-77889770D01*
X140178612Y-77886575D01*
X140186318Y-77877553D01*
X140211158Y-77851101D01*
X140216586Y-77845321D01*
X140226346Y-77827568D01*
X140237199Y-77811045D01*
X140244753Y-77801306D01*
X140249613Y-77795041D01*
X140267176Y-77754457D01*
X140272383Y-77743827D01*
X140293695Y-77705060D01*
X140295666Y-77697383D01*
X140295668Y-77697378D01*
X140298732Y-77685442D01*
X140305138Y-77666730D01*
X140310033Y-77655419D01*
X140313181Y-77648145D01*
X140314421Y-77640317D01*
X140314423Y-77640310D01*
X140320099Y-77604476D01*
X140322505Y-77592856D01*
X140331528Y-77557711D01*
X140331528Y-77557710D01*
X140333500Y-77550030D01*
X140333500Y-77529776D01*
X140335051Y-77510065D01*
X140335052Y-77510062D01*
X140338220Y-77490057D01*
X140337474Y-77482165D01*
X140337723Y-77474242D01*
X140341227Y-77474352D01*
X140351602Y-77420306D01*
X140398008Y-77370916D01*
X140397994Y-77370896D01*
X140398095Y-77370824D01*
X140579860Y-77241173D01*
X140738096Y-77083489D01*
X140868453Y-76902077D01*
X140869776Y-76903028D01*
X140916645Y-76859857D01*
X140986580Y-76847625D01*
X141052026Y-76875144D01*
X141079875Y-76906994D01*
X141139987Y-77005088D01*
X141286250Y-77173938D01*
X141458126Y-77316632D01*
X141651000Y-77429338D01*
X141655825Y-77431180D01*
X141655826Y-77431181D01*
X141679248Y-77440125D01*
X141859692Y-77509030D01*
X141864760Y-77510061D01*
X141864763Y-77510062D01*
X141941622Y-77525699D01*
X142078597Y-77553567D01*
X142083772Y-77553757D01*
X142083774Y-77553757D01*
X142296673Y-77561564D01*
X142296677Y-77561564D01*
X142301837Y-77561753D01*
X142306957Y-77561097D01*
X142306959Y-77561097D01*
X142518288Y-77534025D01*
X142518289Y-77534025D01*
X142523416Y-77533368D01*
X142568447Y-77519858D01*
X142732429Y-77470661D01*
X142732434Y-77470659D01*
X142737384Y-77469174D01*
X142937994Y-77370896D01*
X143119860Y-77241173D01*
X143278096Y-77083489D01*
X143408453Y-76902077D01*
X143409776Y-76903028D01*
X143456645Y-76859857D01*
X143526580Y-76847625D01*
X143592026Y-76875144D01*
X143619875Y-76906994D01*
X143679987Y-77005088D01*
X143826250Y-77173938D01*
X143998126Y-77316632D01*
X144191000Y-77429338D01*
X144195825Y-77431180D01*
X144195826Y-77431181D01*
X144219248Y-77440125D01*
X144399692Y-77509030D01*
X144404760Y-77510061D01*
X144404763Y-77510062D01*
X144481622Y-77525699D01*
X144618597Y-77553567D01*
X144623772Y-77553757D01*
X144623774Y-77553757D01*
X144836673Y-77561564D01*
X144836677Y-77561564D01*
X144841837Y-77561753D01*
X144846957Y-77561097D01*
X144846959Y-77561097D01*
X145058288Y-77534025D01*
X145058289Y-77534025D01*
X145063416Y-77533368D01*
X145108447Y-77519858D01*
X145272429Y-77470661D01*
X145272434Y-77470659D01*
X145277384Y-77469174D01*
X145477994Y-77370896D01*
X145659860Y-77241173D01*
X145818096Y-77083489D01*
X145948453Y-76902077D01*
X145949776Y-76903028D01*
X145996645Y-76859857D01*
X146066580Y-76847625D01*
X146132026Y-76875144D01*
X146159875Y-76906994D01*
X146219987Y-77005088D01*
X146366250Y-77173938D01*
X146538126Y-77316632D01*
X146731000Y-77429338D01*
X146735825Y-77431180D01*
X146735826Y-77431181D01*
X146759248Y-77440125D01*
X146939692Y-77509030D01*
X146944760Y-77510061D01*
X146944763Y-77510062D01*
X147021622Y-77525699D01*
X147158597Y-77553567D01*
X147163772Y-77553757D01*
X147163774Y-77553757D01*
X147376673Y-77561564D01*
X147376677Y-77561564D01*
X147381837Y-77561753D01*
X147386957Y-77561097D01*
X147386959Y-77561097D01*
X147598288Y-77534025D01*
X147598289Y-77534025D01*
X147603416Y-77533368D01*
X147648447Y-77519858D01*
X147812429Y-77470661D01*
X147812434Y-77470659D01*
X147817384Y-77469174D01*
X148017994Y-77370896D01*
X148199860Y-77241173D01*
X148358096Y-77083489D01*
X148488453Y-76902077D01*
X148489640Y-76902930D01*
X148536960Y-76859362D01*
X148606897Y-76847145D01*
X148672338Y-76874678D01*
X148700166Y-76906511D01*
X148757694Y-77000388D01*
X148763777Y-77008699D01*
X148903213Y-77169667D01*
X148910580Y-77176883D01*
X149074434Y-77312916D01*
X149082881Y-77318831D01*
X149266756Y-77426279D01*
X149276042Y-77430729D01*
X149475001Y-77506703D01*
X149484899Y-77509579D01*
X149588250Y-77530606D01*
X149602299Y-77529410D01*
X149606000Y-77519065D01*
X149606000Y-76072000D01*
X149626002Y-76003879D01*
X149679658Y-75957386D01*
X149732000Y-75946000D01*
X149988000Y-75946000D01*
X150056121Y-75966002D01*
X150102614Y-76019658D01*
X150114000Y-76072000D01*
X150114000Y-77518517D01*
X150118064Y-77532359D01*
X150131478Y-77534393D01*
X150138184Y-77533534D01*
X150148266Y-77531391D01*
X150340441Y-77473736D01*
X150411436Y-77473320D01*
X150471386Y-77511352D01*
X150498895Y-77570014D01*
X150499327Y-77569888D01*
X150499327Y-77569889D01*
X150501539Y-77577503D01*
X150504978Y-77589339D01*
X150508987Y-77608700D01*
X150511526Y-77628797D01*
X150514445Y-77636168D01*
X150514445Y-77636170D01*
X150527804Y-77669912D01*
X150531649Y-77681142D01*
X150543982Y-77723593D01*
X150548015Y-77730412D01*
X150548017Y-77730417D01*
X150554293Y-77741028D01*
X150562988Y-77758776D01*
X150570448Y-77777617D01*
X150575110Y-77784033D01*
X150575110Y-77784034D01*
X150596436Y-77813387D01*
X150602952Y-77823307D01*
X150619390Y-77851101D01*
X150625458Y-77861362D01*
X150639779Y-77875683D01*
X150652619Y-77890716D01*
X150664528Y-77907107D01*
X150698605Y-77935298D01*
X150707384Y-77943288D01*
X151729595Y-78965499D01*
X151763621Y-79027811D01*
X151766500Y-79054594D01*
X151766500Y-80001692D01*
X151746498Y-80069813D01*
X151698683Y-80113453D01*
X151673607Y-80126507D01*
X151669474Y-80129610D01*
X151669471Y-80129612D01*
X151586450Y-80191946D01*
X151494965Y-80260635D01*
X151340629Y-80422138D01*
X151337715Y-80426410D01*
X151337714Y-80426411D01*
X151232898Y-80580066D01*
X151177987Y-80625069D01*
X151107462Y-80633240D01*
X151043715Y-80601986D01*
X151023018Y-80577502D01*
X150942426Y-80452926D01*
X150936136Y-80444757D01*
X150792806Y-80287240D01*
X150785273Y-80280215D01*
X150618139Y-80148222D01*
X150609552Y-80142517D01*
X150423117Y-80039599D01*
X150413705Y-80035369D01*
X150212959Y-79964280D01*
X150202988Y-79961646D01*
X150131837Y-79948972D01*
X150118540Y-79950432D01*
X150114000Y-79964989D01*
X150114000Y-85138517D01*
X150118064Y-85152359D01*
X150131478Y-85154393D01*
X150138184Y-85153534D01*
X150148262Y-85151392D01*
X150352255Y-85090191D01*
X150361842Y-85086433D01*
X150553095Y-84992739D01*
X150561945Y-84987464D01*
X150735328Y-84863792D01*
X150743200Y-84857139D01*
X150894052Y-84706812D01*
X150900730Y-84698965D01*
X151028022Y-84521819D01*
X151029279Y-84522722D01*
X151076373Y-84479362D01*
X151146311Y-84467145D01*
X151211751Y-84494678D01*
X151239579Y-84526511D01*
X151299987Y-84625088D01*
X151446250Y-84793938D01*
X151618126Y-84936632D01*
X151811000Y-85049338D01*
X152019692Y-85129030D01*
X152024760Y-85130061D01*
X152024763Y-85130062D01*
X152119862Y-85149410D01*
X152238597Y-85173567D01*
X152243772Y-85173757D01*
X152243774Y-85173757D01*
X152456673Y-85181564D01*
X152456677Y-85181564D01*
X152461837Y-85181753D01*
X152466957Y-85181097D01*
X152466959Y-85181097D01*
X152678288Y-85154025D01*
X152678289Y-85154025D01*
X152683416Y-85153368D01*
X152688366Y-85151883D01*
X152892429Y-85090661D01*
X152892434Y-85090659D01*
X152897384Y-85089174D01*
X153097994Y-84990896D01*
X153279860Y-84861173D01*
X153438096Y-84703489D01*
X153497594Y-84620689D01*
X153568453Y-84522077D01*
X153569776Y-84523028D01*
X153616645Y-84479857D01*
X153686580Y-84467625D01*
X153752026Y-84495144D01*
X153779875Y-84526994D01*
X153839987Y-84625088D01*
X153986250Y-84793938D01*
X154158126Y-84936632D01*
X154351000Y-85049338D01*
X154559692Y-85129030D01*
X154564760Y-85130061D01*
X154564763Y-85130062D01*
X154659862Y-85149410D01*
X154778597Y-85173567D01*
X154783772Y-85173757D01*
X154783774Y-85173757D01*
X154996673Y-85181564D01*
X154996677Y-85181564D01*
X155001837Y-85181753D01*
X155006957Y-85181097D01*
X155006959Y-85181097D01*
X155218288Y-85154025D01*
X155218289Y-85154025D01*
X155223416Y-85153368D01*
X155228366Y-85151883D01*
X155432429Y-85090661D01*
X155432434Y-85090659D01*
X155437384Y-85089174D01*
X155637994Y-84990896D01*
X155819860Y-84861173D01*
X155978096Y-84703489D01*
X156037594Y-84620689D01*
X156108453Y-84522077D01*
X156109776Y-84523028D01*
X156156645Y-84479857D01*
X156226580Y-84467625D01*
X156292026Y-84495144D01*
X156319875Y-84526994D01*
X156379987Y-84625088D01*
X156526250Y-84793938D01*
X156698126Y-84936632D01*
X156891000Y-85049338D01*
X157099692Y-85129030D01*
X157104760Y-85130061D01*
X157104763Y-85130062D01*
X157199862Y-85149410D01*
X157318597Y-85173567D01*
X157323772Y-85173757D01*
X157323774Y-85173757D01*
X157536673Y-85181564D01*
X157536677Y-85181564D01*
X157541837Y-85181753D01*
X157546957Y-85181097D01*
X157546959Y-85181097D01*
X157758288Y-85154025D01*
X157758289Y-85154025D01*
X157763416Y-85153368D01*
X157768366Y-85151883D01*
X157972429Y-85090661D01*
X157972434Y-85090659D01*
X157977384Y-85089174D01*
X158177994Y-84990896D01*
X158359860Y-84861173D01*
X158518096Y-84703489D01*
X158577594Y-84620689D01*
X158648453Y-84522077D01*
X158649776Y-84523028D01*
X158696645Y-84479857D01*
X158766580Y-84467625D01*
X158832026Y-84495144D01*
X158859875Y-84526994D01*
X158919987Y-84625088D01*
X159066250Y-84793938D01*
X159238126Y-84936632D01*
X159431000Y-85049338D01*
X159639692Y-85129030D01*
X159644760Y-85130061D01*
X159644763Y-85130062D01*
X159739862Y-85149410D01*
X159858597Y-85173567D01*
X159863772Y-85173757D01*
X159863774Y-85173757D01*
X160076673Y-85181564D01*
X160076677Y-85181564D01*
X160081837Y-85181753D01*
X160086957Y-85181097D01*
X160086959Y-85181097D01*
X160298288Y-85154025D01*
X160298289Y-85154025D01*
X160303416Y-85153368D01*
X160308366Y-85151883D01*
X160512429Y-85090661D01*
X160512434Y-85090659D01*
X160517384Y-85089174D01*
X160717994Y-84990896D01*
X160899860Y-84861173D01*
X161058096Y-84703489D01*
X161117594Y-84620689D01*
X161185435Y-84526277D01*
X161188453Y-84522077D01*
X161201995Y-84494678D01*
X161285136Y-84326453D01*
X161285137Y-84326451D01*
X161287430Y-84321811D01*
X161352370Y-84108069D01*
X161381529Y-83886590D01*
X161383156Y-83820000D01*
X161364852Y-83597361D01*
X161336821Y-83485765D01*
X161339625Y-83414823D01*
X161369930Y-83365974D01*
X161682247Y-83053657D01*
X161690537Y-83046113D01*
X161697018Y-83042000D01*
X161723883Y-83013392D01*
X161743658Y-82992333D01*
X161746413Y-82989491D01*
X161766134Y-82969770D01*
X161768612Y-82966575D01*
X161776318Y-82957553D01*
X161801158Y-82931101D01*
X161806586Y-82925321D01*
X161816346Y-82907568D01*
X161827199Y-82891045D01*
X161834753Y-82881306D01*
X161839613Y-82875041D01*
X161857176Y-82834457D01*
X161862383Y-82823827D01*
X161883695Y-82785060D01*
X161885666Y-82777383D01*
X161885668Y-82777378D01*
X161888732Y-82765442D01*
X161895138Y-82746730D01*
X161900033Y-82735419D01*
X161903181Y-82728145D01*
X161904421Y-82720317D01*
X161904423Y-82720310D01*
X161910099Y-82684476D01*
X161912505Y-82672856D01*
X161921528Y-82637711D01*
X161921528Y-82637710D01*
X161923500Y-82630030D01*
X161923500Y-82609776D01*
X161925051Y-82590065D01*
X161926980Y-82577886D01*
X161928220Y-82570057D01*
X161924059Y-82526038D01*
X161923500Y-82514181D01*
X161923500Y-78818767D01*
X161924027Y-78807584D01*
X161925702Y-78800091D01*
X161923562Y-78732014D01*
X161923500Y-78728055D01*
X161923500Y-78700144D01*
X161922995Y-78696144D01*
X161922062Y-78684301D01*
X161920922Y-78648029D01*
X161920673Y-78640110D01*
X161915022Y-78620658D01*
X161911014Y-78601306D01*
X161909467Y-78589063D01*
X161908474Y-78581203D01*
X161900814Y-78561855D01*
X161892200Y-78540097D01*
X161888355Y-78528870D01*
X161881402Y-78504940D01*
X161876018Y-78486407D01*
X161871984Y-78479585D01*
X161871981Y-78479579D01*
X161865706Y-78468968D01*
X161857010Y-78451218D01*
X161852472Y-78439756D01*
X161852469Y-78439751D01*
X161849552Y-78432383D01*
X161823573Y-78396625D01*
X161817057Y-78386707D01*
X161804029Y-78364679D01*
X161794542Y-78348637D01*
X161780218Y-78334313D01*
X161767376Y-78319278D01*
X161755472Y-78302893D01*
X161721406Y-78274711D01*
X161712627Y-78266722D01*
X160880909Y-77435004D01*
X160846883Y-77372692D01*
X160851948Y-77301877D01*
X160892712Y-77248708D01*
X160891702Y-77247513D01*
X160895657Y-77244171D01*
X160899860Y-77241173D01*
X161058096Y-77083489D01*
X161188453Y-76902077D01*
X161189776Y-76903028D01*
X161236645Y-76859857D01*
X161306580Y-76847625D01*
X161372026Y-76875144D01*
X161399875Y-76906994D01*
X161459987Y-77005088D01*
X161606250Y-77173938D01*
X161778126Y-77316632D01*
X161971000Y-77429338D01*
X161975825Y-77431180D01*
X161975826Y-77431181D01*
X161999248Y-77440125D01*
X162179692Y-77509030D01*
X162184760Y-77510061D01*
X162184763Y-77510062D01*
X162261622Y-77525699D01*
X162398597Y-77553567D01*
X162403772Y-77553757D01*
X162403774Y-77553757D01*
X162616673Y-77561564D01*
X162616677Y-77561564D01*
X162621837Y-77561753D01*
X162626957Y-77561097D01*
X162626959Y-77561097D01*
X162838288Y-77534025D01*
X162838289Y-77534025D01*
X162843416Y-77533368D01*
X162888447Y-77519858D01*
X163052429Y-77470661D01*
X163052434Y-77470659D01*
X163057384Y-77469174D01*
X163257994Y-77370896D01*
X163439860Y-77241173D01*
X163598096Y-77083489D01*
X163728453Y-76902077D01*
X163741995Y-76874678D01*
X163825136Y-76706453D01*
X163825137Y-76706451D01*
X163827430Y-76701811D01*
X163892370Y-76488069D01*
X163921529Y-76266590D01*
X163923156Y-76200000D01*
X163904852Y-75977361D01*
X163876821Y-75865765D01*
X163879625Y-75794823D01*
X163909930Y-75745974D01*
X164222247Y-75433657D01*
X164230537Y-75426113D01*
X164237018Y-75422000D01*
X164263883Y-75393392D01*
X164283658Y-75372333D01*
X164286413Y-75369491D01*
X164306134Y-75349770D01*
X164308612Y-75346575D01*
X164316318Y-75337553D01*
X164341158Y-75311101D01*
X164346586Y-75305321D01*
X164356346Y-75287568D01*
X164367199Y-75271045D01*
X164374753Y-75261306D01*
X164379613Y-75255041D01*
X164397176Y-75214457D01*
X164402383Y-75203827D01*
X164423695Y-75165060D01*
X164425666Y-75157383D01*
X164425668Y-75157378D01*
X164428732Y-75145442D01*
X164435138Y-75126730D01*
X164436286Y-75124079D01*
X164443181Y-75108145D01*
X164444421Y-75100317D01*
X164444423Y-75100310D01*
X164450099Y-75064476D01*
X164452505Y-75052856D01*
X164461528Y-75017711D01*
X164461528Y-75017710D01*
X164463500Y-75010030D01*
X164463500Y-74989776D01*
X164465051Y-74970065D01*
X164466980Y-74957886D01*
X164468220Y-74950057D01*
X164464059Y-74906038D01*
X164463500Y-74894181D01*
X164463500Y-72468768D01*
X164464027Y-72457585D01*
X164465702Y-72450092D01*
X164463562Y-72382001D01*
X164463500Y-72378044D01*
X164463500Y-72350144D01*
X164462996Y-72346153D01*
X164462063Y-72334311D01*
X164462028Y-72333173D01*
X164460674Y-72290111D01*
X164455021Y-72270652D01*
X164451012Y-72251293D01*
X164450846Y-72249983D01*
X164448474Y-72231203D01*
X164445558Y-72223837D01*
X164445556Y-72223831D01*
X164432200Y-72190098D01*
X164428355Y-72178868D01*
X164418230Y-72144017D01*
X164418230Y-72144016D01*
X164416019Y-72136407D01*
X164405705Y-72118966D01*
X164397008Y-72101213D01*
X164392472Y-72089758D01*
X164389552Y-72082383D01*
X164363563Y-72046612D01*
X164357047Y-72036692D01*
X164338578Y-72005463D01*
X164334542Y-71998638D01*
X164320221Y-71984317D01*
X164307380Y-71969283D01*
X164300131Y-71959306D01*
X164295472Y-71952893D01*
X164261395Y-71924702D01*
X164252616Y-71916712D01*
X162491317Y-70155413D01*
X162457291Y-70093101D01*
X162462356Y-70022286D01*
X162504903Y-69965450D01*
X162571423Y-69940639D01*
X162585024Y-69940403D01*
X162600845Y-69940983D01*
X162616674Y-69941564D01*
X162616678Y-69941564D01*
X162621837Y-69941753D01*
X162626957Y-69941097D01*
X162626959Y-69941097D01*
X162838288Y-69914025D01*
X162838289Y-69914025D01*
X162843416Y-69913368D01*
X162868978Y-69905699D01*
X163052429Y-69850661D01*
X163052434Y-69850659D01*
X163057384Y-69849174D01*
X163257994Y-69750896D01*
X163439860Y-69621173D01*
X163561208Y-69500249D01*
X163623579Y-69466333D01*
X163650147Y-69463500D01*
X163877543Y-69463500D01*
X163897255Y-69465051D01*
X163910507Y-69467150D01*
X163917094Y-69466805D01*
X163917098Y-69466805D01*
X163976850Y-69463673D01*
X163983445Y-69463500D01*
X164003306Y-69463500D01*
X164023069Y-69461423D01*
X164029628Y-69460907D01*
X164045427Y-69460079D01*
X164089377Y-69457776D01*
X164089381Y-69457775D01*
X164095971Y-69457430D01*
X164108929Y-69453958D01*
X164128372Y-69450355D01*
X164128795Y-69450311D01*
X164141702Y-69448954D01*
X164204894Y-69428422D01*
X164211196Y-69426556D01*
X164268985Y-69411071D01*
X164275363Y-69409362D01*
X164281242Y-69406366D01*
X164281251Y-69406363D01*
X164287317Y-69403272D01*
X164305579Y-69395708D01*
X164312043Y-69393608D01*
X164312051Y-69393605D01*
X164318331Y-69391564D01*
X164324050Y-69388262D01*
X164324055Y-69388260D01*
X164375867Y-69358346D01*
X164381637Y-69355213D01*
X164440839Y-69325047D01*
X164451259Y-69316609D01*
X164467552Y-69305411D01*
X164467903Y-69305209D01*
X164479169Y-69298704D01*
X164484075Y-69294287D01*
X164484080Y-69294283D01*
X164528538Y-69254253D01*
X164533554Y-69249969D01*
X164546409Y-69239559D01*
X164546412Y-69239556D01*
X164548986Y-69237472D01*
X164563031Y-69223427D01*
X164567816Y-69218886D01*
X164612274Y-69178856D01*
X164612275Y-69178855D01*
X164617185Y-69174434D01*
X164625068Y-69163584D01*
X164637908Y-69148550D01*
X165414545Y-68371912D01*
X165429581Y-68359070D01*
X165440434Y-68351185D01*
X165484895Y-68301806D01*
X165489436Y-68297021D01*
X165503472Y-68282985D01*
X165515966Y-68267557D01*
X165520246Y-68262547D01*
X165560284Y-68218079D01*
X165560288Y-68218074D01*
X165564704Y-68213169D01*
X165571410Y-68201554D01*
X165582610Y-68185258D01*
X165586894Y-68179967D01*
X165591047Y-68174839D01*
X165621213Y-68115637D01*
X165624346Y-68109867D01*
X165654260Y-68058055D01*
X165654262Y-68058050D01*
X165657564Y-68052331D01*
X165659605Y-68046051D01*
X165659608Y-68046043D01*
X165661708Y-68039579D01*
X165669272Y-68021317D01*
X165672363Y-68015251D01*
X165672366Y-68015242D01*
X165675362Y-68009363D01*
X165692556Y-67945196D01*
X165694422Y-67938894D01*
X165714954Y-67875702D01*
X165716355Y-67862372D01*
X165719958Y-67842929D01*
X165723430Y-67829971D01*
X165726907Y-67763628D01*
X165727424Y-67757059D01*
X165729156Y-67740577D01*
X165729500Y-67737306D01*
X165729500Y-67717445D01*
X165729673Y-67710850D01*
X165732805Y-67651098D01*
X165732805Y-67651094D01*
X165733150Y-67644507D01*
X165731051Y-67631253D01*
X165729500Y-67611544D01*
X165729500Y-42618457D01*
X165731051Y-42598745D01*
X165732118Y-42592008D01*
X165733150Y-42585493D01*
X165731119Y-42546730D01*
X165729673Y-42519150D01*
X165729500Y-42512555D01*
X165729500Y-42492694D01*
X165727423Y-42472931D01*
X165726907Y-42466367D01*
X165723776Y-42406623D01*
X165723775Y-42406619D01*
X165723430Y-42400029D01*
X165719958Y-42387071D01*
X165716355Y-42367628D01*
X165715644Y-42360866D01*
X165714954Y-42354298D01*
X165694422Y-42291106D01*
X165692556Y-42284804D01*
X165677071Y-42227015D01*
X165675362Y-42220637D01*
X165672366Y-42214758D01*
X165672363Y-42214749D01*
X165669272Y-42208683D01*
X165661708Y-42190421D01*
X165659608Y-42183958D01*
X165659606Y-42183953D01*
X165657564Y-42177669D01*
X165624337Y-42120119D01*
X165621214Y-42114366D01*
X165591048Y-42055161D01*
X165582607Y-42044737D01*
X165571412Y-42028449D01*
X165568005Y-42022548D01*
X165568004Y-42022547D01*
X165564704Y-42016831D01*
X165560287Y-42011925D01*
X165560283Y-42011920D01*
X165520253Y-41967462D01*
X165515969Y-41962447D01*
X165505548Y-41949579D01*
X165503472Y-41947015D01*
X165489436Y-41932979D01*
X165484895Y-41928194D01*
X165444854Y-41883724D01*
X165440434Y-41878815D01*
X165429575Y-41870925D01*
X165414544Y-41858086D01*
X164643912Y-41087454D01*
X164631075Y-41072426D01*
X164623185Y-41061566D01*
X164573816Y-41017114D01*
X164569031Y-41012573D01*
X164554986Y-40998528D01*
X164552409Y-40996441D01*
X164539554Y-40986031D01*
X164534538Y-40981747D01*
X164490080Y-40941717D01*
X164490075Y-40941713D01*
X164485169Y-40937296D01*
X164473552Y-40930589D01*
X164457259Y-40919391D01*
X164451971Y-40915109D01*
X164446839Y-40910953D01*
X164387637Y-40880787D01*
X164381867Y-40877654D01*
X164330055Y-40847740D01*
X164330050Y-40847738D01*
X164324331Y-40844436D01*
X164318051Y-40842395D01*
X164318043Y-40842392D01*
X164311579Y-40840292D01*
X164293317Y-40832728D01*
X164287251Y-40829637D01*
X164287242Y-40829634D01*
X164281363Y-40826638D01*
X164270672Y-40823773D01*
X164217196Y-40809444D01*
X164210894Y-40807578D01*
X164147702Y-40787046D01*
X164134372Y-40785645D01*
X164114929Y-40782042D01*
X164101971Y-40778570D01*
X164095381Y-40778225D01*
X164095377Y-40778224D01*
X164051427Y-40775921D01*
X164035628Y-40775093D01*
X164029069Y-40774577D01*
X164009306Y-40772500D01*
X163989445Y-40772500D01*
X163982850Y-40772327D01*
X163923098Y-40769195D01*
X163923094Y-40769195D01*
X163916507Y-40768850D01*
X163903253Y-40770949D01*
X163883544Y-40772500D01*
X113888202Y-40772500D01*
X113868490Y-40770949D01*
X113861753Y-40769882D01*
X113861754Y-40769882D01*
X113855238Y-40768850D01*
X113848651Y-40769195D01*
X113848647Y-40769195D01*
X113788895Y-40772327D01*
X113782300Y-40772500D01*
X113762439Y-40772500D01*
X113742676Y-40774577D01*
X113736117Y-40775093D01*
X113720318Y-40775921D01*
X113676368Y-40778224D01*
X113676364Y-40778225D01*
X113669774Y-40778570D01*
X113656816Y-40782042D01*
X113637373Y-40785645D01*
X113624043Y-40787046D01*
X113560851Y-40807578D01*
X113554549Y-40809444D01*
X113501073Y-40823773D01*
X113490382Y-40826638D01*
X113484503Y-40829634D01*
X113484494Y-40829637D01*
X113478428Y-40832728D01*
X113460166Y-40840292D01*
X113453702Y-40842392D01*
X113453694Y-40842395D01*
X113447414Y-40844436D01*
X113441695Y-40847738D01*
X113441690Y-40847740D01*
X113389878Y-40877654D01*
X113384108Y-40880787D01*
X113324906Y-40910953D01*
X113319774Y-40915109D01*
X113314487Y-40919390D01*
X113298191Y-40930590D01*
X113292291Y-40933996D01*
X113292288Y-40933998D01*
X113286576Y-40937296D01*
X113281671Y-40941712D01*
X113281666Y-40941716D01*
X113237198Y-40981754D01*
X113232192Y-40986031D01*
X113216760Y-40998528D01*
X113202724Y-41012564D01*
X113197939Y-41017105D01*
X113148560Y-41061566D01*
X113144679Y-41066908D01*
X113140670Y-41072425D01*
X113127831Y-41087456D01*
X112306454Y-41908833D01*
X112291426Y-41921670D01*
X112280566Y-41929560D01*
X112276145Y-41934470D01*
X112276144Y-41934471D01*
X112236114Y-41978929D01*
X112231573Y-41983714D01*
X112217528Y-41997759D01*
X112215444Y-42000333D01*
X112215441Y-42000336D01*
X112205031Y-42013191D01*
X112200747Y-42018207D01*
X112160717Y-42062665D01*
X112160713Y-42062670D01*
X112156296Y-42067576D01*
X112149791Y-42078842D01*
X112149589Y-42079193D01*
X112138391Y-42095486D01*
X112129953Y-42105906D01*
X112099787Y-42165108D01*
X112096654Y-42170878D01*
X112066740Y-42222690D01*
X112066738Y-42222695D01*
X112063436Y-42228414D01*
X112061395Y-42234694D01*
X112061392Y-42234702D01*
X112059292Y-42241166D01*
X112051728Y-42259428D01*
X112048637Y-42265494D01*
X112048634Y-42265503D01*
X112045638Y-42271382D01*
X112043929Y-42277760D01*
X112028444Y-42335549D01*
X112026578Y-42341851D01*
X112006046Y-42405043D01*
X112005356Y-42411611D01*
X112004645Y-42418373D01*
X112001042Y-42437816D01*
X111997570Y-42450774D01*
X111997225Y-42457364D01*
X111997224Y-42457368D01*
X111994093Y-42517112D01*
X111993577Y-42523676D01*
X111991500Y-42543439D01*
X111991500Y-42563300D01*
X111991327Y-42569895D01*
X111990510Y-42585493D01*
X111987850Y-42636238D01*
X111988882Y-42642752D01*
X111989949Y-42649489D01*
X111991500Y-42669201D01*
X111991500Y-44215543D01*
X111989949Y-44235255D01*
X111987850Y-44248507D01*
X111988195Y-44255094D01*
X111988195Y-44255098D01*
X111991327Y-44314850D01*
X111991500Y-44321445D01*
X111991500Y-44341306D01*
X111991844Y-44344577D01*
X111993576Y-44361059D01*
X111994093Y-44367628D01*
X111994215Y-44369970D01*
X111997088Y-44424771D01*
X111997570Y-44433971D01*
X112001042Y-44446929D01*
X112004645Y-44466372D01*
X112006046Y-44479702D01*
X112026578Y-44542894D01*
X112028444Y-44549196D01*
X112032556Y-44564542D01*
X112045638Y-44613363D01*
X112048634Y-44619242D01*
X112048637Y-44619251D01*
X112051728Y-44625317D01*
X112059292Y-44643579D01*
X112061392Y-44650043D01*
X112061395Y-44650051D01*
X112063436Y-44656331D01*
X112066738Y-44662050D01*
X112066740Y-44662055D01*
X112096654Y-44713867D01*
X112099787Y-44719637D01*
X112129953Y-44778839D01*
X112134109Y-44783971D01*
X112138391Y-44789259D01*
X112149589Y-44805552D01*
X112156296Y-44817169D01*
X112160713Y-44822075D01*
X112160717Y-44822080D01*
X112200747Y-44866538D01*
X112205031Y-44871554D01*
X112215441Y-44884409D01*
X112217528Y-44886986D01*
X112231573Y-44901031D01*
X112236114Y-44905816D01*
X112280566Y-44955185D01*
X112291426Y-44963075D01*
X112306454Y-44975912D01*
X112904595Y-45574053D01*
X112938621Y-45636365D01*
X112941500Y-45663148D01*
X112941500Y-45776852D01*
X112921498Y-45844973D01*
X112904595Y-45865947D01*
X112306454Y-46464088D01*
X112291426Y-46476925D01*
X112280566Y-46484815D01*
X112276145Y-46489725D01*
X112276144Y-46489726D01*
X112236114Y-46534184D01*
X112231573Y-46538969D01*
X112217528Y-46553014D01*
X112215444Y-46555588D01*
X112215441Y-46555591D01*
X112205031Y-46568446D01*
X112200747Y-46573462D01*
X112160717Y-46617920D01*
X112160713Y-46617925D01*
X112156296Y-46622831D01*
X112150661Y-46632592D01*
X112149589Y-46634448D01*
X112138391Y-46650741D01*
X112129953Y-46661161D01*
X112099787Y-46720363D01*
X112096654Y-46726133D01*
X112066740Y-46777945D01*
X112066738Y-46777950D01*
X112063436Y-46783669D01*
X112061395Y-46789949D01*
X112061392Y-46789957D01*
X112059292Y-46796421D01*
X112051728Y-46814683D01*
X112048637Y-46820749D01*
X112048634Y-46820758D01*
X112045638Y-46826637D01*
X112043929Y-46833015D01*
X112028444Y-46890804D01*
X112026578Y-46897106D01*
X112006046Y-46960298D01*
X112005356Y-46966866D01*
X112004645Y-46973628D01*
X112001042Y-46993071D01*
X111997570Y-47006029D01*
X111997225Y-47012619D01*
X111997224Y-47012623D01*
X111995867Y-47038517D01*
X111994126Y-47071745D01*
X111994093Y-47072367D01*
X111993577Y-47078931D01*
X111991500Y-47098694D01*
X111991500Y-47118555D01*
X111991327Y-47125150D01*
X111987850Y-47191493D01*
X111989949Y-47204744D01*
X111991500Y-47224456D01*
X111991500Y-56915543D01*
X111989949Y-56935255D01*
X111987850Y-56948507D01*
X110998500Y-56948507D01*
X110998500Y-39423250D01*
X111000246Y-39402345D01*
X111002770Y-39387344D01*
X111002770Y-39387341D01*
X111003576Y-39382552D01*
X111003729Y-39370000D01*
X111002788Y-39363429D01*
X111002123Y-39333218D01*
X111011916Y-39233789D01*
X111016733Y-39209568D01*
X111052866Y-39090454D01*
X111062315Y-39067645D01*
X111120987Y-38957876D01*
X111134705Y-38937345D01*
X111213671Y-38841124D01*
X111231124Y-38823671D01*
X111327345Y-38744705D01*
X111347876Y-38730987D01*
X111457645Y-38672315D01*
X111480454Y-38662866D01*
X111599568Y-38626733D01*
X111623789Y-38621916D01*
X111719809Y-38612459D01*
X111735868Y-38612909D01*
X111735877Y-38612200D01*
X111744853Y-38612310D01*
X111753724Y-38613691D01*
X111762626Y-38612527D01*
X111762628Y-38612527D01*
X111779059Y-38610378D01*
X111785286Y-38609564D01*
X111801621Y-38608500D01*
X166320633Y-38608500D01*
X166340018Y-38610000D01*
G37*
G04 #@! TD.AperFunction*
G04 #@! TA.AperFunction,Conductor*
G36*
X127196121Y-75966002D02*
G01*
X127242614Y-76019658D01*
X127254000Y-76072000D01*
X127254000Y-77536632D01*
X127249185Y-77536632D01*
X127249187Y-77573106D01*
X127217384Y-77626711D01*
X126607747Y-78236348D01*
X126599461Y-78243888D01*
X126592982Y-78248000D01*
X126587557Y-78253777D01*
X126546357Y-78297651D01*
X126543602Y-78300493D01*
X126523865Y-78320230D01*
X126521385Y-78323427D01*
X126513682Y-78332447D01*
X126483414Y-78364679D01*
X126479595Y-78371626D01*
X126479591Y-78371631D01*
X126474509Y-78380875D01*
X126424164Y-78430934D01*
X126354747Y-78445827D01*
X126288298Y-78420826D01*
X126255642Y-78384314D01*
X126238578Y-78355460D01*
X126238574Y-78355455D01*
X126234542Y-78348637D01*
X126220218Y-78334313D01*
X126207376Y-78319278D01*
X126195472Y-78302893D01*
X126161406Y-78274711D01*
X126152627Y-78266722D01*
X125320909Y-77435004D01*
X125286883Y-77372692D01*
X125291948Y-77301877D01*
X125332712Y-77248708D01*
X125331702Y-77247513D01*
X125335657Y-77244171D01*
X125339860Y-77241173D01*
X125498096Y-77083489D01*
X125628453Y-76902077D01*
X125629640Y-76902930D01*
X125676960Y-76859362D01*
X125746897Y-76847145D01*
X125812338Y-76874678D01*
X125840166Y-76906511D01*
X125897694Y-77000388D01*
X125903777Y-77008699D01*
X126043213Y-77169667D01*
X126050580Y-77176883D01*
X126214434Y-77312916D01*
X126222881Y-77318831D01*
X126406756Y-77426279D01*
X126416042Y-77430729D01*
X126615001Y-77506703D01*
X126624899Y-77509579D01*
X126728250Y-77530606D01*
X126742299Y-77529410D01*
X126746000Y-77519065D01*
X126746000Y-76072000D01*
X126766002Y-76003879D01*
X126819658Y-75957386D01*
X126872000Y-75946000D01*
X127128000Y-75946000D01*
X127196121Y-75966002D01*
G37*
G04 #@! TD.AperFunction*
G04 #@! TA.AperFunction,Conductor*
G36*
X161372026Y-54015144D02*
G01*
X161399875Y-54046994D01*
X161459987Y-54145088D01*
X161606250Y-54313938D01*
X161778126Y-54456632D01*
X161971000Y-54569338D01*
X161975825Y-54571180D01*
X161975826Y-54571181D01*
X162018501Y-54587477D01*
X162179692Y-54649030D01*
X162184760Y-54650061D01*
X162184763Y-54650062D01*
X162232431Y-54659760D01*
X162398597Y-54693567D01*
X162403772Y-54693757D01*
X162403774Y-54693757D01*
X162616673Y-54701564D01*
X162616677Y-54701564D01*
X162621837Y-54701753D01*
X162626957Y-54701097D01*
X162626959Y-54701097D01*
X162838288Y-54674025D01*
X162838289Y-54674025D01*
X162843416Y-54673368D01*
X162856609Y-54669410D01*
X163052429Y-54610661D01*
X163052434Y-54610659D01*
X163057384Y-54609174D01*
X163257994Y-54510896D01*
X163439860Y-54381173D01*
X163561208Y-54260249D01*
X163623579Y-54226333D01*
X163650147Y-54223500D01*
X163836500Y-54223500D01*
X163904621Y-54243502D01*
X163951114Y-54297158D01*
X163962500Y-54349500D01*
X163962500Y-64717300D01*
X163942498Y-64785421D01*
X163888842Y-64831914D01*
X163818568Y-64842018D01*
X163760935Y-64818126D01*
X163663649Y-64745214D01*
X163648054Y-64736676D01*
X163527606Y-64691522D01*
X163512351Y-64687895D01*
X163461486Y-64682369D01*
X163454672Y-64682000D01*
X162832115Y-64682000D01*
X162816876Y-64686475D01*
X162815671Y-64687865D01*
X162814000Y-64695548D01*
X162814000Y-66168000D01*
X162793998Y-66236121D01*
X162740342Y-66282614D01*
X162688000Y-66294000D01*
X162432000Y-66294000D01*
X162363879Y-66273998D01*
X162317386Y-66220342D01*
X162306000Y-66168000D01*
X162306000Y-64700116D01*
X162301525Y-64684877D01*
X162300135Y-64683672D01*
X162292452Y-64682001D01*
X162049500Y-64682001D01*
X161981379Y-64661999D01*
X161934886Y-64608343D01*
X161923500Y-64556001D01*
X161923500Y-55958767D01*
X161924027Y-55947584D01*
X161925702Y-55940091D01*
X161923562Y-55872014D01*
X161923500Y-55868055D01*
X161923500Y-55840144D01*
X161922995Y-55836144D01*
X161922062Y-55824301D01*
X161920922Y-55788029D01*
X161920673Y-55780110D01*
X161915022Y-55760658D01*
X161911014Y-55741306D01*
X161909467Y-55729063D01*
X161908474Y-55721203D01*
X161905556Y-55713832D01*
X161892200Y-55680097D01*
X161888355Y-55668870D01*
X161887721Y-55666687D01*
X161876018Y-55626407D01*
X161871984Y-55619585D01*
X161871981Y-55619579D01*
X161865706Y-55608968D01*
X161857010Y-55591218D01*
X161852472Y-55579756D01*
X161852469Y-55579751D01*
X161849552Y-55572383D01*
X161823573Y-55536625D01*
X161817057Y-55526707D01*
X161798575Y-55495457D01*
X161794542Y-55488637D01*
X161780218Y-55474313D01*
X161767376Y-55459278D01*
X161755472Y-55442893D01*
X161721406Y-55414711D01*
X161712627Y-55406722D01*
X160880909Y-54575004D01*
X160846883Y-54512692D01*
X160851948Y-54441877D01*
X160892712Y-54388708D01*
X160891702Y-54387513D01*
X160895657Y-54384171D01*
X160899860Y-54381173D01*
X161058096Y-54223489D01*
X161188453Y-54042077D01*
X161189776Y-54043028D01*
X161236645Y-53999857D01*
X161306580Y-53987625D01*
X161372026Y-54015144D01*
G37*
G04 #@! TD.AperFunction*
G04 #@! TA.AperFunction,Conductor*
G36*
X163916102Y-46388405D02*
G01*
X163956270Y-46446946D01*
X163962500Y-46486076D01*
X163962500Y-49477300D01*
X163942498Y-49545421D01*
X163888842Y-49591914D01*
X163818568Y-49602018D01*
X163760935Y-49578126D01*
X163663649Y-49505214D01*
X163648054Y-49496676D01*
X163527606Y-49451522D01*
X163512351Y-49447895D01*
X163461486Y-49442369D01*
X163454672Y-49442000D01*
X162832115Y-49442000D01*
X162816876Y-49446475D01*
X162815671Y-49447865D01*
X162814000Y-49455548D01*
X162814000Y-50928000D01*
X162793998Y-50996121D01*
X162740342Y-51042614D01*
X162688000Y-51054000D01*
X162432000Y-51054000D01*
X162363879Y-51033998D01*
X162317386Y-50980342D01*
X162306000Y-50928000D01*
X162306000Y-49460116D01*
X162301525Y-49444877D01*
X162300135Y-49443672D01*
X162292452Y-49442001D01*
X162049500Y-49442001D01*
X161981379Y-49421999D01*
X161934886Y-49368343D01*
X161923500Y-49316001D01*
X161923500Y-48338767D01*
X161924027Y-48327584D01*
X161925702Y-48320091D01*
X161923562Y-48252014D01*
X161923500Y-48248055D01*
X161923500Y-48220144D01*
X161922995Y-48216144D01*
X161922062Y-48204301D01*
X161920922Y-48168029D01*
X161920673Y-48160110D01*
X161915022Y-48140658D01*
X161911014Y-48121306D01*
X161909467Y-48109063D01*
X161908474Y-48101203D01*
X161905556Y-48093832D01*
X161892200Y-48060097D01*
X161888355Y-48048870D01*
X161887721Y-48046687D01*
X161876018Y-48006407D01*
X161871984Y-47999585D01*
X161871981Y-47999579D01*
X161865706Y-47988968D01*
X161857010Y-47971218D01*
X161852472Y-47959756D01*
X161852469Y-47959751D01*
X161849552Y-47952383D01*
X161823573Y-47916625D01*
X161817057Y-47906707D01*
X161798575Y-47875457D01*
X161794542Y-47868637D01*
X161780218Y-47854313D01*
X161767376Y-47839278D01*
X161755472Y-47822893D01*
X161721406Y-47794711D01*
X161712627Y-47786722D01*
X160880909Y-46955004D01*
X160846883Y-46892692D01*
X160851948Y-46821877D01*
X160892712Y-46768708D01*
X160891702Y-46767513D01*
X160895657Y-46764171D01*
X160899860Y-46761173D01*
X161058096Y-46603489D01*
X161079673Y-46573462D01*
X161188453Y-46422077D01*
X161189776Y-46423028D01*
X161236645Y-46379857D01*
X161306580Y-46367625D01*
X161372026Y-46395144D01*
X161399875Y-46426994D01*
X161459987Y-46525088D01*
X161606250Y-46693938D01*
X161778126Y-46836632D01*
X161971000Y-46949338D01*
X161975825Y-46951180D01*
X161975826Y-46951181D01*
X161999701Y-46960298D01*
X162179692Y-47029030D01*
X162184760Y-47030061D01*
X162184763Y-47030062D01*
X162232431Y-47039760D01*
X162398597Y-47073567D01*
X162403772Y-47073757D01*
X162403774Y-47073757D01*
X162616673Y-47081564D01*
X162616677Y-47081564D01*
X162621837Y-47081753D01*
X162626957Y-47081097D01*
X162626959Y-47081097D01*
X162838288Y-47054025D01*
X162838289Y-47054025D01*
X162843416Y-47053368D01*
X162856609Y-47049410D01*
X163052429Y-46990661D01*
X163052434Y-46990659D01*
X163057384Y-46989174D01*
X163257994Y-46890896D01*
X163439860Y-46761173D01*
X163598096Y-46603489D01*
X163601112Y-46599292D01*
X163725439Y-46426272D01*
X163725441Y-46426269D01*
X163728453Y-46422077D01*
X163729227Y-46420511D01*
X163780723Y-46373094D01*
X163850660Y-46360874D01*
X163916102Y-46388405D01*
G37*
G04 #@! TD.AperFunction*
M02*
