G04 #@! TF.GenerationSoftware,KiCad,Pcbnew,6.0.9-8da3e8f707~116~ubuntu20.04.1*
G04 #@! TF.CreationDate,2022-12-14T15:49:57+01:00*
G04 #@! TF.ProjectId,z_adaptor,7a5f6164-6170-4746-9f72-2e6b69636164,rev?*
G04 #@! TF.SameCoordinates,Original*
G04 #@! TF.FileFunction,Legend,Bot*
G04 #@! TF.FilePolarity,Positive*
%FSLAX46Y46*%
G04 Gerber Fmt 4.6, Leading zero omitted, Abs format (unit mm)*
G04 Created by KiCad (PCBNEW 6.0.9-8da3e8f707~116~ubuntu20.04.1) date 2022-12-14 15:49:57*
%MOMM*%
%LPD*%
G01*
G04 APERTURE LIST*
%ADD10C,0.150000*%
%ADD11C,0.120000*%
%ADD12R,1.700000X1.700000*%
%ADD13O,1.700000X1.700000*%
%ADD14C,2.500000*%
G04 APERTURE END LIST*
D10*
X128471071Y-87764857D02*
X128871071Y-87193428D01*
X129156785Y-87764857D02*
X129156785Y-86564857D01*
X128699642Y-86564857D01*
X128585357Y-86622000D01*
X128528214Y-86679142D01*
X128471071Y-86793428D01*
X128471071Y-86964857D01*
X128528214Y-87079142D01*
X128585357Y-87136285D01*
X128699642Y-87193428D01*
X129156785Y-87193428D01*
X127499642Y-87707714D02*
X127613928Y-87764857D01*
X127842500Y-87764857D01*
X127956785Y-87707714D01*
X128013928Y-87593428D01*
X128013928Y-87136285D01*
X127956785Y-87022000D01*
X127842500Y-86964857D01*
X127613928Y-86964857D01*
X127499642Y-87022000D01*
X127442500Y-87136285D01*
X127442500Y-87250571D01*
X128013928Y-87364857D01*
X127042500Y-86964857D02*
X126756785Y-87764857D01*
X126471071Y-86964857D01*
X126013928Y-87650571D02*
X125956785Y-87707714D01*
X126013928Y-87764857D01*
X126071071Y-87707714D01*
X126013928Y-87650571D01*
X126013928Y-87764857D01*
X126013928Y-87022000D02*
X125956785Y-87079142D01*
X126013928Y-87136285D01*
X126071071Y-87079142D01*
X126013928Y-87022000D01*
X126013928Y-87136285D01*
X124813928Y-87764857D02*
X125499642Y-87764857D01*
X125156785Y-87764857D02*
X125156785Y-86564857D01*
X125271071Y-86736285D01*
X125385357Y-86850571D01*
X125499642Y-86907714D01*
X124299642Y-87650571D02*
X124242500Y-87707714D01*
X124299642Y-87764857D01*
X124356785Y-87707714D01*
X124299642Y-87650571D01*
X124299642Y-87764857D01*
X123499642Y-86564857D02*
X123385357Y-86564857D01*
X123271071Y-86622000D01*
X123213928Y-86679142D01*
X123156785Y-86793428D01*
X123099642Y-87022000D01*
X123099642Y-87307714D01*
X123156785Y-87536285D01*
X123213928Y-87650571D01*
X123271071Y-87707714D01*
X123385357Y-87764857D01*
X123499642Y-87764857D01*
X123613928Y-87707714D01*
X123671071Y-87650571D01*
X123728214Y-87536285D01*
X123785357Y-87307714D01*
X123785357Y-87022000D01*
X123728214Y-86793428D01*
X123671071Y-86679142D01*
X123613928Y-86622000D01*
X123499642Y-86564857D01*
X129271071Y-88496857D02*
X128471071Y-88496857D01*
X129271071Y-89696857D01*
X128471071Y-89696857D01*
X128013928Y-89239714D02*
X127099642Y-89239714D01*
X126699642Y-88496857D02*
X126013928Y-88496857D01*
X126356785Y-89696857D02*
X126356785Y-88496857D01*
X125099642Y-88896857D02*
X125099642Y-89696857D01*
X125613928Y-88896857D02*
X125613928Y-89525428D01*
X125556785Y-89639714D01*
X125442500Y-89696857D01*
X125271071Y-89696857D01*
X125156785Y-89639714D01*
X125099642Y-89582571D01*
X124528214Y-89696857D02*
X124528214Y-88896857D01*
X124528214Y-89125428D02*
X124471071Y-89011142D01*
X124413928Y-88954000D01*
X124299642Y-88896857D01*
X124185357Y-88896857D01*
X123785357Y-88896857D02*
X123785357Y-89696857D01*
X123785357Y-89011142D02*
X123728214Y-88954000D01*
X123613928Y-88896857D01*
X123442500Y-88896857D01*
X123328214Y-88954000D01*
X123271071Y-89068285D01*
X123271071Y-89696857D01*
X121842500Y-89354000D02*
X121271071Y-89354000D01*
X121956785Y-89696857D02*
X121556785Y-88496857D01*
X121156785Y-89696857D01*
X120242500Y-89696857D02*
X120242500Y-88496857D01*
X120242500Y-89639714D02*
X120356785Y-89696857D01*
X120585357Y-89696857D01*
X120699642Y-89639714D01*
X120756785Y-89582571D01*
X120813928Y-89468285D01*
X120813928Y-89125428D01*
X120756785Y-89011142D01*
X120699642Y-88954000D01*
X120585357Y-88896857D01*
X120356785Y-88896857D01*
X120242500Y-88954000D01*
X119156785Y-89696857D02*
X119156785Y-89068285D01*
X119213928Y-88954000D01*
X119328214Y-88896857D01*
X119556785Y-88896857D01*
X119671071Y-88954000D01*
X119156785Y-89639714D02*
X119271071Y-89696857D01*
X119556785Y-89696857D01*
X119671071Y-89639714D01*
X119728214Y-89525428D01*
X119728214Y-89411142D01*
X119671071Y-89296857D01*
X119556785Y-89239714D01*
X119271071Y-89239714D01*
X119156785Y-89182571D01*
X118585357Y-88896857D02*
X118585357Y-90096857D01*
X118585357Y-88954000D02*
X118471071Y-88896857D01*
X118242500Y-88896857D01*
X118128214Y-88954000D01*
X118071071Y-89011142D01*
X118013928Y-89125428D01*
X118013928Y-89468285D01*
X118071071Y-89582571D01*
X118128214Y-89639714D01*
X118242500Y-89696857D01*
X118471071Y-89696857D01*
X118585357Y-89639714D01*
X117671071Y-88896857D02*
X117213928Y-88896857D01*
X117499642Y-88496857D02*
X117499642Y-89525428D01*
X117442500Y-89639714D01*
X117328214Y-89696857D01*
X117213928Y-89696857D01*
X116642500Y-89696857D02*
X116756785Y-89639714D01*
X116813928Y-89582571D01*
X116871071Y-89468285D01*
X116871071Y-89125428D01*
X116813928Y-89011142D01*
X116756785Y-88954000D01*
X116642500Y-88896857D01*
X116471071Y-88896857D01*
X116356785Y-88954000D01*
X116299642Y-89011142D01*
X116242500Y-89125428D01*
X116242500Y-89468285D01*
X116299642Y-89582571D01*
X116356785Y-89639714D01*
X116471071Y-89696857D01*
X116642500Y-89696857D01*
X115728214Y-89696857D02*
X115728214Y-88896857D01*
X115728214Y-89125428D02*
X115671071Y-89011142D01*
X115613928Y-88954000D01*
X115499642Y-88896857D01*
X115385357Y-88896857D01*
X128528214Y-91628857D02*
X129213928Y-91628857D01*
X128871071Y-91628857D02*
X128871071Y-90428857D01*
X128985357Y-90600285D01*
X129099642Y-90714571D01*
X129213928Y-90771714D01*
X127499642Y-90828857D02*
X127499642Y-91628857D01*
X127785357Y-90371714D02*
X128071071Y-91228857D01*
X127328214Y-91228857D01*
X126871071Y-91514571D02*
X126813928Y-91571714D01*
X126871071Y-91628857D01*
X126928214Y-91571714D01*
X126871071Y-91514571D01*
X126871071Y-91628857D01*
X125671071Y-91628857D02*
X126356785Y-91628857D01*
X126013928Y-91628857D02*
X126013928Y-90428857D01*
X126128214Y-90600285D01*
X126242500Y-90714571D01*
X126356785Y-90771714D01*
X125213928Y-90543142D02*
X125156785Y-90486000D01*
X125042500Y-90428857D01*
X124756785Y-90428857D01*
X124642500Y-90486000D01*
X124585357Y-90543142D01*
X124528214Y-90657428D01*
X124528214Y-90771714D01*
X124585357Y-90943142D01*
X125271071Y-91628857D01*
X124528214Y-91628857D01*
X124013928Y-91514571D02*
X123956785Y-91571714D01*
X124013928Y-91628857D01*
X124071071Y-91571714D01*
X124013928Y-91514571D01*
X124013928Y-91628857D01*
X123499642Y-90543142D02*
X123442500Y-90486000D01*
X123328214Y-90428857D01*
X123042500Y-90428857D01*
X122928214Y-90486000D01*
X122871071Y-90543142D01*
X122813928Y-90657428D01*
X122813928Y-90771714D01*
X122871071Y-90943142D01*
X123556785Y-91628857D01*
X122813928Y-91628857D01*
X122071071Y-90428857D02*
X121956785Y-90428857D01*
X121842500Y-90486000D01*
X121785357Y-90543142D01*
X121728214Y-90657428D01*
X121671071Y-90886000D01*
X121671071Y-91171714D01*
X121728214Y-91400285D01*
X121785357Y-91514571D01*
X121842500Y-91571714D01*
X121956785Y-91628857D01*
X122071071Y-91628857D01*
X122185357Y-91571714D01*
X122242500Y-91514571D01*
X122299642Y-91400285D01*
X122356785Y-91171714D01*
X122356785Y-90886000D01*
X122299642Y-90657428D01*
X122242500Y-90543142D01*
X122185357Y-90486000D01*
X122071071Y-90428857D01*
X121213928Y-90543142D02*
X121156785Y-90486000D01*
X121042500Y-90428857D01*
X120756785Y-90428857D01*
X120642500Y-90486000D01*
X120585357Y-90543142D01*
X120528214Y-90657428D01*
X120528214Y-90771714D01*
X120585357Y-90943142D01*
X121271071Y-91628857D01*
X120528214Y-91628857D01*
X120071071Y-90543142D02*
X120013928Y-90486000D01*
X119899642Y-90428857D01*
X119613928Y-90428857D01*
X119499642Y-90486000D01*
X119442500Y-90543142D01*
X119385357Y-90657428D01*
X119385357Y-90771714D01*
X119442500Y-90943142D01*
X120128214Y-91628857D01*
X119385357Y-91628857D01*
X161188000Y-90736666D02*
X160988000Y-90803333D01*
X160654666Y-90803333D01*
X160521333Y-90736666D01*
X160454666Y-90670000D01*
X160388000Y-90536666D01*
X160388000Y-90403333D01*
X160454666Y-90270000D01*
X160521333Y-90203333D01*
X160654666Y-90136666D01*
X160921333Y-90070000D01*
X161054666Y-90003333D01*
X161121333Y-89936666D01*
X161188000Y-89803333D01*
X161188000Y-89670000D01*
X161121333Y-89536666D01*
X161054666Y-89470000D01*
X160921333Y-89403333D01*
X160588000Y-89403333D01*
X160388000Y-89470000D01*
X159121333Y-89403333D02*
X159788000Y-89403333D01*
X159854666Y-90070000D01*
X159788000Y-90003333D01*
X159654666Y-89936666D01*
X159321333Y-89936666D01*
X159188000Y-90003333D01*
X159121333Y-90070000D01*
X159054666Y-90203333D01*
X159054666Y-90536666D01*
X159121333Y-90670000D01*
X159188000Y-90736666D01*
X159321333Y-90803333D01*
X159654666Y-90803333D01*
X159788000Y-90736666D01*
X159854666Y-90670000D01*
X158388000Y-90803333D02*
X158121333Y-90803333D01*
X157988000Y-90736666D01*
X157921333Y-90670000D01*
X157788000Y-90470000D01*
X157721333Y-90203333D01*
X157721333Y-89670000D01*
X157788000Y-89536666D01*
X157854666Y-89470000D01*
X157988000Y-89403333D01*
X158254666Y-89403333D01*
X158388000Y-89470000D01*
X158454666Y-89536666D01*
X158521333Y-89670000D01*
X158521333Y-90003333D01*
X158454666Y-90136666D01*
X158388000Y-90203333D01*
X158254666Y-90270000D01*
X157988000Y-90270000D01*
X157854666Y-90203333D01*
X157788000Y-90136666D01*
X157721333Y-90003333D01*
X157121333Y-90803333D02*
X157121333Y-89403333D01*
X156654666Y-90403333D01*
X156188000Y-89403333D01*
X156188000Y-90803333D01*
X155654666Y-89403333D02*
X154721333Y-89403333D01*
X155654666Y-90803333D01*
X154721333Y-90803333D01*
X161187714Y-87918857D02*
X161187714Y-86718857D01*
X160902000Y-86718857D01*
X160730571Y-86776000D01*
X160616285Y-86890285D01*
X160559142Y-87004571D01*
X160502000Y-87233142D01*
X160502000Y-87404571D01*
X160559142Y-87633142D01*
X160616285Y-87747428D01*
X160730571Y-87861714D01*
X160902000Y-87918857D01*
X161187714Y-87918857D01*
X159530571Y-87861714D02*
X159644857Y-87918857D01*
X159873428Y-87918857D01*
X159987714Y-87861714D01*
X160044857Y-87747428D01*
X160044857Y-87290285D01*
X159987714Y-87176000D01*
X159873428Y-87118857D01*
X159644857Y-87118857D01*
X159530571Y-87176000D01*
X159473428Y-87290285D01*
X159473428Y-87404571D01*
X160044857Y-87518857D01*
X159016285Y-87861714D02*
X158902000Y-87918857D01*
X158673428Y-87918857D01*
X158559142Y-87861714D01*
X158502000Y-87747428D01*
X158502000Y-87690285D01*
X158559142Y-87576000D01*
X158673428Y-87518857D01*
X158844857Y-87518857D01*
X158959142Y-87461714D01*
X159016285Y-87347428D01*
X159016285Y-87290285D01*
X158959142Y-87176000D01*
X158844857Y-87118857D01*
X158673428Y-87118857D01*
X158559142Y-87176000D01*
X157987714Y-87918857D02*
X157987714Y-87118857D01*
X157987714Y-86718857D02*
X158044857Y-86776000D01*
X157987714Y-86833142D01*
X157930571Y-86776000D01*
X157987714Y-86718857D01*
X157987714Y-86833142D01*
X156902000Y-87118857D02*
X156902000Y-88090285D01*
X156959142Y-88204571D01*
X157016285Y-88261714D01*
X157130571Y-88318857D01*
X157302000Y-88318857D01*
X157416285Y-88261714D01*
X156902000Y-87861714D02*
X157016285Y-87918857D01*
X157244857Y-87918857D01*
X157359142Y-87861714D01*
X157416285Y-87804571D01*
X157473428Y-87690285D01*
X157473428Y-87347428D01*
X157416285Y-87233142D01*
X157359142Y-87176000D01*
X157244857Y-87118857D01*
X157016285Y-87118857D01*
X156902000Y-87176000D01*
X156330571Y-87118857D02*
X156330571Y-87918857D01*
X156330571Y-87233142D02*
X156273428Y-87176000D01*
X156159142Y-87118857D01*
X155987714Y-87118857D01*
X155873428Y-87176000D01*
X155816285Y-87290285D01*
X155816285Y-87918857D01*
X154787714Y-87861714D02*
X154902000Y-87918857D01*
X155130571Y-87918857D01*
X155244857Y-87861714D01*
X155302000Y-87747428D01*
X155302000Y-87290285D01*
X155244857Y-87176000D01*
X155130571Y-87118857D01*
X154902000Y-87118857D01*
X154787714Y-87176000D01*
X154730571Y-87290285D01*
X154730571Y-87404571D01*
X155302000Y-87518857D01*
X153702000Y-87918857D02*
X153702000Y-86718857D01*
X153702000Y-87861714D02*
X153816285Y-87918857D01*
X154044857Y-87918857D01*
X154159142Y-87861714D01*
X154216285Y-87804571D01*
X154273428Y-87690285D01*
X154273428Y-87347428D01*
X154216285Y-87233142D01*
X154159142Y-87176000D01*
X154044857Y-87118857D01*
X153816285Y-87118857D01*
X153702000Y-87176000D01*
X152216285Y-87918857D02*
X152216285Y-86718857D01*
X152216285Y-87176000D02*
X152102000Y-87118857D01*
X151873428Y-87118857D01*
X151759142Y-87176000D01*
X151702000Y-87233142D01*
X151644857Y-87347428D01*
X151644857Y-87690285D01*
X151702000Y-87804571D01*
X151759142Y-87861714D01*
X151873428Y-87918857D01*
X152102000Y-87918857D01*
X152216285Y-87861714D01*
X151244857Y-87118857D02*
X150959142Y-87918857D01*
X150673428Y-87118857D02*
X150959142Y-87918857D01*
X151073428Y-88204571D01*
X151130571Y-88261714D01*
X151244857Y-88318857D01*
X150216285Y-87804571D02*
X150159142Y-87861714D01*
X150216285Y-87918857D01*
X150273428Y-87861714D01*
X150216285Y-87804571D01*
X150216285Y-87918857D01*
X150216285Y-87176000D02*
X150159142Y-87233142D01*
X150216285Y-87290285D01*
X150273428Y-87233142D01*
X150216285Y-87176000D01*
X150216285Y-87290285D01*
X111863333Y-43902380D02*
X111863333Y-44616666D01*
X111910952Y-44759523D01*
X112006190Y-44854761D01*
X112149047Y-44902380D01*
X112244285Y-44902380D01*
X110863333Y-44902380D02*
X111434761Y-44902380D01*
X111149047Y-44902380D02*
X111149047Y-43902380D01*
X111244285Y-44045238D01*
X111339523Y-44140476D01*
X111434761Y-44188095D01*
D11*
X112970000Y-44450000D02*
X115570000Y-44450000D01*
X112970000Y-41850000D02*
X163890000Y-41850000D01*
X115570000Y-47050000D02*
X163890000Y-47050000D01*
X163890000Y-41850000D02*
X163890000Y-47050000D01*
X112970000Y-45720000D02*
X112970000Y-47050000D01*
X112970000Y-47050000D02*
X114300000Y-47050000D01*
X115570000Y-44450000D02*
X115570000Y-47050000D01*
X112970000Y-41850000D02*
X112970000Y-44450000D01*
%LPC*%
D12*
X162560000Y-73660000D03*
D13*
X162560000Y-76200000D03*
X160020000Y-73660000D03*
X160020000Y-76200000D03*
X157480000Y-73660000D03*
X157480000Y-76200000D03*
X154940000Y-73660000D03*
X154940000Y-76200000D03*
X152400000Y-73660000D03*
X152400000Y-76200000D03*
X149860000Y-73660000D03*
X149860000Y-76200000D03*
X147320000Y-73660000D03*
X147320000Y-76200000D03*
X144780000Y-73660000D03*
X144780000Y-76200000D03*
X142240000Y-73660000D03*
X142240000Y-76200000D03*
X139700000Y-73660000D03*
X139700000Y-76200000D03*
X137160000Y-73660000D03*
X137160000Y-76200000D03*
X134620000Y-73660000D03*
X134620000Y-76200000D03*
X132080000Y-73660000D03*
X132080000Y-76200000D03*
X129540000Y-73660000D03*
X129540000Y-76200000D03*
X127000000Y-73660000D03*
X127000000Y-76200000D03*
X124460000Y-73660000D03*
X124460000Y-76200000D03*
X121920000Y-73660000D03*
X121920000Y-76200000D03*
X119380000Y-73660000D03*
X119380000Y-76200000D03*
D14*
X142240000Y-89535000D03*
D12*
X162560000Y-50800000D03*
D13*
X162560000Y-53340000D03*
X160020000Y-50800000D03*
X160020000Y-53340000D03*
X157480000Y-50800000D03*
X157480000Y-53340000D03*
X154940000Y-50800000D03*
X154940000Y-53340000D03*
X152400000Y-50800000D03*
X152400000Y-53340000D03*
X149860000Y-50800000D03*
X149860000Y-53340000D03*
X147320000Y-50800000D03*
X147320000Y-53340000D03*
X144780000Y-50800000D03*
X144780000Y-53340000D03*
X142240000Y-50800000D03*
X142240000Y-53340000D03*
X139700000Y-50800000D03*
X139700000Y-53340000D03*
X137160000Y-50800000D03*
X137160000Y-53340000D03*
X134620000Y-50800000D03*
X134620000Y-53340000D03*
X132080000Y-50800000D03*
X132080000Y-53340000D03*
X129540000Y-50800000D03*
X129540000Y-53340000D03*
X127000000Y-50800000D03*
X127000000Y-53340000D03*
X124460000Y-50800000D03*
X124460000Y-53340000D03*
X121920000Y-50800000D03*
X121920000Y-53340000D03*
X119380000Y-50800000D03*
X119380000Y-53340000D03*
X116840000Y-50800000D03*
X116840000Y-53340000D03*
X114300000Y-50800000D03*
X114300000Y-53340000D03*
D12*
X147320000Y-81280000D03*
D13*
X147320000Y-83820000D03*
X149860000Y-81280000D03*
X149860000Y-83820000D03*
X152400000Y-81280000D03*
X152400000Y-83820000D03*
X154940000Y-81280000D03*
X154940000Y-83820000D03*
X157480000Y-81280000D03*
X157480000Y-83820000D03*
X160020000Y-81280000D03*
X160020000Y-83820000D03*
D12*
X116840000Y-81280000D03*
D13*
X116840000Y-83820000D03*
X119380000Y-81280000D03*
X119380000Y-83820000D03*
X121920000Y-81280000D03*
X121920000Y-83820000D03*
X124460000Y-81280000D03*
X124460000Y-83820000D03*
X127000000Y-81280000D03*
X127000000Y-83820000D03*
X129540000Y-81280000D03*
X129540000Y-83820000D03*
X132080000Y-81280000D03*
X132080000Y-83820000D03*
X134620000Y-81280000D03*
X134620000Y-83820000D03*
X137160000Y-81280000D03*
X137160000Y-83820000D03*
D12*
X162560000Y-66040000D03*
D13*
X162560000Y-68580000D03*
X160020000Y-66040000D03*
X160020000Y-68580000D03*
X157480000Y-66040000D03*
X157480000Y-68580000D03*
X154940000Y-66040000D03*
X154940000Y-68580000D03*
X152400000Y-66040000D03*
X152400000Y-68580000D03*
X149860000Y-66040000D03*
X149860000Y-68580000D03*
X147320000Y-66040000D03*
X147320000Y-68580000D03*
X144780000Y-66040000D03*
X144780000Y-68580000D03*
X142240000Y-66040000D03*
X142240000Y-68580000D03*
X139700000Y-66040000D03*
X139700000Y-68580000D03*
X137160000Y-66040000D03*
X137160000Y-68580000D03*
X134620000Y-66040000D03*
X134620000Y-68580000D03*
X132080000Y-66040000D03*
X132080000Y-68580000D03*
X129540000Y-66040000D03*
X129540000Y-68580000D03*
X127000000Y-66040000D03*
X127000000Y-68580000D03*
X124460000Y-66040000D03*
X124460000Y-68580000D03*
X121920000Y-66040000D03*
X121920000Y-68580000D03*
D12*
X152400000Y-58420000D03*
D13*
X152400000Y-60960000D03*
X149860000Y-58420000D03*
X149860000Y-60960000D03*
X147320000Y-58420000D03*
X147320000Y-60960000D03*
X144780000Y-58420000D03*
X144780000Y-60960000D03*
X142240000Y-58420000D03*
X142240000Y-60960000D03*
X139700000Y-58420000D03*
X139700000Y-60960000D03*
X137160000Y-58420000D03*
X137160000Y-60960000D03*
X134620000Y-58420000D03*
X134620000Y-60960000D03*
X132080000Y-58420000D03*
X132080000Y-60960000D03*
X129540000Y-58420000D03*
X129540000Y-60960000D03*
X127000000Y-58420000D03*
X127000000Y-60960000D03*
X124460000Y-58420000D03*
X124460000Y-60960000D03*
X121920000Y-58420000D03*
X121920000Y-60960000D03*
X119380000Y-58420000D03*
X119380000Y-60960000D03*
X116840000Y-58420000D03*
X116840000Y-60960000D03*
X114300000Y-58420000D03*
X114300000Y-60960000D03*
D12*
X114300000Y-45720000D03*
D13*
X114300000Y-43180000D03*
X116840000Y-45720000D03*
X116840000Y-43180000D03*
X119380000Y-45720000D03*
X119380000Y-43180000D03*
X121920000Y-45720000D03*
X121920000Y-43180000D03*
X124460000Y-45720000D03*
X124460000Y-43180000D03*
X127000000Y-45720000D03*
X127000000Y-43180000D03*
X129540000Y-45720000D03*
X129540000Y-43180000D03*
X132080000Y-45720000D03*
X132080000Y-43180000D03*
X134620000Y-45720000D03*
X134620000Y-43180000D03*
X137160000Y-45720000D03*
X137160000Y-43180000D03*
X139700000Y-45720000D03*
X139700000Y-43180000D03*
X142240000Y-45720000D03*
X142240000Y-43180000D03*
X144780000Y-45720000D03*
X144780000Y-43180000D03*
X147320000Y-45720000D03*
X147320000Y-43180000D03*
X149860000Y-45720000D03*
X149860000Y-43180000D03*
X152400000Y-45720000D03*
X152400000Y-43180000D03*
X154940000Y-45720000D03*
X154940000Y-43180000D03*
X157480000Y-45720000D03*
X157480000Y-43180000D03*
X160020000Y-45720000D03*
X160020000Y-43180000D03*
X162560000Y-45720000D03*
X162560000Y-43180000D03*
M02*
