G04 #@! TF.GenerationSoftware,KiCad,Pcbnew,6.0.9-8da3e8f707~116~ubuntu20.04.1*
G04 #@! TF.CreationDate,2022-12-14T15:49:57+01:00*
G04 #@! TF.ProjectId,z_adaptor,7a5f6164-6170-4746-9f72-2e6b69636164,rev?*
G04 #@! TF.SameCoordinates,Original*
G04 #@! TF.FileFunction,Soldermask,Top*
G04 #@! TF.FilePolarity,Negative*
%FSLAX46Y46*%
G04 Gerber Fmt 4.6, Leading zero omitted, Abs format (unit mm)*
G04 Created by KiCad (PCBNEW 6.0.9-8da3e8f707~116~ubuntu20.04.1) date 2022-12-14 15:49:57*
%MOMM*%
%LPD*%
G01*
G04 APERTURE LIST*
G04 Aperture macros list*
%AMRoundRect*
0 Rectangle with rounded corners*
0 $1 Rounding radius*
0 $2 $3 $4 $5 $6 $7 $8 $9 X,Y pos of 4 corners*
0 Add a 4 corners polygon primitive as box body*
4,1,4,$2,$3,$4,$5,$6,$7,$8,$9,$2,$3,0*
0 Add four circle primitives for the rounded corners*
1,1,$1+$1,$2,$3*
1,1,$1+$1,$4,$5*
1,1,$1+$1,$6,$7*
1,1,$1+$1,$8,$9*
0 Add four rect primitives between the rounded corners*
20,1,$1+$1,$2,$3,$4,$5,0*
20,1,$1+$1,$4,$5,$6,$7,0*
20,1,$1+$1,$6,$7,$8,$9,0*
20,1,$1+$1,$8,$9,$2,$3,0*%
G04 Aperture macros list end*
%ADD10RoundRect,0.237500X0.237500X-0.300000X0.237500X0.300000X-0.237500X0.300000X-0.237500X-0.300000X0*%
%ADD11R,1.700000X1.700000*%
%ADD12O,1.700000X1.700000*%
%ADD13RoundRect,0.237500X-0.300000X-0.237500X0.300000X-0.237500X0.300000X0.237500X-0.300000X0.237500X0*%
%ADD14C,2.500000*%
%ADD15RoundRect,0.237500X0.300000X0.237500X-0.300000X0.237500X-0.300000X-0.237500X0.300000X-0.237500X0*%
%ADD16RoundRect,0.237500X-0.237500X0.300000X-0.237500X-0.300000X0.237500X-0.300000X0.237500X0.300000X0*%
G04 APERTURE END LIST*
D10*
X165354000Y-68580000D03*
X165354000Y-66855000D03*
D11*
X162560000Y-73660000D03*
D12*
X162560000Y-76200000D03*
X160020000Y-73660000D03*
X160020000Y-76200000D03*
X157480000Y-73660000D03*
X157480000Y-76200000D03*
X154940000Y-73660000D03*
X154940000Y-76200000D03*
X152400000Y-73660000D03*
X152400000Y-76200000D03*
X149860000Y-73660000D03*
X149860000Y-76200000D03*
X147320000Y-73660000D03*
X147320000Y-76200000D03*
X144780000Y-73660000D03*
X144780000Y-76200000D03*
X142240000Y-73660000D03*
X142240000Y-76200000D03*
X139700000Y-73660000D03*
X139700000Y-76200000D03*
X137160000Y-73660000D03*
X137160000Y-76200000D03*
X134620000Y-73660000D03*
X134620000Y-76200000D03*
X132080000Y-73660000D03*
X132080000Y-76200000D03*
X129540000Y-73660000D03*
X129540000Y-76200000D03*
X127000000Y-73660000D03*
X127000000Y-76200000D03*
X124460000Y-73660000D03*
X124460000Y-76200000D03*
X121920000Y-73660000D03*
X121920000Y-76200000D03*
X119380000Y-73660000D03*
X119380000Y-76200000D03*
D13*
X114300000Y-48006000D03*
X116025000Y-48006000D03*
D14*
X142240000Y-89535000D03*
D11*
X162560000Y-50800000D03*
D12*
X162560000Y-53340000D03*
X160020000Y-50800000D03*
X160020000Y-53340000D03*
X157480000Y-50800000D03*
X157480000Y-53340000D03*
X154940000Y-50800000D03*
X154940000Y-53340000D03*
X152400000Y-50800000D03*
X152400000Y-53340000D03*
X149860000Y-50800000D03*
X149860000Y-53340000D03*
X147320000Y-50800000D03*
X147320000Y-53340000D03*
X144780000Y-50800000D03*
X144780000Y-53340000D03*
X142240000Y-50800000D03*
X142240000Y-53340000D03*
X139700000Y-50800000D03*
X139700000Y-53340000D03*
X137160000Y-50800000D03*
X137160000Y-53340000D03*
X134620000Y-50800000D03*
X134620000Y-53340000D03*
X132080000Y-50800000D03*
X132080000Y-53340000D03*
X129540000Y-50800000D03*
X129540000Y-53340000D03*
X127000000Y-50800000D03*
X127000000Y-53340000D03*
X124460000Y-50800000D03*
X124460000Y-53340000D03*
X121920000Y-50800000D03*
X121920000Y-53340000D03*
X119380000Y-50800000D03*
X119380000Y-53340000D03*
X116840000Y-50800000D03*
X116840000Y-53340000D03*
X114300000Y-50800000D03*
X114300000Y-53340000D03*
D15*
X149960500Y-71120000D03*
X148235500Y-71120000D03*
D16*
X144526000Y-81280000D03*
X144526000Y-83005000D03*
D10*
X165608000Y-53340000D03*
X165608000Y-51615000D03*
D13*
X114300000Y-63500000D03*
X116025000Y-63500000D03*
D11*
X147320000Y-81280000D03*
D12*
X147320000Y-83820000D03*
X149860000Y-81280000D03*
X149860000Y-83820000D03*
X152400000Y-81280000D03*
X152400000Y-83820000D03*
X154940000Y-81280000D03*
X154940000Y-83820000D03*
X157480000Y-81280000D03*
X157480000Y-83820000D03*
X160020000Y-81280000D03*
X160020000Y-83820000D03*
D11*
X116840000Y-81280000D03*
D12*
X116840000Y-83820000D03*
X119380000Y-81280000D03*
X119380000Y-83820000D03*
X121920000Y-81280000D03*
X121920000Y-83820000D03*
X124460000Y-81280000D03*
X124460000Y-83820000D03*
X127000000Y-81280000D03*
X127000000Y-83820000D03*
X129540000Y-81280000D03*
X129540000Y-83820000D03*
X132080000Y-81280000D03*
X132080000Y-83820000D03*
X134620000Y-81280000D03*
X134620000Y-83820000D03*
X137160000Y-81280000D03*
X137160000Y-83820000D03*
D11*
X162560000Y-66040000D03*
D12*
X162560000Y-68580000D03*
X160020000Y-66040000D03*
X160020000Y-68580000D03*
X157480000Y-66040000D03*
X157480000Y-68580000D03*
X154940000Y-66040000D03*
X154940000Y-68580000D03*
X152400000Y-66040000D03*
X152400000Y-68580000D03*
X149860000Y-66040000D03*
X149860000Y-68580000D03*
X147320000Y-66040000D03*
X147320000Y-68580000D03*
X144780000Y-66040000D03*
X144780000Y-68580000D03*
X142240000Y-66040000D03*
X142240000Y-68580000D03*
X139700000Y-66040000D03*
X139700000Y-68580000D03*
X137160000Y-66040000D03*
X137160000Y-68580000D03*
X134620000Y-66040000D03*
X134620000Y-68580000D03*
X132080000Y-66040000D03*
X132080000Y-68580000D03*
X129540000Y-66040000D03*
X129540000Y-68580000D03*
X127000000Y-66040000D03*
X127000000Y-68580000D03*
X124460000Y-66040000D03*
X124460000Y-68580000D03*
X121920000Y-66040000D03*
X121920000Y-68580000D03*
D13*
X114300000Y-40640000D03*
X116025000Y-40640000D03*
X112877600Y-78333600D03*
X114602600Y-78333600D03*
D11*
X152400000Y-58420000D03*
D12*
X152400000Y-60960000D03*
X149860000Y-58420000D03*
X149860000Y-60960000D03*
X147320000Y-58420000D03*
X147320000Y-60960000D03*
X144780000Y-58420000D03*
X144780000Y-60960000D03*
X142240000Y-58420000D03*
X142240000Y-60960000D03*
X139700000Y-58420000D03*
X139700000Y-60960000D03*
X137160000Y-58420000D03*
X137160000Y-60960000D03*
X134620000Y-58420000D03*
X134620000Y-60960000D03*
X132080000Y-58420000D03*
X132080000Y-60960000D03*
X129540000Y-58420000D03*
X129540000Y-60960000D03*
X127000000Y-58420000D03*
X127000000Y-60960000D03*
X124460000Y-58420000D03*
X124460000Y-60960000D03*
X121920000Y-58420000D03*
X121920000Y-60960000D03*
X119380000Y-58420000D03*
X119380000Y-60960000D03*
X116840000Y-58420000D03*
X116840000Y-60960000D03*
X114300000Y-58420000D03*
X114300000Y-60960000D03*
D13*
X114300000Y-55880000D03*
X116025000Y-55880000D03*
D11*
X114300000Y-45720000D03*
D12*
X114300000Y-43180000D03*
X116840000Y-45720000D03*
X116840000Y-43180000D03*
X119380000Y-45720000D03*
X119380000Y-43180000D03*
X121920000Y-45720000D03*
X121920000Y-43180000D03*
X124460000Y-45720000D03*
X124460000Y-43180000D03*
X127000000Y-45720000D03*
X127000000Y-43180000D03*
X129540000Y-45720000D03*
X129540000Y-43180000D03*
X132080000Y-45720000D03*
X132080000Y-43180000D03*
X134620000Y-45720000D03*
X134620000Y-43180000D03*
X137160000Y-45720000D03*
X137160000Y-43180000D03*
X139700000Y-45720000D03*
X139700000Y-43180000D03*
X142240000Y-45720000D03*
X142240000Y-43180000D03*
X144780000Y-45720000D03*
X144780000Y-43180000D03*
X147320000Y-45720000D03*
X147320000Y-43180000D03*
X149860000Y-45720000D03*
X149860000Y-43180000D03*
X152400000Y-45720000D03*
X152400000Y-43180000D03*
X154940000Y-45720000D03*
X154940000Y-43180000D03*
X157480000Y-45720000D03*
X157480000Y-43180000D03*
X160020000Y-45720000D03*
X160020000Y-43180000D03*
X162560000Y-45720000D03*
X162560000Y-43180000D03*
M02*
