%TF.GenerationSoftware,KiCad,Pcbnew,6.0.9-8da3e8f707~116~ubuntu20.04.1*%
%TF.CreationDate,2022-12-12T12:36:43+01:00*%
%TF.ProjectId,z_adaptor,7a5f6164-6170-4746-9f72-2e6b69636164,rev?*%
%TF.SameCoordinates,Original*%
%TF.FileFunction,Drillmap*%
%TF.FilePolarity,Positive*%
%FSLAX45Y45*%
G04 Gerber Fmt 4.5, Leading zero omitted, Abs format (unit mm)*
G04 Created by KiCad (PCBNEW 6.0.9-8da3e8f707~116~ubuntu20.04.1) date 2022-12-12 12:36:43*
%MOMM*%
%LPD*%
G01*
G04 APERTURE LIST*
%ADD10C,0.100000*%
%ADD11C,0.200000*%
G04 APERTURE END LIST*
D10*
X11049000Y-9271000D02*
G75*
G03*
X11176000Y-9398000I127000J0D01*
G01*
X11176000Y-3810000D02*
X16637000Y-3810000D01*
X16764000Y-3937000D02*
G75*
G03*
X16637000Y-3810000I-127000J0D01*
G01*
X16764000Y-3937000D02*
X16764000Y-9271000D01*
X16637000Y-9398000D02*
G75*
G03*
X16764000Y-9271000I0J127000D01*
G01*
X16637000Y-9398000D02*
X11176000Y-9398000D01*
X11049000Y-9271000D02*
X11049000Y-3937000D01*
X11176000Y-3810000D02*
G75*
G03*
X11049000Y-3937000I0J-127000D01*
G01*
D11*
D10*
X11380000Y-4268000D02*
X11480000Y-4368000D01*
X11480000Y-4268000D02*
X11380000Y-4368000D01*
X11380000Y-4522000D02*
X11480000Y-4622000D01*
X11480000Y-4522000D02*
X11380000Y-4622000D01*
X11380000Y-5030000D02*
X11480000Y-5130000D01*
X11480000Y-5030000D02*
X11380000Y-5130000D01*
X11380000Y-5284000D02*
X11480000Y-5384000D01*
X11480000Y-5284000D02*
X11380000Y-5384000D01*
X11380000Y-5792000D02*
X11480000Y-5892000D01*
X11480000Y-5792000D02*
X11380000Y-5892000D01*
X11380000Y-6046000D02*
X11480000Y-6146000D01*
X11480000Y-6046000D02*
X11380000Y-6146000D01*
X11634000Y-4268000D02*
X11734000Y-4368000D01*
X11734000Y-4268000D02*
X11634000Y-4368000D01*
X11634000Y-4522000D02*
X11734000Y-4622000D01*
X11734000Y-4522000D02*
X11634000Y-4622000D01*
X11634000Y-5030000D02*
X11734000Y-5130000D01*
X11734000Y-5030000D02*
X11634000Y-5130000D01*
X11634000Y-5284000D02*
X11734000Y-5384000D01*
X11734000Y-5284000D02*
X11634000Y-5384000D01*
X11634000Y-5792000D02*
X11734000Y-5892000D01*
X11734000Y-5792000D02*
X11634000Y-5892000D01*
X11634000Y-6046000D02*
X11734000Y-6146000D01*
X11734000Y-6046000D02*
X11634000Y-6146000D01*
X11634000Y-8078000D02*
X11734000Y-8178000D01*
X11734000Y-8078000D02*
X11634000Y-8178000D01*
X11634000Y-8332000D02*
X11734000Y-8432000D01*
X11734000Y-8332000D02*
X11634000Y-8432000D01*
X11888000Y-4268000D02*
X11988000Y-4368000D01*
X11988000Y-4268000D02*
X11888000Y-4368000D01*
X11888000Y-4522000D02*
X11988000Y-4622000D01*
X11988000Y-4522000D02*
X11888000Y-4622000D01*
X11888000Y-5030000D02*
X11988000Y-5130000D01*
X11988000Y-5030000D02*
X11888000Y-5130000D01*
X11888000Y-5284000D02*
X11988000Y-5384000D01*
X11988000Y-5284000D02*
X11888000Y-5384000D01*
X11888000Y-5792000D02*
X11988000Y-5892000D01*
X11988000Y-5792000D02*
X11888000Y-5892000D01*
X11888000Y-6046000D02*
X11988000Y-6146000D01*
X11988000Y-6046000D02*
X11888000Y-6146000D01*
X11888000Y-7316000D02*
X11988000Y-7416000D01*
X11988000Y-7316000D02*
X11888000Y-7416000D01*
X11888000Y-7570000D02*
X11988000Y-7670000D01*
X11988000Y-7570000D02*
X11888000Y-7670000D01*
X11888000Y-8078000D02*
X11988000Y-8178000D01*
X11988000Y-8078000D02*
X11888000Y-8178000D01*
X11888000Y-8332000D02*
X11988000Y-8432000D01*
X11988000Y-8332000D02*
X11888000Y-8432000D01*
X12142000Y-4268000D02*
X12242000Y-4368000D01*
X12242000Y-4268000D02*
X12142000Y-4368000D01*
X12142000Y-4522000D02*
X12242000Y-4622000D01*
X12242000Y-4522000D02*
X12142000Y-4622000D01*
X12142000Y-5030000D02*
X12242000Y-5130000D01*
X12242000Y-5030000D02*
X12142000Y-5130000D01*
X12142000Y-5284000D02*
X12242000Y-5384000D01*
X12242000Y-5284000D02*
X12142000Y-5384000D01*
X12142000Y-5792000D02*
X12242000Y-5892000D01*
X12242000Y-5792000D02*
X12142000Y-5892000D01*
X12142000Y-6046000D02*
X12242000Y-6146000D01*
X12242000Y-6046000D02*
X12142000Y-6146000D01*
X12142000Y-6554000D02*
X12242000Y-6654000D01*
X12242000Y-6554000D02*
X12142000Y-6654000D01*
X12142000Y-6808000D02*
X12242000Y-6908000D01*
X12242000Y-6808000D02*
X12142000Y-6908000D01*
X12142000Y-7316000D02*
X12242000Y-7416000D01*
X12242000Y-7316000D02*
X12142000Y-7416000D01*
X12142000Y-7570000D02*
X12242000Y-7670000D01*
X12242000Y-7570000D02*
X12142000Y-7670000D01*
X12142000Y-8078000D02*
X12242000Y-8178000D01*
X12242000Y-8078000D02*
X12142000Y-8178000D01*
X12142000Y-8332000D02*
X12242000Y-8432000D01*
X12242000Y-8332000D02*
X12142000Y-8432000D01*
X12396000Y-4268000D02*
X12496000Y-4368000D01*
X12496000Y-4268000D02*
X12396000Y-4368000D01*
X12396000Y-4522000D02*
X12496000Y-4622000D01*
X12496000Y-4522000D02*
X12396000Y-4622000D01*
X12396000Y-5030000D02*
X12496000Y-5130000D01*
X12496000Y-5030000D02*
X12396000Y-5130000D01*
X12396000Y-5284000D02*
X12496000Y-5384000D01*
X12496000Y-5284000D02*
X12396000Y-5384000D01*
X12396000Y-5792000D02*
X12496000Y-5892000D01*
X12496000Y-5792000D02*
X12396000Y-5892000D01*
X12396000Y-6046000D02*
X12496000Y-6146000D01*
X12496000Y-6046000D02*
X12396000Y-6146000D01*
X12396000Y-6554000D02*
X12496000Y-6654000D01*
X12496000Y-6554000D02*
X12396000Y-6654000D01*
X12396000Y-6808000D02*
X12496000Y-6908000D01*
X12496000Y-6808000D02*
X12396000Y-6908000D01*
X12396000Y-7316000D02*
X12496000Y-7416000D01*
X12496000Y-7316000D02*
X12396000Y-7416000D01*
X12396000Y-7570000D02*
X12496000Y-7670000D01*
X12496000Y-7570000D02*
X12396000Y-7670000D01*
X12396000Y-8078000D02*
X12496000Y-8178000D01*
X12496000Y-8078000D02*
X12396000Y-8178000D01*
X12396000Y-8332000D02*
X12496000Y-8432000D01*
X12496000Y-8332000D02*
X12396000Y-8432000D01*
X12650000Y-4268000D02*
X12750000Y-4368000D01*
X12750000Y-4268000D02*
X12650000Y-4368000D01*
X12650000Y-4522000D02*
X12750000Y-4622000D01*
X12750000Y-4522000D02*
X12650000Y-4622000D01*
X12650000Y-5030000D02*
X12750000Y-5130000D01*
X12750000Y-5030000D02*
X12650000Y-5130000D01*
X12650000Y-5284000D02*
X12750000Y-5384000D01*
X12750000Y-5284000D02*
X12650000Y-5384000D01*
X12650000Y-5792000D02*
X12750000Y-5892000D01*
X12750000Y-5792000D02*
X12650000Y-5892000D01*
X12650000Y-6046000D02*
X12750000Y-6146000D01*
X12750000Y-6046000D02*
X12650000Y-6146000D01*
X12650000Y-6554000D02*
X12750000Y-6654000D01*
X12750000Y-6554000D02*
X12650000Y-6654000D01*
X12650000Y-6808000D02*
X12750000Y-6908000D01*
X12750000Y-6808000D02*
X12650000Y-6908000D01*
X12650000Y-7316000D02*
X12750000Y-7416000D01*
X12750000Y-7316000D02*
X12650000Y-7416000D01*
X12650000Y-7570000D02*
X12750000Y-7670000D01*
X12750000Y-7570000D02*
X12650000Y-7670000D01*
X12650000Y-8078000D02*
X12750000Y-8178000D01*
X12750000Y-8078000D02*
X12650000Y-8178000D01*
X12650000Y-8332000D02*
X12750000Y-8432000D01*
X12750000Y-8332000D02*
X12650000Y-8432000D01*
X12904000Y-4268000D02*
X13004000Y-4368000D01*
X13004000Y-4268000D02*
X12904000Y-4368000D01*
X12904000Y-4522000D02*
X13004000Y-4622000D01*
X13004000Y-4522000D02*
X12904000Y-4622000D01*
X12904000Y-5030000D02*
X13004000Y-5130000D01*
X13004000Y-5030000D02*
X12904000Y-5130000D01*
X12904000Y-5284000D02*
X13004000Y-5384000D01*
X13004000Y-5284000D02*
X12904000Y-5384000D01*
X12904000Y-5792000D02*
X13004000Y-5892000D01*
X13004000Y-5792000D02*
X12904000Y-5892000D01*
X12904000Y-6046000D02*
X13004000Y-6146000D01*
X13004000Y-6046000D02*
X12904000Y-6146000D01*
X12904000Y-6554000D02*
X13004000Y-6654000D01*
X13004000Y-6554000D02*
X12904000Y-6654000D01*
X12904000Y-6808000D02*
X13004000Y-6908000D01*
X13004000Y-6808000D02*
X12904000Y-6908000D01*
X12904000Y-7316000D02*
X13004000Y-7416000D01*
X13004000Y-7316000D02*
X12904000Y-7416000D01*
X12904000Y-7570000D02*
X13004000Y-7670000D01*
X13004000Y-7570000D02*
X12904000Y-7670000D01*
X12904000Y-8078000D02*
X13004000Y-8178000D01*
X13004000Y-8078000D02*
X12904000Y-8178000D01*
X12904000Y-8332000D02*
X13004000Y-8432000D01*
X13004000Y-8332000D02*
X12904000Y-8432000D01*
X13158000Y-4268000D02*
X13258000Y-4368000D01*
X13258000Y-4268000D02*
X13158000Y-4368000D01*
X13158000Y-4522000D02*
X13258000Y-4622000D01*
X13258000Y-4522000D02*
X13158000Y-4622000D01*
X13158000Y-5030000D02*
X13258000Y-5130000D01*
X13258000Y-5030000D02*
X13158000Y-5130000D01*
X13158000Y-5284000D02*
X13258000Y-5384000D01*
X13258000Y-5284000D02*
X13158000Y-5384000D01*
X13158000Y-5792000D02*
X13258000Y-5892000D01*
X13258000Y-5792000D02*
X13158000Y-5892000D01*
X13158000Y-6046000D02*
X13258000Y-6146000D01*
X13258000Y-6046000D02*
X13158000Y-6146000D01*
X13158000Y-6554000D02*
X13258000Y-6654000D01*
X13258000Y-6554000D02*
X13158000Y-6654000D01*
X13158000Y-6808000D02*
X13258000Y-6908000D01*
X13258000Y-6808000D02*
X13158000Y-6908000D01*
X13158000Y-7316000D02*
X13258000Y-7416000D01*
X13258000Y-7316000D02*
X13158000Y-7416000D01*
X13158000Y-7570000D02*
X13258000Y-7670000D01*
X13258000Y-7570000D02*
X13158000Y-7670000D01*
X13158000Y-8078000D02*
X13258000Y-8178000D01*
X13258000Y-8078000D02*
X13158000Y-8178000D01*
X13158000Y-8332000D02*
X13258000Y-8432000D01*
X13258000Y-8332000D02*
X13158000Y-8432000D01*
X13412000Y-4268000D02*
X13512000Y-4368000D01*
X13512000Y-4268000D02*
X13412000Y-4368000D01*
X13412000Y-4522000D02*
X13512000Y-4622000D01*
X13512000Y-4522000D02*
X13412000Y-4622000D01*
X13412000Y-5030000D02*
X13512000Y-5130000D01*
X13512000Y-5030000D02*
X13412000Y-5130000D01*
X13412000Y-5284000D02*
X13512000Y-5384000D01*
X13512000Y-5284000D02*
X13412000Y-5384000D01*
X13412000Y-5792000D02*
X13512000Y-5892000D01*
X13512000Y-5792000D02*
X13412000Y-5892000D01*
X13412000Y-6046000D02*
X13512000Y-6146000D01*
X13512000Y-6046000D02*
X13412000Y-6146000D01*
X13412000Y-6554000D02*
X13512000Y-6654000D01*
X13512000Y-6554000D02*
X13412000Y-6654000D01*
X13412000Y-6808000D02*
X13512000Y-6908000D01*
X13512000Y-6808000D02*
X13412000Y-6908000D01*
X13412000Y-7316000D02*
X13512000Y-7416000D01*
X13512000Y-7316000D02*
X13412000Y-7416000D01*
X13412000Y-7570000D02*
X13512000Y-7670000D01*
X13512000Y-7570000D02*
X13412000Y-7670000D01*
X13412000Y-8078000D02*
X13512000Y-8178000D01*
X13512000Y-8078000D02*
X13412000Y-8178000D01*
X13412000Y-8332000D02*
X13512000Y-8432000D01*
X13512000Y-8332000D02*
X13412000Y-8432000D01*
X13666000Y-4268000D02*
X13766000Y-4368000D01*
X13766000Y-4268000D02*
X13666000Y-4368000D01*
X13666000Y-4522000D02*
X13766000Y-4622000D01*
X13766000Y-4522000D02*
X13666000Y-4622000D01*
X13666000Y-5030000D02*
X13766000Y-5130000D01*
X13766000Y-5030000D02*
X13666000Y-5130000D01*
X13666000Y-5284000D02*
X13766000Y-5384000D01*
X13766000Y-5284000D02*
X13666000Y-5384000D01*
X13666000Y-5792000D02*
X13766000Y-5892000D01*
X13766000Y-5792000D02*
X13666000Y-5892000D01*
X13666000Y-6046000D02*
X13766000Y-6146000D01*
X13766000Y-6046000D02*
X13666000Y-6146000D01*
X13666000Y-6554000D02*
X13766000Y-6654000D01*
X13766000Y-6554000D02*
X13666000Y-6654000D01*
X13666000Y-6808000D02*
X13766000Y-6908000D01*
X13766000Y-6808000D02*
X13666000Y-6908000D01*
X13666000Y-7316000D02*
X13766000Y-7416000D01*
X13766000Y-7316000D02*
X13666000Y-7416000D01*
X13666000Y-7570000D02*
X13766000Y-7670000D01*
X13766000Y-7570000D02*
X13666000Y-7670000D01*
X13666000Y-8078000D02*
X13766000Y-8178000D01*
X13766000Y-8078000D02*
X13666000Y-8178000D01*
X13666000Y-8332000D02*
X13766000Y-8432000D01*
X13766000Y-8332000D02*
X13666000Y-8432000D01*
X13920000Y-4268000D02*
X14020000Y-4368000D01*
X14020000Y-4268000D02*
X13920000Y-4368000D01*
X13920000Y-4522000D02*
X14020000Y-4622000D01*
X14020000Y-4522000D02*
X13920000Y-4622000D01*
X13920000Y-5030000D02*
X14020000Y-5130000D01*
X14020000Y-5030000D02*
X13920000Y-5130000D01*
X13920000Y-5284000D02*
X14020000Y-5384000D01*
X14020000Y-5284000D02*
X13920000Y-5384000D01*
X13920000Y-5792000D02*
X14020000Y-5892000D01*
X14020000Y-5792000D02*
X13920000Y-5892000D01*
X13920000Y-6046000D02*
X14020000Y-6146000D01*
X14020000Y-6046000D02*
X13920000Y-6146000D01*
X13920000Y-6554000D02*
X14020000Y-6654000D01*
X14020000Y-6554000D02*
X13920000Y-6654000D01*
X13920000Y-6808000D02*
X14020000Y-6908000D01*
X14020000Y-6808000D02*
X13920000Y-6908000D01*
X13920000Y-7316000D02*
X14020000Y-7416000D01*
X14020000Y-7316000D02*
X13920000Y-7416000D01*
X13920000Y-7570000D02*
X14020000Y-7670000D01*
X14020000Y-7570000D02*
X13920000Y-7670000D01*
X14174000Y-4268000D02*
X14274000Y-4368000D01*
X14274000Y-4268000D02*
X14174000Y-4368000D01*
X14174000Y-4522000D02*
X14274000Y-4622000D01*
X14274000Y-4522000D02*
X14174000Y-4622000D01*
X14174000Y-5030000D02*
X14274000Y-5130000D01*
X14274000Y-5030000D02*
X14174000Y-5130000D01*
X14174000Y-5284000D02*
X14274000Y-5384000D01*
X14274000Y-5284000D02*
X14174000Y-5384000D01*
X14174000Y-5792000D02*
X14274000Y-5892000D01*
X14274000Y-5792000D02*
X14174000Y-5892000D01*
X14174000Y-6046000D02*
X14274000Y-6146000D01*
X14274000Y-6046000D02*
X14174000Y-6146000D01*
X14174000Y-6554000D02*
X14274000Y-6654000D01*
X14274000Y-6554000D02*
X14174000Y-6654000D01*
X14174000Y-6808000D02*
X14274000Y-6908000D01*
X14274000Y-6808000D02*
X14174000Y-6908000D01*
X14174000Y-7316000D02*
X14274000Y-7416000D01*
X14274000Y-7316000D02*
X14174000Y-7416000D01*
X14174000Y-7570000D02*
X14274000Y-7670000D01*
X14274000Y-7570000D02*
X14174000Y-7670000D01*
X14428000Y-4268000D02*
X14528000Y-4368000D01*
X14528000Y-4268000D02*
X14428000Y-4368000D01*
X14428000Y-4522000D02*
X14528000Y-4622000D01*
X14528000Y-4522000D02*
X14428000Y-4622000D01*
X14428000Y-5030000D02*
X14528000Y-5130000D01*
X14528000Y-5030000D02*
X14428000Y-5130000D01*
X14428000Y-5284000D02*
X14528000Y-5384000D01*
X14528000Y-5284000D02*
X14428000Y-5384000D01*
X14428000Y-5792000D02*
X14528000Y-5892000D01*
X14528000Y-5792000D02*
X14428000Y-5892000D01*
X14428000Y-6046000D02*
X14528000Y-6146000D01*
X14528000Y-6046000D02*
X14428000Y-6146000D01*
X14428000Y-6554000D02*
X14528000Y-6654000D01*
X14528000Y-6554000D02*
X14428000Y-6654000D01*
X14428000Y-6808000D02*
X14528000Y-6908000D01*
X14528000Y-6808000D02*
X14428000Y-6908000D01*
X14428000Y-7316000D02*
X14528000Y-7416000D01*
X14528000Y-7316000D02*
X14428000Y-7416000D01*
X14428000Y-7570000D02*
X14528000Y-7670000D01*
X14528000Y-7570000D02*
X14428000Y-7670000D01*
X14682000Y-4268000D02*
X14782000Y-4368000D01*
X14782000Y-4268000D02*
X14682000Y-4368000D01*
X14682000Y-4522000D02*
X14782000Y-4622000D01*
X14782000Y-4522000D02*
X14682000Y-4622000D01*
X14682000Y-5030000D02*
X14782000Y-5130000D01*
X14782000Y-5030000D02*
X14682000Y-5130000D01*
X14682000Y-5284000D02*
X14782000Y-5384000D01*
X14782000Y-5284000D02*
X14682000Y-5384000D01*
X14682000Y-5792000D02*
X14782000Y-5892000D01*
X14782000Y-5792000D02*
X14682000Y-5892000D01*
X14682000Y-6046000D02*
X14782000Y-6146000D01*
X14782000Y-6046000D02*
X14682000Y-6146000D01*
X14682000Y-6554000D02*
X14782000Y-6654000D01*
X14782000Y-6554000D02*
X14682000Y-6654000D01*
X14682000Y-6808000D02*
X14782000Y-6908000D01*
X14782000Y-6808000D02*
X14682000Y-6908000D01*
X14682000Y-7316000D02*
X14782000Y-7416000D01*
X14782000Y-7316000D02*
X14682000Y-7416000D01*
X14682000Y-7570000D02*
X14782000Y-7670000D01*
X14782000Y-7570000D02*
X14682000Y-7670000D01*
X14682000Y-8078000D02*
X14782000Y-8178000D01*
X14782000Y-8078000D02*
X14682000Y-8178000D01*
X14682000Y-8332000D02*
X14782000Y-8432000D01*
X14782000Y-8332000D02*
X14682000Y-8432000D01*
X14936000Y-4268000D02*
X15036000Y-4368000D01*
X15036000Y-4268000D02*
X14936000Y-4368000D01*
X14936000Y-4522000D02*
X15036000Y-4622000D01*
X15036000Y-4522000D02*
X14936000Y-4622000D01*
X14936000Y-5030000D02*
X15036000Y-5130000D01*
X15036000Y-5030000D02*
X14936000Y-5130000D01*
X14936000Y-5284000D02*
X15036000Y-5384000D01*
X15036000Y-5284000D02*
X14936000Y-5384000D01*
X14936000Y-5792000D02*
X15036000Y-5892000D01*
X15036000Y-5792000D02*
X14936000Y-5892000D01*
X14936000Y-6046000D02*
X15036000Y-6146000D01*
X15036000Y-6046000D02*
X14936000Y-6146000D01*
X14936000Y-6554000D02*
X15036000Y-6654000D01*
X15036000Y-6554000D02*
X14936000Y-6654000D01*
X14936000Y-6808000D02*
X15036000Y-6908000D01*
X15036000Y-6808000D02*
X14936000Y-6908000D01*
X14936000Y-7316000D02*
X15036000Y-7416000D01*
X15036000Y-7316000D02*
X14936000Y-7416000D01*
X14936000Y-7570000D02*
X15036000Y-7670000D01*
X15036000Y-7570000D02*
X14936000Y-7670000D01*
X14936000Y-8078000D02*
X15036000Y-8178000D01*
X15036000Y-8078000D02*
X14936000Y-8178000D01*
X14936000Y-8332000D02*
X15036000Y-8432000D01*
X15036000Y-8332000D02*
X14936000Y-8432000D01*
X15190000Y-4268000D02*
X15290000Y-4368000D01*
X15290000Y-4268000D02*
X15190000Y-4368000D01*
X15190000Y-4522000D02*
X15290000Y-4622000D01*
X15290000Y-4522000D02*
X15190000Y-4622000D01*
X15190000Y-5030000D02*
X15290000Y-5130000D01*
X15290000Y-5030000D02*
X15190000Y-5130000D01*
X15190000Y-5284000D02*
X15290000Y-5384000D01*
X15290000Y-5284000D02*
X15190000Y-5384000D01*
X15190000Y-5792000D02*
X15290000Y-5892000D01*
X15290000Y-5792000D02*
X15190000Y-5892000D01*
X15190000Y-6046000D02*
X15290000Y-6146000D01*
X15290000Y-6046000D02*
X15190000Y-6146000D01*
X15190000Y-6554000D02*
X15290000Y-6654000D01*
X15290000Y-6554000D02*
X15190000Y-6654000D01*
X15190000Y-6808000D02*
X15290000Y-6908000D01*
X15290000Y-6808000D02*
X15190000Y-6908000D01*
X15190000Y-7316000D02*
X15290000Y-7416000D01*
X15290000Y-7316000D02*
X15190000Y-7416000D01*
X15190000Y-7570000D02*
X15290000Y-7670000D01*
X15290000Y-7570000D02*
X15190000Y-7670000D01*
X15190000Y-8078000D02*
X15290000Y-8178000D01*
X15290000Y-8078000D02*
X15190000Y-8178000D01*
X15190000Y-8332000D02*
X15290000Y-8432000D01*
X15290000Y-8332000D02*
X15190000Y-8432000D01*
X15444000Y-4268000D02*
X15544000Y-4368000D01*
X15544000Y-4268000D02*
X15444000Y-4368000D01*
X15444000Y-4522000D02*
X15544000Y-4622000D01*
X15544000Y-4522000D02*
X15444000Y-4622000D01*
X15444000Y-5030000D02*
X15544000Y-5130000D01*
X15544000Y-5030000D02*
X15444000Y-5130000D01*
X15444000Y-5284000D02*
X15544000Y-5384000D01*
X15544000Y-5284000D02*
X15444000Y-5384000D01*
X15444000Y-6554000D02*
X15544000Y-6654000D01*
X15544000Y-6554000D02*
X15444000Y-6654000D01*
X15444000Y-6808000D02*
X15544000Y-6908000D01*
X15544000Y-6808000D02*
X15444000Y-6908000D01*
X15444000Y-7316000D02*
X15544000Y-7416000D01*
X15544000Y-7316000D02*
X15444000Y-7416000D01*
X15444000Y-7570000D02*
X15544000Y-7670000D01*
X15544000Y-7570000D02*
X15444000Y-7670000D01*
X15444000Y-8078000D02*
X15544000Y-8178000D01*
X15544000Y-8078000D02*
X15444000Y-8178000D01*
X15444000Y-8332000D02*
X15544000Y-8432000D01*
X15544000Y-8332000D02*
X15444000Y-8432000D01*
X15698000Y-4268000D02*
X15798000Y-4368000D01*
X15798000Y-4268000D02*
X15698000Y-4368000D01*
X15698000Y-4522000D02*
X15798000Y-4622000D01*
X15798000Y-4522000D02*
X15698000Y-4622000D01*
X15698000Y-5030000D02*
X15798000Y-5130000D01*
X15798000Y-5030000D02*
X15698000Y-5130000D01*
X15698000Y-5284000D02*
X15798000Y-5384000D01*
X15798000Y-5284000D02*
X15698000Y-5384000D01*
X15698000Y-6554000D02*
X15798000Y-6654000D01*
X15798000Y-6554000D02*
X15698000Y-6654000D01*
X15698000Y-6808000D02*
X15798000Y-6908000D01*
X15798000Y-6808000D02*
X15698000Y-6908000D01*
X15698000Y-7316000D02*
X15798000Y-7416000D01*
X15798000Y-7316000D02*
X15698000Y-7416000D01*
X15698000Y-7570000D02*
X15798000Y-7670000D01*
X15798000Y-7570000D02*
X15698000Y-7670000D01*
X15698000Y-8078000D02*
X15798000Y-8178000D01*
X15798000Y-8078000D02*
X15698000Y-8178000D01*
X15698000Y-8332000D02*
X15798000Y-8432000D01*
X15798000Y-8332000D02*
X15698000Y-8432000D01*
X15952000Y-4268000D02*
X16052000Y-4368000D01*
X16052000Y-4268000D02*
X15952000Y-4368000D01*
X15952000Y-4522000D02*
X16052000Y-4622000D01*
X16052000Y-4522000D02*
X15952000Y-4622000D01*
X15952000Y-5030000D02*
X16052000Y-5130000D01*
X16052000Y-5030000D02*
X15952000Y-5130000D01*
X15952000Y-5284000D02*
X16052000Y-5384000D01*
X16052000Y-5284000D02*
X15952000Y-5384000D01*
X15952000Y-6554000D02*
X16052000Y-6654000D01*
X16052000Y-6554000D02*
X15952000Y-6654000D01*
X15952000Y-6808000D02*
X16052000Y-6908000D01*
X16052000Y-6808000D02*
X15952000Y-6908000D01*
X15952000Y-7316000D02*
X16052000Y-7416000D01*
X16052000Y-7316000D02*
X15952000Y-7416000D01*
X15952000Y-7570000D02*
X16052000Y-7670000D01*
X16052000Y-7570000D02*
X15952000Y-7670000D01*
X15952000Y-8078000D02*
X16052000Y-8178000D01*
X16052000Y-8078000D02*
X15952000Y-8178000D01*
X15952000Y-8332000D02*
X16052000Y-8432000D01*
X16052000Y-8332000D02*
X15952000Y-8432000D01*
X16206000Y-4268000D02*
X16306000Y-4368000D01*
X16306000Y-4268000D02*
X16206000Y-4368000D01*
X16206000Y-4522000D02*
X16306000Y-4622000D01*
X16306000Y-4522000D02*
X16206000Y-4622000D01*
X16206000Y-5030000D02*
X16306000Y-5130000D01*
X16306000Y-5030000D02*
X16206000Y-5130000D01*
X16206000Y-5284000D02*
X16306000Y-5384000D01*
X16306000Y-5284000D02*
X16206000Y-5384000D01*
X16206000Y-6554000D02*
X16306000Y-6654000D01*
X16306000Y-6554000D02*
X16206000Y-6654000D01*
X16206000Y-6808000D02*
X16306000Y-6908000D01*
X16306000Y-6808000D02*
X16206000Y-6908000D01*
X16206000Y-7316000D02*
X16306000Y-7416000D01*
X16306000Y-7316000D02*
X16206000Y-7416000D01*
X16206000Y-7570000D02*
X16306000Y-7670000D01*
X16306000Y-7570000D02*
X16206000Y-7670000D01*
D11*
X11301619Y-9713476D02*
X11301619Y-9513476D01*
X11349238Y-9513476D01*
X11377809Y-9523000D01*
X11396857Y-9542048D01*
X11406381Y-9561095D01*
X11415905Y-9599190D01*
X11415905Y-9627762D01*
X11406381Y-9665857D01*
X11396857Y-9684905D01*
X11377809Y-9703952D01*
X11349238Y-9713476D01*
X11301619Y-9713476D01*
X11501619Y-9713476D02*
X11501619Y-9580143D01*
X11501619Y-9618238D02*
X11511143Y-9599190D01*
X11520667Y-9589667D01*
X11539714Y-9580143D01*
X11558762Y-9580143D01*
X11625428Y-9713476D02*
X11625428Y-9580143D01*
X11625428Y-9513476D02*
X11615905Y-9523000D01*
X11625428Y-9532524D01*
X11634952Y-9523000D01*
X11625428Y-9513476D01*
X11625428Y-9532524D01*
X11749238Y-9713476D02*
X11730190Y-9703952D01*
X11720667Y-9684905D01*
X11720667Y-9513476D01*
X11854000Y-9713476D02*
X11834952Y-9703952D01*
X11825428Y-9684905D01*
X11825428Y-9513476D01*
X12082571Y-9713476D02*
X12082571Y-9513476D01*
X12149238Y-9656333D01*
X12215905Y-9513476D01*
X12215905Y-9713476D01*
X12396857Y-9713476D02*
X12396857Y-9608714D01*
X12387333Y-9589667D01*
X12368286Y-9580143D01*
X12330190Y-9580143D01*
X12311143Y-9589667D01*
X12396857Y-9703952D02*
X12377809Y-9713476D01*
X12330190Y-9713476D01*
X12311143Y-9703952D01*
X12301619Y-9684905D01*
X12301619Y-9665857D01*
X12311143Y-9646810D01*
X12330190Y-9637286D01*
X12377809Y-9637286D01*
X12396857Y-9627762D01*
X12492095Y-9580143D02*
X12492095Y-9780143D01*
X12492095Y-9589667D02*
X12511143Y-9580143D01*
X12549238Y-9580143D01*
X12568286Y-9589667D01*
X12577809Y-9599190D01*
X12587333Y-9618238D01*
X12587333Y-9675381D01*
X12577809Y-9694429D01*
X12568286Y-9703952D01*
X12549238Y-9713476D01*
X12511143Y-9713476D01*
X12492095Y-9703952D01*
X12673048Y-9694429D02*
X12682571Y-9703952D01*
X12673048Y-9713476D01*
X12663524Y-9703952D01*
X12673048Y-9694429D01*
X12673048Y-9713476D01*
X12673048Y-9589667D02*
X12682571Y-9599190D01*
X12673048Y-9608714D01*
X12663524Y-9599190D01*
X12673048Y-9589667D01*
X12673048Y-9608714D01*
D10*
X10944000Y-9993000D02*
X11044000Y-10093000D01*
X11044000Y-9993000D02*
X10944000Y-10093000D01*
D11*
X11406381Y-10133476D02*
X11292095Y-10133476D01*
X11349238Y-10133476D02*
X11349238Y-9933476D01*
X11330190Y-9962048D01*
X11311143Y-9981095D01*
X11292095Y-9990619D01*
X11492095Y-10114429D02*
X11501619Y-10123952D01*
X11492095Y-10133476D01*
X11482571Y-10123952D01*
X11492095Y-10114429D01*
X11492095Y-10133476D01*
X11625428Y-9933476D02*
X11644476Y-9933476D01*
X11663524Y-9943000D01*
X11673048Y-9952524D01*
X11682571Y-9971571D01*
X11692095Y-10009667D01*
X11692095Y-10057286D01*
X11682571Y-10095381D01*
X11673048Y-10114429D01*
X11663524Y-10123952D01*
X11644476Y-10133476D01*
X11625428Y-10133476D01*
X11606381Y-10123952D01*
X11596857Y-10114429D01*
X11587333Y-10095381D01*
X11577809Y-10057286D01*
X11577809Y-10009667D01*
X11587333Y-9971571D01*
X11596857Y-9952524D01*
X11606381Y-9943000D01*
X11625428Y-9933476D01*
X11815905Y-9933476D02*
X11834952Y-9933476D01*
X11854000Y-9943000D01*
X11863524Y-9952524D01*
X11873048Y-9971571D01*
X11882571Y-10009667D01*
X11882571Y-10057286D01*
X11873048Y-10095381D01*
X11863524Y-10114429D01*
X11854000Y-10123952D01*
X11834952Y-10133476D01*
X11815905Y-10133476D01*
X11796857Y-10123952D01*
X11787333Y-10114429D01*
X11777809Y-10095381D01*
X11768286Y-10057286D01*
X11768286Y-10009667D01*
X11777809Y-9971571D01*
X11787333Y-9952524D01*
X11796857Y-9943000D01*
X11815905Y-9933476D01*
X12006381Y-9933476D02*
X12025428Y-9933476D01*
X12044476Y-9943000D01*
X12054000Y-9952524D01*
X12063524Y-9971571D01*
X12073048Y-10009667D01*
X12073048Y-10057286D01*
X12063524Y-10095381D01*
X12054000Y-10114429D01*
X12044476Y-10123952D01*
X12025428Y-10133476D01*
X12006381Y-10133476D01*
X11987333Y-10123952D01*
X11977809Y-10114429D01*
X11968286Y-10095381D01*
X11958762Y-10057286D01*
X11958762Y-10009667D01*
X11968286Y-9971571D01*
X11977809Y-9952524D01*
X11987333Y-9943000D01*
X12006381Y-9933476D01*
X12158762Y-10133476D02*
X12158762Y-10000143D01*
X12158762Y-10019190D02*
X12168286Y-10009667D01*
X12187333Y-10000143D01*
X12215905Y-10000143D01*
X12234952Y-10009667D01*
X12244476Y-10028714D01*
X12244476Y-10133476D01*
X12244476Y-10028714D02*
X12254000Y-10009667D01*
X12273048Y-10000143D01*
X12301619Y-10000143D01*
X12320667Y-10009667D01*
X12330190Y-10028714D01*
X12330190Y-10133476D01*
X12425428Y-10133476D02*
X12425428Y-10000143D01*
X12425428Y-10019190D02*
X12434952Y-10009667D01*
X12454000Y-10000143D01*
X12482571Y-10000143D01*
X12501619Y-10009667D01*
X12511143Y-10028714D01*
X12511143Y-10133476D01*
X12511143Y-10028714D02*
X12520667Y-10009667D01*
X12539714Y-10000143D01*
X12568286Y-10000143D01*
X12587333Y-10009667D01*
X12596857Y-10028714D01*
X12596857Y-10133476D01*
X12987333Y-9923952D02*
X12815905Y-10181095D01*
X13244476Y-9933476D02*
X13263524Y-9933476D01*
X13282571Y-9943000D01*
X13292095Y-9952524D01*
X13301619Y-9971571D01*
X13311143Y-10009667D01*
X13311143Y-10057286D01*
X13301619Y-10095381D01*
X13292095Y-10114429D01*
X13282571Y-10123952D01*
X13263524Y-10133476D01*
X13244476Y-10133476D01*
X13225428Y-10123952D01*
X13215905Y-10114429D01*
X13206381Y-10095381D01*
X13196857Y-10057286D01*
X13196857Y-10009667D01*
X13206381Y-9971571D01*
X13215905Y-9952524D01*
X13225428Y-9943000D01*
X13244476Y-9933476D01*
X13396857Y-10114429D02*
X13406381Y-10123952D01*
X13396857Y-10133476D01*
X13387333Y-10123952D01*
X13396857Y-10114429D01*
X13396857Y-10133476D01*
X13530190Y-9933476D02*
X13549238Y-9933476D01*
X13568286Y-9943000D01*
X13577809Y-9952524D01*
X13587333Y-9971571D01*
X13596857Y-10009667D01*
X13596857Y-10057286D01*
X13587333Y-10095381D01*
X13577809Y-10114429D01*
X13568286Y-10123952D01*
X13549238Y-10133476D01*
X13530190Y-10133476D01*
X13511143Y-10123952D01*
X13501619Y-10114429D01*
X13492095Y-10095381D01*
X13482571Y-10057286D01*
X13482571Y-10009667D01*
X13492095Y-9971571D01*
X13501619Y-9952524D01*
X13511143Y-9943000D01*
X13530190Y-9933476D01*
X13663524Y-9933476D02*
X13787333Y-9933476D01*
X13720667Y-10009667D01*
X13749238Y-10009667D01*
X13768286Y-10019190D01*
X13777809Y-10028714D01*
X13787333Y-10047762D01*
X13787333Y-10095381D01*
X13777809Y-10114429D01*
X13768286Y-10123952D01*
X13749238Y-10133476D01*
X13692095Y-10133476D01*
X13673048Y-10123952D01*
X13663524Y-10114429D01*
X13882571Y-10133476D02*
X13920667Y-10133476D01*
X13939714Y-10123952D01*
X13949238Y-10114429D01*
X13968286Y-10085857D01*
X13977809Y-10047762D01*
X13977809Y-9971571D01*
X13968286Y-9952524D01*
X13958762Y-9943000D01*
X13939714Y-9933476D01*
X13901619Y-9933476D01*
X13882571Y-9943000D01*
X13873048Y-9952524D01*
X13863524Y-9971571D01*
X13863524Y-10019190D01*
X13873048Y-10038238D01*
X13882571Y-10047762D01*
X13901619Y-10057286D01*
X13939714Y-10057286D01*
X13958762Y-10047762D01*
X13968286Y-10038238D01*
X13977809Y-10019190D01*
X14149238Y-10000143D02*
X14149238Y-10133476D01*
X14101619Y-9923952D02*
X14054000Y-10066810D01*
X14177809Y-10066810D01*
X14244476Y-9933476D02*
X14244476Y-9971571D01*
X14320667Y-9933476D02*
X14320667Y-9971571D01*
X14615905Y-10209667D02*
X14606381Y-10200143D01*
X14587333Y-10171571D01*
X14577809Y-10152524D01*
X14568286Y-10123952D01*
X14558762Y-10076333D01*
X14558762Y-10038238D01*
X14568286Y-9990619D01*
X14577809Y-9962048D01*
X14587333Y-9943000D01*
X14606381Y-9914429D01*
X14615905Y-9904905D01*
X14682571Y-9952524D02*
X14692095Y-9943000D01*
X14711143Y-9933476D01*
X14758762Y-9933476D01*
X14777809Y-9943000D01*
X14787333Y-9952524D01*
X14796857Y-9971571D01*
X14796857Y-9990619D01*
X14787333Y-10019190D01*
X14673048Y-10133476D01*
X14796857Y-10133476D01*
X14987333Y-10133476D02*
X14873048Y-10133476D01*
X14930190Y-10133476D02*
X14930190Y-9933476D01*
X14911143Y-9962048D01*
X14892095Y-9981095D01*
X14873048Y-9990619D01*
X15063524Y-9952524D02*
X15073048Y-9943000D01*
X15092095Y-9933476D01*
X15139714Y-9933476D01*
X15158762Y-9943000D01*
X15168286Y-9952524D01*
X15177809Y-9971571D01*
X15177809Y-9990619D01*
X15168286Y-10019190D01*
X15054000Y-10133476D01*
X15177809Y-10133476D01*
X15415905Y-10133476D02*
X15415905Y-9933476D01*
X15501619Y-10133476D02*
X15501619Y-10028714D01*
X15492095Y-10009667D01*
X15473048Y-10000143D01*
X15444476Y-10000143D01*
X15425428Y-10009667D01*
X15415905Y-10019190D01*
X15625428Y-10133476D02*
X15606381Y-10123952D01*
X15596857Y-10114429D01*
X15587333Y-10095381D01*
X15587333Y-10038238D01*
X15596857Y-10019190D01*
X15606381Y-10009667D01*
X15625428Y-10000143D01*
X15654000Y-10000143D01*
X15673048Y-10009667D01*
X15682571Y-10019190D01*
X15692095Y-10038238D01*
X15692095Y-10095381D01*
X15682571Y-10114429D01*
X15673048Y-10123952D01*
X15654000Y-10133476D01*
X15625428Y-10133476D01*
X15806381Y-10133476D02*
X15787333Y-10123952D01*
X15777809Y-10104905D01*
X15777809Y-9933476D01*
X15958762Y-10123952D02*
X15939714Y-10133476D01*
X15901619Y-10133476D01*
X15882571Y-10123952D01*
X15873048Y-10104905D01*
X15873048Y-10028714D01*
X15882571Y-10009667D01*
X15901619Y-10000143D01*
X15939714Y-10000143D01*
X15958762Y-10009667D01*
X15968286Y-10028714D01*
X15968286Y-10047762D01*
X15873048Y-10066810D01*
X16044476Y-10123952D02*
X16063524Y-10133476D01*
X16101619Y-10133476D01*
X16120667Y-10123952D01*
X16130190Y-10104905D01*
X16130190Y-10095381D01*
X16120667Y-10076333D01*
X16101619Y-10066810D01*
X16073048Y-10066810D01*
X16054000Y-10057286D01*
X16044476Y-10038238D01*
X16044476Y-10028714D01*
X16054000Y-10009667D01*
X16073048Y-10000143D01*
X16101619Y-10000143D01*
X16120667Y-10009667D01*
X16196857Y-10209667D02*
X16206381Y-10200143D01*
X16225428Y-10171571D01*
X16234952Y-10152524D01*
X16244476Y-10123952D01*
X16254000Y-10076333D01*
X16254000Y-10038238D01*
X16244476Y-9990619D01*
X16234952Y-9962048D01*
X16225428Y-9943000D01*
X16206381Y-9914429D01*
X16196857Y-9904905D01*
M02*
