M48
; DRILL file {KiCad 6.0.9-8da3e8f707~116~ubuntu20.04.1} date pon 12 dec 2022 12:35:40
; FORMAT={-:-/ absolute / metric / decimal}
; #@! TF.CreationDate,2022-12-12T12:35:40+01:00
; #@! TF.GenerationSoftware,Kicad,Pcbnew,6.0.9-8da3e8f707~116~ubuntu20.04.1
; #@! TF.FileFunction,Plated,1,2,PTH
FMAT,2
METRIC
; #@! TA.AperFunction,Plated,PTH,ComponentDrill
T1C1.000
%
G90
G05
T1
X114.3Y-43.18
X114.3Y-45.72
X114.3Y-50.8
X114.3Y-53.34
X114.3Y-58.42
X114.3Y-60.96
X116.84Y-43.18
X116.84Y-45.72
X116.84Y-50.8
X116.84Y-53.34
X116.84Y-58.42
X116.84Y-60.96
X116.84Y-81.28
X116.84Y-83.82
X119.38Y-43.18
X119.38Y-45.72
X119.38Y-50.8
X119.38Y-53.34
X119.38Y-58.42
X119.38Y-60.96
X119.38Y-73.66
X119.38Y-76.2
X119.38Y-81.28
X119.38Y-83.82
X121.92Y-43.18
X121.92Y-45.72
X121.92Y-50.8
X121.92Y-53.34
X121.92Y-58.42
X121.92Y-60.96
X121.92Y-66.04
X121.92Y-68.58
X121.92Y-73.66
X121.92Y-76.2
X121.92Y-81.28
X121.92Y-83.82
X124.46Y-43.18
X124.46Y-45.72
X124.46Y-50.8
X124.46Y-53.34
X124.46Y-58.42
X124.46Y-60.96
X124.46Y-66.04
X124.46Y-68.58
X124.46Y-73.66
X124.46Y-76.2
X124.46Y-81.28
X124.46Y-83.82
X127.0Y-43.18
X127.0Y-45.72
X127.0Y-50.8
X127.0Y-53.34
X127.0Y-58.42
X127.0Y-60.96
X127.0Y-66.04
X127.0Y-68.58
X127.0Y-73.66
X127.0Y-76.2
X127.0Y-81.28
X127.0Y-83.82
X129.54Y-43.18
X129.54Y-45.72
X129.54Y-50.8
X129.54Y-53.34
X129.54Y-58.42
X129.54Y-60.96
X129.54Y-66.04
X129.54Y-68.58
X129.54Y-73.66
X129.54Y-76.2
X129.54Y-81.28
X129.54Y-83.82
X132.08Y-43.18
X132.08Y-45.72
X132.08Y-50.8
X132.08Y-53.34
X132.08Y-58.42
X132.08Y-60.96
X132.08Y-66.04
X132.08Y-68.58
X132.08Y-73.66
X132.08Y-76.2
X132.08Y-81.28
X132.08Y-83.82
X134.62Y-43.18
X134.62Y-45.72
X134.62Y-50.8
X134.62Y-53.34
X134.62Y-58.42
X134.62Y-60.96
X134.62Y-66.04
X134.62Y-68.58
X134.62Y-73.66
X134.62Y-76.2
X134.62Y-81.28
X134.62Y-83.82
X137.16Y-43.18
X137.16Y-45.72
X137.16Y-50.8
X137.16Y-53.34
X137.16Y-58.42
X137.16Y-60.96
X137.16Y-66.04
X137.16Y-68.58
X137.16Y-73.66
X137.16Y-76.2
X137.16Y-81.28
X137.16Y-83.82
X139.7Y-43.18
X139.7Y-45.72
X139.7Y-50.8
X139.7Y-53.34
X139.7Y-58.42
X139.7Y-60.96
X139.7Y-66.04
X139.7Y-68.58
X139.7Y-73.66
X139.7Y-76.2
X142.24Y-43.18
X142.24Y-45.72
X142.24Y-50.8
X142.24Y-53.34
X142.24Y-58.42
X142.24Y-60.96
X142.24Y-66.04
X142.24Y-68.58
X142.24Y-73.66
X142.24Y-76.2
X144.78Y-43.18
X144.78Y-45.72
X144.78Y-50.8
X144.78Y-53.34
X144.78Y-58.42
X144.78Y-60.96
X144.78Y-66.04
X144.78Y-68.58
X144.78Y-73.66
X144.78Y-76.2
X147.32Y-43.18
X147.32Y-45.72
X147.32Y-50.8
X147.32Y-53.34
X147.32Y-58.42
X147.32Y-60.96
X147.32Y-66.04
X147.32Y-68.58
X147.32Y-73.66
X147.32Y-76.2
X147.32Y-81.28
X147.32Y-83.82
X149.86Y-43.18
X149.86Y-45.72
X149.86Y-50.8
X149.86Y-53.34
X149.86Y-58.42
X149.86Y-60.96
X149.86Y-66.04
X149.86Y-68.58
X149.86Y-73.66
X149.86Y-76.2
X149.86Y-81.28
X149.86Y-83.82
X152.4Y-43.18
X152.4Y-45.72
X152.4Y-50.8
X152.4Y-53.34
X152.4Y-58.42
X152.4Y-60.96
X152.4Y-66.04
X152.4Y-68.58
X152.4Y-73.66
X152.4Y-76.2
X152.4Y-81.28
X152.4Y-83.82
X154.94Y-43.18
X154.94Y-45.72
X154.94Y-50.8
X154.94Y-53.34
X154.94Y-66.04
X154.94Y-68.58
X154.94Y-73.66
X154.94Y-76.2
X154.94Y-81.28
X154.94Y-83.82
X157.48Y-43.18
X157.48Y-45.72
X157.48Y-50.8
X157.48Y-53.34
X157.48Y-66.04
X157.48Y-68.58
X157.48Y-73.66
X157.48Y-76.2
X157.48Y-81.28
X157.48Y-83.82
X160.02Y-43.18
X160.02Y-45.72
X160.02Y-50.8
X160.02Y-53.34
X160.02Y-66.04
X160.02Y-68.58
X160.02Y-73.66
X160.02Y-76.2
X160.02Y-81.28
X160.02Y-83.82
X162.56Y-43.18
X162.56Y-45.72
X162.56Y-50.8
X162.56Y-53.34
X162.56Y-66.04
X162.56Y-68.58
X162.56Y-73.66
X162.56Y-76.2
T0
M30
