G04 #@! TF.GenerationSoftware,KiCad,Pcbnew,6.0.9-8da3e8f707~116~ubuntu20.04.1*
G04 #@! TF.CreationDate,2022-12-14T15:49:57+01:00*
G04 #@! TF.ProjectId,z_adaptor,7a5f6164-6170-4746-9f72-2e6b69636164,rev?*
G04 #@! TF.SameCoordinates,Original*
G04 #@! TF.FileFunction,Legend,Top*
G04 #@! TF.FilePolarity,Positive*
%FSLAX46Y46*%
G04 Gerber Fmt 4.6, Leading zero omitted, Abs format (unit mm)*
G04 Created by KiCad (PCBNEW 6.0.9-8da3e8f707~116~ubuntu20.04.1) date 2022-12-14 15:49:57*
%MOMM*%
%LPD*%
G01*
G04 APERTURE LIST*
G04 Aperture macros list*
%AMRoundRect*
0 Rectangle with rounded corners*
0 $1 Rounding radius*
0 $2 $3 $4 $5 $6 $7 $8 $9 X,Y pos of 4 corners*
0 Add a 4 corners polygon primitive as box body*
4,1,4,$2,$3,$4,$5,$6,$7,$8,$9,$2,$3,0*
0 Add four circle primitives for the rounded corners*
1,1,$1+$1,$2,$3*
1,1,$1+$1,$4,$5*
1,1,$1+$1,$6,$7*
1,1,$1+$1,$8,$9*
0 Add four rect primitives between the rounded corners*
20,1,$1+$1,$2,$3,$4,$5,0*
20,1,$1+$1,$4,$5,$6,$7,0*
20,1,$1+$1,$6,$7,$8,$9,0*
20,1,$1+$1,$8,$9,$2,$3,0*%
G04 Aperture macros list end*
%ADD10C,0.150000*%
%ADD11C,0.120000*%
%ADD12RoundRect,0.237500X0.237500X-0.300000X0.237500X0.300000X-0.237500X0.300000X-0.237500X-0.300000X0*%
%ADD13R,1.700000X1.700000*%
%ADD14O,1.700000X1.700000*%
%ADD15RoundRect,0.237500X-0.300000X-0.237500X0.300000X-0.237500X0.300000X0.237500X-0.300000X0.237500X0*%
%ADD16C,2.500000*%
%ADD17RoundRect,0.237500X0.300000X0.237500X-0.300000X0.237500X-0.300000X-0.237500X0.300000X-0.237500X0*%
%ADD18RoundRect,0.237500X-0.237500X0.300000X-0.237500X-0.300000X0.237500X-0.300000X0.237500X0.300000X0*%
G04 APERTURE END LIST*
D10*
X113046285Y-67560000D02*
X113760571Y-67560000D01*
X112903428Y-67988571D02*
X113403428Y-66488571D01*
X113903428Y-67988571D01*
X114403428Y-67988571D02*
X114403428Y-66488571D01*
X114760571Y-66488571D01*
X114974857Y-66560000D01*
X115117714Y-66702857D01*
X115189142Y-66845714D01*
X115260571Y-67131428D01*
X115260571Y-67345714D01*
X115189142Y-67631428D01*
X115117714Y-67774285D01*
X114974857Y-67917142D01*
X114760571Y-67988571D01*
X114403428Y-67988571D01*
X116974857Y-66417142D02*
X115689142Y-68345714D01*
X117474857Y-67988571D02*
X117474857Y-66488571D01*
X117832000Y-66488571D01*
X118046285Y-66560000D01*
X118189142Y-66702857D01*
X118260571Y-66845714D01*
X118332000Y-67131428D01*
X118332000Y-67345714D01*
X118260571Y-67631428D01*
X118189142Y-67774285D01*
X118046285Y-67917142D01*
X117832000Y-67988571D01*
X117474857Y-67988571D01*
X118903428Y-67560000D02*
X119617714Y-67560000D01*
X118760571Y-67988571D02*
X119260571Y-66488571D01*
X119760571Y-67988571D01*
X117165523Y-48618000D02*
X117165523Y-49184666D01*
X117117904Y-49251333D01*
X117070285Y-49284666D01*
X116975047Y-49318000D01*
X116832190Y-49318000D01*
X116736952Y-49284666D01*
X117165523Y-49051333D02*
X117070285Y-49084666D01*
X116879809Y-49084666D01*
X116784571Y-49051333D01*
X116736952Y-49018000D01*
X116689333Y-48951333D01*
X116689333Y-48751333D01*
X116736952Y-48684666D01*
X116784571Y-48651333D01*
X116879809Y-48618000D01*
X117070285Y-48618000D01*
X117165523Y-48651333D01*
X117641714Y-48618000D02*
X117641714Y-49084666D01*
X117641714Y-48684666D02*
X117689333Y-48651333D01*
X117784571Y-48618000D01*
X117927428Y-48618000D01*
X118022666Y-48651333D01*
X118070285Y-48718000D01*
X118070285Y-49084666D01*
X118975047Y-49084666D02*
X118975047Y-48384666D01*
X118975047Y-49051333D02*
X118879809Y-49084666D01*
X118689333Y-49084666D01*
X118594095Y-49051333D01*
X118546476Y-49018000D01*
X118498857Y-48951333D01*
X118498857Y-48751333D01*
X118546476Y-48684666D01*
X118594095Y-48651333D01*
X118689333Y-48618000D01*
X118879809Y-48618000D01*
X118975047Y-48651333D01*
X126309523Y-78082000D02*
X126309523Y-78648666D01*
X126261904Y-78715333D01*
X126214285Y-78748666D01*
X126119047Y-78782000D01*
X125976190Y-78782000D01*
X125880952Y-78748666D01*
X126309523Y-78515333D02*
X126214285Y-78548666D01*
X126023809Y-78548666D01*
X125928571Y-78515333D01*
X125880952Y-78482000D01*
X125833333Y-78415333D01*
X125833333Y-78215333D01*
X125880952Y-78148666D01*
X125928571Y-78115333D01*
X126023809Y-78082000D01*
X126214285Y-78082000D01*
X126309523Y-78115333D01*
X126785714Y-78082000D02*
X126785714Y-78548666D01*
X126785714Y-78148666D02*
X126833333Y-78115333D01*
X126928571Y-78082000D01*
X127071428Y-78082000D01*
X127166666Y-78115333D01*
X127214285Y-78182000D01*
X127214285Y-78548666D01*
X128119047Y-78548666D02*
X128119047Y-77848666D01*
X128119047Y-78515333D02*
X128023809Y-78548666D01*
X127833333Y-78548666D01*
X127738095Y-78515333D01*
X127690476Y-78482000D01*
X127642857Y-78415333D01*
X127642857Y-78215333D01*
X127690476Y-78148666D01*
X127738095Y-78115333D01*
X127833333Y-78082000D01*
X128023809Y-78082000D01*
X128119047Y-78115333D01*
X150225285Y-71805000D02*
X150987190Y-71805000D01*
X150606238Y-72071666D02*
X150606238Y-71538333D01*
X151939571Y-71371666D02*
X151463380Y-71371666D01*
X151415761Y-71705000D01*
X151463380Y-71671666D01*
X151558619Y-71638333D01*
X151796714Y-71638333D01*
X151891952Y-71671666D01*
X151939571Y-71705000D01*
X151987190Y-71771666D01*
X151987190Y-71938333D01*
X151939571Y-72005000D01*
X151891952Y-72038333D01*
X151796714Y-72071666D01*
X151558619Y-72071666D01*
X151463380Y-72038333D01*
X151415761Y-72005000D01*
X152272904Y-71371666D02*
X152606238Y-72071666D01*
X152939571Y-71371666D01*
X113784285Y-75608571D02*
X113784285Y-74108571D01*
X114141428Y-74108571D01*
X114355714Y-74180000D01*
X114498571Y-74322857D01*
X114570000Y-74465714D01*
X114641428Y-74751428D01*
X114641428Y-74965714D01*
X114570000Y-75251428D01*
X114498571Y-75394285D01*
X114355714Y-75537142D01*
X114141428Y-75608571D01*
X113784285Y-75608571D01*
X115212857Y-75180000D02*
X115927142Y-75180000D01*
X115070000Y-75608571D02*
X115570000Y-74108571D01*
X116070000Y-75608571D01*
X117427142Y-75465714D02*
X117355714Y-75537142D01*
X117141428Y-75608571D01*
X116998571Y-75608571D01*
X116784285Y-75537142D01*
X116641428Y-75394285D01*
X116570000Y-75251428D01*
X116498571Y-74965714D01*
X116498571Y-74751428D01*
X116570000Y-74465714D01*
X116641428Y-74322857D01*
X116784285Y-74180000D01*
X116998571Y-74108571D01*
X117141428Y-74108571D01*
X117355714Y-74180000D01*
X117427142Y-74251428D01*
X117165523Y-56238000D02*
X117165523Y-56804666D01*
X117117904Y-56871333D01*
X117070285Y-56904666D01*
X116975047Y-56938000D01*
X116832190Y-56938000D01*
X116736952Y-56904666D01*
X117165523Y-56671333D02*
X117070285Y-56704666D01*
X116879809Y-56704666D01*
X116784571Y-56671333D01*
X116736952Y-56638000D01*
X116689333Y-56571333D01*
X116689333Y-56371333D01*
X116736952Y-56304666D01*
X116784571Y-56271333D01*
X116879809Y-56238000D01*
X117070285Y-56238000D01*
X117165523Y-56271333D01*
X117641714Y-56238000D02*
X117641714Y-56704666D01*
X117641714Y-56304666D02*
X117689333Y-56271333D01*
X117784571Y-56238000D01*
X117927428Y-56238000D01*
X118022666Y-56271333D01*
X118070285Y-56338000D01*
X118070285Y-56704666D01*
X118975047Y-56704666D02*
X118975047Y-56004666D01*
X118975047Y-56671333D02*
X118879809Y-56704666D01*
X118689333Y-56704666D01*
X118594095Y-56671333D01*
X118546476Y-56638000D01*
X118498857Y-56571333D01*
X118498857Y-56371333D01*
X118546476Y-56304666D01*
X118594095Y-56271333D01*
X118689333Y-56238000D01*
X118879809Y-56238000D01*
X118975047Y-56271333D01*
X112339428Y-53450904D02*
X112339428Y-52689000D01*
X112720380Y-53069952D02*
X111958476Y-53069952D01*
X111720380Y-52308047D02*
X111720380Y-51689000D01*
X112101333Y-52022333D01*
X112101333Y-51879476D01*
X112148952Y-51784238D01*
X112196571Y-51736619D01*
X112291809Y-51689000D01*
X112529904Y-51689000D01*
X112625142Y-51736619D01*
X112672761Y-51784238D01*
X112720380Y-51879476D01*
X112720380Y-52165190D01*
X112672761Y-52260428D01*
X112625142Y-52308047D01*
X111720380Y-51403285D02*
X112720380Y-51069952D01*
X111720380Y-50736619D01*
X111720380Y-50498523D02*
X111720380Y-49879476D01*
X112101333Y-50212809D01*
X112101333Y-50069952D01*
X112148952Y-49974714D01*
X112196571Y-49927095D01*
X112291809Y-49879476D01*
X112529904Y-49879476D01*
X112625142Y-49927095D01*
X112672761Y-49974714D01*
X112720380Y-50069952D01*
X112720380Y-50355666D01*
X112672761Y-50450904D01*
X112625142Y-50498523D01*
X144542095Y-79298000D02*
X145304000Y-79298000D01*
X144923047Y-79564666D02*
X144923047Y-79031333D01*
X145684952Y-78864666D02*
X146304000Y-78864666D01*
X145970666Y-79131333D01*
X146113523Y-79131333D01*
X146208761Y-79164666D01*
X146256380Y-79198000D01*
X146304000Y-79264666D01*
X146304000Y-79431333D01*
X146256380Y-79498000D01*
X146208761Y-79531333D01*
X146113523Y-79564666D01*
X145827809Y-79564666D01*
X145732571Y-79531333D01*
X145684952Y-79498000D01*
X146589714Y-78864666D02*
X146923047Y-79564666D01*
X147256380Y-78864666D01*
X147494476Y-78864666D02*
X148113523Y-78864666D01*
X147780190Y-79131333D01*
X147923047Y-79131333D01*
X148018285Y-79164666D01*
X148065904Y-79198000D01*
X148113523Y-79264666D01*
X148113523Y-79431333D01*
X148065904Y-79498000D01*
X148018285Y-79531333D01*
X147923047Y-79564666D01*
X147637333Y-79564666D01*
X147542095Y-79531333D01*
X147494476Y-79498000D01*
X157146857Y-59686000D02*
X157861142Y-59686000D01*
X157004000Y-60114571D02*
X157504000Y-58614571D01*
X158004000Y-60114571D01*
X158504000Y-60114571D02*
X158504000Y-58614571D01*
X158861142Y-58614571D01*
X159075428Y-58686000D01*
X159218285Y-58828857D01*
X159289714Y-58971714D01*
X159361142Y-59257428D01*
X159361142Y-59471714D01*
X159289714Y-59757428D01*
X159218285Y-59900285D01*
X159075428Y-60043142D01*
X158861142Y-60114571D01*
X158504000Y-60114571D01*
X160861142Y-59971714D02*
X160789714Y-60043142D01*
X160575428Y-60114571D01*
X160432571Y-60114571D01*
X160218285Y-60043142D01*
X160075428Y-59900285D01*
X160004000Y-59757428D01*
X159932571Y-59471714D01*
X159932571Y-59257428D01*
X160004000Y-58971714D01*
X160075428Y-58828857D01*
X160218285Y-58686000D01*
X160432571Y-58614571D01*
X160575428Y-58614571D01*
X160789714Y-58686000D01*
X160861142Y-58757428D01*
X117165523Y-47348000D02*
X117165523Y-47914666D01*
X117117904Y-47981333D01*
X117070285Y-48014666D01*
X116975047Y-48048000D01*
X116832190Y-48048000D01*
X116736952Y-48014666D01*
X117165523Y-47781333D02*
X117070285Y-47814666D01*
X116879809Y-47814666D01*
X116784571Y-47781333D01*
X116736952Y-47748000D01*
X116689333Y-47681333D01*
X116689333Y-47481333D01*
X116736952Y-47414666D01*
X116784571Y-47381333D01*
X116879809Y-47348000D01*
X117070285Y-47348000D01*
X117165523Y-47381333D01*
X117641714Y-47348000D02*
X117641714Y-47814666D01*
X117641714Y-47414666D02*
X117689333Y-47381333D01*
X117784571Y-47348000D01*
X117927428Y-47348000D01*
X118022666Y-47381333D01*
X118070285Y-47448000D01*
X118070285Y-47814666D01*
X118975047Y-47814666D02*
X118975047Y-47114666D01*
X118975047Y-47781333D02*
X118879809Y-47814666D01*
X118689333Y-47814666D01*
X118594095Y-47781333D01*
X118546476Y-47748000D01*
X118498857Y-47681333D01*
X118498857Y-47481333D01*
X118546476Y-47414666D01*
X118594095Y-47381333D01*
X118689333Y-47348000D01*
X118879809Y-47348000D01*
X118975047Y-47381333D01*
X112339428Y-60975714D02*
X112339428Y-60213809D01*
X112720380Y-60594761D02*
X111958476Y-60594761D01*
X111720380Y-59261428D02*
X111720380Y-59737619D01*
X112196571Y-59785238D01*
X112148952Y-59737619D01*
X112101333Y-59642380D01*
X112101333Y-59404285D01*
X112148952Y-59309047D01*
X112196571Y-59261428D01*
X112291809Y-59213809D01*
X112529904Y-59213809D01*
X112625142Y-59261428D01*
X112672761Y-59309047D01*
X112720380Y-59404285D01*
X112720380Y-59642380D01*
X112672761Y-59737619D01*
X112625142Y-59785238D01*
X111720380Y-58928095D02*
X112720380Y-58594761D01*
X111720380Y-58261428D01*
X110956857Y-43251428D02*
X111414000Y-43251428D01*
X111185428Y-43632380D02*
X111185428Y-42870476D01*
X111642571Y-42632380D02*
X112014000Y-42632380D01*
X111814000Y-43013333D01*
X111899714Y-43013333D01*
X111956857Y-43060952D01*
X111985428Y-43108571D01*
X112014000Y-43203809D01*
X112014000Y-43441904D01*
X111985428Y-43537142D01*
X111956857Y-43584761D01*
X111899714Y-43632380D01*
X111728285Y-43632380D01*
X111671142Y-43584761D01*
X111642571Y-43537142D01*
X112185428Y-42632380D02*
X112385428Y-43632380D01*
X112585428Y-42632380D01*
X112728285Y-42632380D02*
X113099714Y-42632380D01*
X112899714Y-43013333D01*
X112985428Y-43013333D01*
X113042571Y-43060952D01*
X113071142Y-43108571D01*
X113099714Y-43203809D01*
X113099714Y-43441904D01*
X113071142Y-43537142D01*
X113042571Y-43584761D01*
X112985428Y-43632380D01*
X112814000Y-43632380D01*
X112756857Y-43584761D01*
X112728285Y-43537142D01*
X117165523Y-55095000D02*
X117165523Y-55661666D01*
X117117904Y-55728333D01*
X117070285Y-55761666D01*
X116975047Y-55795000D01*
X116832190Y-55795000D01*
X116736952Y-55761666D01*
X117165523Y-55528333D02*
X117070285Y-55561666D01*
X116879809Y-55561666D01*
X116784571Y-55528333D01*
X116736952Y-55495000D01*
X116689333Y-55428333D01*
X116689333Y-55228333D01*
X116736952Y-55161666D01*
X116784571Y-55128333D01*
X116879809Y-55095000D01*
X117070285Y-55095000D01*
X117165523Y-55128333D01*
X117641714Y-55095000D02*
X117641714Y-55561666D01*
X117641714Y-55161666D02*
X117689333Y-55128333D01*
X117784571Y-55095000D01*
X117927428Y-55095000D01*
X118022666Y-55128333D01*
X118070285Y-55195000D01*
X118070285Y-55561666D01*
X118975047Y-55561666D02*
X118975047Y-54861666D01*
X118975047Y-55528333D02*
X118879809Y-55561666D01*
X118689333Y-55561666D01*
X118594095Y-55528333D01*
X118546476Y-55495000D01*
X118498857Y-55428333D01*
X118498857Y-55228333D01*
X118546476Y-55161666D01*
X118594095Y-55128333D01*
X118689333Y-55095000D01*
X118879809Y-55095000D01*
X118975047Y-55128333D01*
X117419523Y-63031714D02*
X117419523Y-63841238D01*
X117371904Y-63936476D01*
X117324285Y-63984095D01*
X117229047Y-64031714D01*
X117086190Y-64031714D01*
X116990952Y-63984095D01*
X117419523Y-63650761D02*
X117324285Y-63698380D01*
X117133809Y-63698380D01*
X117038571Y-63650761D01*
X116990952Y-63603142D01*
X116943333Y-63507904D01*
X116943333Y-63222190D01*
X116990952Y-63126952D01*
X117038571Y-63079333D01*
X117133809Y-63031714D01*
X117324285Y-63031714D01*
X117419523Y-63079333D01*
X117895714Y-63031714D02*
X117895714Y-63698380D01*
X117895714Y-63126952D02*
X117943333Y-63079333D01*
X118038571Y-63031714D01*
X118181428Y-63031714D01*
X118276666Y-63079333D01*
X118324285Y-63174571D01*
X118324285Y-63698380D01*
X119229047Y-63698380D02*
X119229047Y-62698380D01*
X119229047Y-63650761D02*
X119133809Y-63698380D01*
X118943333Y-63698380D01*
X118848095Y-63650761D01*
X118800476Y-63603142D01*
X118752857Y-63507904D01*
X118752857Y-63222190D01*
X118800476Y-63126952D01*
X118848095Y-63079333D01*
X118943333Y-63031714D01*
X119133809Y-63031714D01*
X119229047Y-63079333D01*
X161869523Y-63031714D02*
X161869523Y-63841238D01*
X161821904Y-63936476D01*
X161774285Y-63984095D01*
X161679047Y-64031714D01*
X161536190Y-64031714D01*
X161440952Y-63984095D01*
X161869523Y-63650761D02*
X161774285Y-63698380D01*
X161583809Y-63698380D01*
X161488571Y-63650761D01*
X161440952Y-63603142D01*
X161393333Y-63507904D01*
X161393333Y-63222190D01*
X161440952Y-63126952D01*
X161488571Y-63079333D01*
X161583809Y-63031714D01*
X161774285Y-63031714D01*
X161869523Y-63079333D01*
X162345714Y-63031714D02*
X162345714Y-63698380D01*
X162345714Y-63126952D02*
X162393333Y-63079333D01*
X162488571Y-63031714D01*
X162631428Y-63031714D01*
X162726666Y-63079333D01*
X162774285Y-63174571D01*
X162774285Y-63698380D01*
X163679047Y-63698380D02*
X163679047Y-62698380D01*
X163679047Y-63650761D02*
X163583809Y-63698380D01*
X163393333Y-63698380D01*
X163298095Y-63650761D01*
X163250476Y-63603142D01*
X163202857Y-63507904D01*
X163202857Y-63222190D01*
X163250476Y-63126952D01*
X163298095Y-63079333D01*
X163393333Y-63031714D01*
X163583809Y-63031714D01*
X163679047Y-63079333D01*
X160639285Y-55951428D02*
X161401190Y-55951428D01*
X161020238Y-56332380D02*
X161020238Y-55570476D01*
X162353571Y-55332380D02*
X161877380Y-55332380D01*
X161829761Y-55808571D01*
X161877380Y-55760952D01*
X161972619Y-55713333D01*
X162210714Y-55713333D01*
X162305952Y-55760952D01*
X162353571Y-55808571D01*
X162401190Y-55903809D01*
X162401190Y-56141904D01*
X162353571Y-56237142D01*
X162305952Y-56284761D01*
X162210714Y-56332380D01*
X161972619Y-56332380D01*
X161877380Y-56284761D01*
X161829761Y-56237142D01*
X162686904Y-55332380D02*
X163020238Y-56332380D01*
X163353571Y-55332380D01*
X162679285Y-88685714D02*
X162679285Y-89685714D01*
X162679285Y-88733333D02*
X162774523Y-88685714D01*
X162965000Y-88685714D01*
X163060238Y-88733333D01*
X163107857Y-88780952D01*
X163155476Y-88876190D01*
X163155476Y-89161904D01*
X163107857Y-89257142D01*
X163060238Y-89304761D01*
X162965000Y-89352380D01*
X162774523Y-89352380D01*
X162679285Y-89304761D01*
X163584047Y-89352380D02*
X163584047Y-88685714D01*
X163584047Y-88780952D02*
X163631666Y-88733333D01*
X163726904Y-88685714D01*
X163869761Y-88685714D01*
X163965000Y-88733333D01*
X164012619Y-88828571D01*
X164012619Y-89352380D01*
X164012619Y-88828571D02*
X164060238Y-88733333D01*
X164155476Y-88685714D01*
X164298333Y-88685714D01*
X164393571Y-88733333D01*
X164441190Y-88828571D01*
X164441190Y-89352380D01*
X165060238Y-89352380D02*
X164965000Y-89304761D01*
X164917380Y-89257142D01*
X164869761Y-89161904D01*
X164869761Y-88876190D01*
X164917380Y-88780952D01*
X164965000Y-88733333D01*
X165060238Y-88685714D01*
X165203095Y-88685714D01*
X165298333Y-88733333D01*
X165345952Y-88780952D01*
X165393571Y-88876190D01*
X165393571Y-89161904D01*
X165345952Y-89257142D01*
X165298333Y-89304761D01*
X165203095Y-89352380D01*
X165060238Y-89352380D01*
X166250714Y-89352380D02*
X166250714Y-88352380D01*
X166250714Y-89304761D02*
X166155476Y-89352380D01*
X165965000Y-89352380D01*
X165869761Y-89304761D01*
X165822142Y-89257142D01*
X165774523Y-89161904D01*
X165774523Y-88876190D01*
X165822142Y-88780952D01*
X165869761Y-88733333D01*
X165965000Y-88685714D01*
X166155476Y-88685714D01*
X166250714Y-88733333D01*
X116149523Y-78717000D02*
X116149523Y-79283666D01*
X116101904Y-79350333D01*
X116054285Y-79383666D01*
X115959047Y-79417000D01*
X115816190Y-79417000D01*
X115720952Y-79383666D01*
X116149523Y-79150333D02*
X116054285Y-79183666D01*
X115863809Y-79183666D01*
X115768571Y-79150333D01*
X115720952Y-79117000D01*
X115673333Y-79050333D01*
X115673333Y-78850333D01*
X115720952Y-78783666D01*
X115768571Y-78750333D01*
X115863809Y-78717000D01*
X116054285Y-78717000D01*
X116149523Y-78750333D01*
X116625714Y-78717000D02*
X116625714Y-79183666D01*
X116625714Y-78783666D02*
X116673333Y-78750333D01*
X116768571Y-78717000D01*
X116911428Y-78717000D01*
X117006666Y-78750333D01*
X117054285Y-78817000D01*
X117054285Y-79183666D01*
X117959047Y-79183666D02*
X117959047Y-78483666D01*
X117959047Y-79150333D02*
X117863809Y-79183666D01*
X117673333Y-79183666D01*
X117578095Y-79150333D01*
X117530476Y-79117000D01*
X117482857Y-79050333D01*
X117482857Y-78850333D01*
X117530476Y-78783666D01*
X117578095Y-78750333D01*
X117673333Y-78717000D01*
X117863809Y-78717000D01*
X117959047Y-78750333D01*
X111649095Y-83870000D02*
X112411000Y-83870000D01*
X112030047Y-84136666D02*
X112030047Y-83603333D01*
X112791952Y-83436666D02*
X113411000Y-83436666D01*
X113077666Y-83703333D01*
X113220523Y-83703333D01*
X113315761Y-83736666D01*
X113363380Y-83770000D01*
X113411000Y-83836666D01*
X113411000Y-84003333D01*
X113363380Y-84070000D01*
X113315761Y-84103333D01*
X113220523Y-84136666D01*
X112934809Y-84136666D01*
X112839571Y-84103333D01*
X112791952Y-84070000D01*
X113696714Y-83436666D02*
X114030047Y-84136666D01*
X114363380Y-83436666D01*
X114601476Y-83436666D02*
X115220523Y-83436666D01*
X114887190Y-83703333D01*
X115030047Y-83703333D01*
X115125285Y-83736666D01*
X115172904Y-83770000D01*
X115220523Y-83836666D01*
X115220523Y-84003333D01*
X115172904Y-84070000D01*
X115125285Y-84103333D01*
X115030047Y-84136666D01*
X114744333Y-84136666D01*
X114649095Y-84103333D01*
X114601476Y-84070000D01*
X149169523Y-78082000D02*
X149169523Y-78648666D01*
X149121904Y-78715333D01*
X149074285Y-78748666D01*
X148979047Y-78782000D01*
X148836190Y-78782000D01*
X148740952Y-78748666D01*
X149169523Y-78515333D02*
X149074285Y-78548666D01*
X148883809Y-78548666D01*
X148788571Y-78515333D01*
X148740952Y-78482000D01*
X148693333Y-78415333D01*
X148693333Y-78215333D01*
X148740952Y-78148666D01*
X148788571Y-78115333D01*
X148883809Y-78082000D01*
X149074285Y-78082000D01*
X149169523Y-78115333D01*
X149645714Y-78082000D02*
X149645714Y-78548666D01*
X149645714Y-78148666D02*
X149693333Y-78115333D01*
X149788571Y-78082000D01*
X149931428Y-78082000D01*
X150026666Y-78115333D01*
X150074285Y-78182000D01*
X150074285Y-78548666D01*
X150979047Y-78548666D02*
X150979047Y-77848666D01*
X150979047Y-78515333D02*
X150883809Y-78548666D01*
X150693333Y-78548666D01*
X150598095Y-78515333D01*
X150550476Y-78482000D01*
X150502857Y-78415333D01*
X150502857Y-78215333D01*
X150550476Y-78148666D01*
X150598095Y-78115333D01*
X150693333Y-78082000D01*
X150883809Y-78082000D01*
X150979047Y-78115333D01*
X161869523Y-48045714D02*
X161869523Y-48855238D01*
X161821904Y-48950476D01*
X161774285Y-48998095D01*
X161679047Y-49045714D01*
X161536190Y-49045714D01*
X161440952Y-48998095D01*
X161869523Y-48664761D02*
X161774285Y-48712380D01*
X161583809Y-48712380D01*
X161488571Y-48664761D01*
X161440952Y-48617142D01*
X161393333Y-48521904D01*
X161393333Y-48236190D01*
X161440952Y-48140952D01*
X161488571Y-48093333D01*
X161583809Y-48045714D01*
X161774285Y-48045714D01*
X161869523Y-48093333D01*
X162345714Y-48045714D02*
X162345714Y-48712380D01*
X162345714Y-48140952D02*
X162393333Y-48093333D01*
X162488571Y-48045714D01*
X162631428Y-48045714D01*
X162726666Y-48093333D01*
X162774285Y-48188571D01*
X162774285Y-48712380D01*
X163679047Y-48712380D02*
X163679047Y-47712380D01*
X163679047Y-48664761D02*
X163583809Y-48712380D01*
X163393333Y-48712380D01*
X163298095Y-48664761D01*
X163250476Y-48617142D01*
X163202857Y-48521904D01*
X163202857Y-48236190D01*
X163250476Y-48140952D01*
X163298095Y-48093333D01*
X163393333Y-48045714D01*
X163583809Y-48045714D01*
X163679047Y-48093333D01*
X117419523Y-40998000D02*
X117419523Y-41564666D01*
X117371904Y-41631333D01*
X117324285Y-41664666D01*
X117229047Y-41698000D01*
X117086190Y-41698000D01*
X116990952Y-41664666D01*
X117419523Y-41431333D02*
X117324285Y-41464666D01*
X117133809Y-41464666D01*
X117038571Y-41431333D01*
X116990952Y-41398000D01*
X116943333Y-41331333D01*
X116943333Y-41131333D01*
X116990952Y-41064666D01*
X117038571Y-41031333D01*
X117133809Y-40998000D01*
X117324285Y-40998000D01*
X117419523Y-41031333D01*
X117895714Y-40998000D02*
X117895714Y-41464666D01*
X117895714Y-41064666D02*
X117943333Y-41031333D01*
X118038571Y-40998000D01*
X118181428Y-40998000D01*
X118276666Y-41031333D01*
X118324285Y-41098000D01*
X118324285Y-41464666D01*
X119229047Y-41464666D02*
X119229047Y-40764666D01*
X119229047Y-41431333D02*
X119133809Y-41464666D01*
X118943333Y-41464666D01*
X118848095Y-41431333D01*
X118800476Y-41398000D01*
X118752857Y-41331333D01*
X118752857Y-41131333D01*
X118800476Y-41064666D01*
X118848095Y-41031333D01*
X118943333Y-40998000D01*
X119133809Y-40998000D01*
X119229047Y-41031333D01*
X161274285Y-70662000D02*
X162036190Y-70662000D01*
X161655238Y-70928666D02*
X161655238Y-70395333D01*
X162988571Y-70228666D02*
X162512380Y-70228666D01*
X162464761Y-70562000D01*
X162512380Y-70528666D01*
X162607619Y-70495333D01*
X162845714Y-70495333D01*
X162940952Y-70528666D01*
X162988571Y-70562000D01*
X163036190Y-70628666D01*
X163036190Y-70795333D01*
X162988571Y-70862000D01*
X162940952Y-70895333D01*
X162845714Y-70928666D01*
X162607619Y-70928666D01*
X162512380Y-70895333D01*
X162464761Y-70862000D01*
X163321904Y-70228666D02*
X163655238Y-70928666D01*
X163988571Y-70228666D01*
X112149047Y-89304761D02*
X112053809Y-89352380D01*
X111863333Y-89352380D01*
X111768095Y-89304761D01*
X111720476Y-89257142D01*
X111672857Y-89161904D01*
X111672857Y-88876190D01*
X111720476Y-88780952D01*
X111768095Y-88733333D01*
X111863333Y-88685714D01*
X112053809Y-88685714D01*
X112149047Y-88733333D01*
X113006190Y-89352380D02*
X113006190Y-88828571D01*
X112958571Y-88733333D01*
X112863333Y-88685714D01*
X112672857Y-88685714D01*
X112577619Y-88733333D01*
X113006190Y-89304761D02*
X112910952Y-89352380D01*
X112672857Y-89352380D01*
X112577619Y-89304761D01*
X112530000Y-89209523D01*
X112530000Y-89114285D01*
X112577619Y-89019047D01*
X112672857Y-88971428D01*
X112910952Y-88971428D01*
X113006190Y-88923809D01*
X113482380Y-89352380D02*
X113482380Y-88685714D01*
X113482380Y-88780952D02*
X113530000Y-88733333D01*
X113625238Y-88685714D01*
X113768095Y-88685714D01*
X113863333Y-88733333D01*
X113910952Y-88828571D01*
X113910952Y-89352380D01*
X113910952Y-88828571D02*
X113958571Y-88733333D01*
X114053809Y-88685714D01*
X114196666Y-88685714D01*
X114291904Y-88733333D01*
X114339523Y-88828571D01*
X114339523Y-89352380D01*
X127541142Y-48510000D02*
X128255428Y-48510000D01*
X127398285Y-48938571D02*
X127898285Y-47438571D01*
X128398285Y-48938571D01*
X129112571Y-48938571D02*
X128969714Y-48867142D01*
X128898285Y-48724285D01*
X128898285Y-47438571D01*
X129684000Y-48938571D02*
X129684000Y-47938571D01*
X129684000Y-47438571D02*
X129612571Y-47510000D01*
X129684000Y-47581428D01*
X129755428Y-47510000D01*
X129684000Y-47438571D01*
X129684000Y-47581428D01*
X130398285Y-47938571D02*
X130398285Y-48938571D01*
X130398285Y-48081428D02*
X130469714Y-48010000D01*
X130612571Y-47938571D01*
X130826857Y-47938571D01*
X130969714Y-48010000D01*
X131041142Y-48152857D01*
X131041142Y-48938571D01*
X131612571Y-48938571D02*
X132398285Y-47938571D01*
X131612571Y-47938571D02*
X132398285Y-48938571D01*
X134112571Y-48938571D02*
X134112571Y-47438571D01*
X134112571Y-48152857D02*
X134969714Y-48152857D01*
X134969714Y-48938571D02*
X134969714Y-47438571D01*
X135684000Y-48938571D02*
X135684000Y-47438571D01*
X136041142Y-47438571D01*
X136255428Y-47510000D01*
X136398285Y-47652857D01*
X136469714Y-47795714D01*
X136541142Y-48081428D01*
X136541142Y-48295714D01*
X136469714Y-48581428D01*
X136398285Y-48724285D01*
X136255428Y-48867142D01*
X136041142Y-48938571D01*
X135684000Y-48938571D01*
X137184000Y-48938571D02*
X137184000Y-47438571D01*
X137684000Y-48510000D01*
X138184000Y-47438571D01*
X138184000Y-48938571D01*
X138898285Y-48938571D02*
X138898285Y-47438571D01*
X140684000Y-47367142D02*
X139398285Y-49295714D01*
X141184000Y-48152857D02*
X141684000Y-48152857D01*
X141898285Y-48938571D02*
X141184000Y-48938571D01*
X141184000Y-47438571D01*
X141898285Y-47438571D01*
X142326857Y-47938571D02*
X142898285Y-47938571D01*
X142541142Y-47438571D02*
X142541142Y-48724285D01*
X142612571Y-48867142D01*
X142755428Y-48938571D01*
X142898285Y-48938571D01*
X143398285Y-48938571D02*
X143398285Y-47438571D01*
X144041142Y-48938571D02*
X144041142Y-48152857D01*
X143969714Y-48010000D01*
X143826857Y-47938571D01*
X143612571Y-47938571D01*
X143469714Y-48010000D01*
X143398285Y-48081428D01*
X145326857Y-48867142D02*
X145184000Y-48938571D01*
X144898285Y-48938571D01*
X144755428Y-48867142D01*
X144684000Y-48724285D01*
X144684000Y-48152857D01*
X144755428Y-48010000D01*
X144898285Y-47938571D01*
X145184000Y-47938571D01*
X145326857Y-48010000D01*
X145398285Y-48152857D01*
X145398285Y-48295714D01*
X144684000Y-48438571D01*
X146041142Y-48938571D02*
X146041142Y-47938571D01*
X146041142Y-48224285D02*
X146112571Y-48081428D01*
X146184000Y-48010000D01*
X146326857Y-47938571D01*
X146469714Y-47938571D01*
X146969714Y-47938571D02*
X146969714Y-48938571D01*
X146969714Y-48081428D02*
X147041142Y-48010000D01*
X147184000Y-47938571D01*
X147398285Y-47938571D01*
X147541142Y-48010000D01*
X147612571Y-48152857D01*
X147612571Y-48938571D01*
X148898285Y-48867142D02*
X148755428Y-48938571D01*
X148469714Y-48938571D01*
X148326857Y-48867142D01*
X148255428Y-48724285D01*
X148255428Y-48152857D01*
X148326857Y-48010000D01*
X148469714Y-47938571D01*
X148755428Y-47938571D01*
X148898285Y-48010000D01*
X148969714Y-48152857D01*
X148969714Y-48295714D01*
X148255428Y-48438571D01*
X149398285Y-47938571D02*
X149969714Y-47938571D01*
X149612571Y-47438571D02*
X149612571Y-48724285D01*
X149684000Y-48867142D01*
X149826857Y-48938571D01*
X149969714Y-48938571D01*
X142256095Y-84632000D02*
X143018000Y-84632000D01*
X142637047Y-84898666D02*
X142637047Y-84365333D01*
X143398952Y-84198666D02*
X144018000Y-84198666D01*
X143684666Y-84465333D01*
X143827523Y-84465333D01*
X143922761Y-84498666D01*
X143970380Y-84532000D01*
X144018000Y-84598666D01*
X144018000Y-84765333D01*
X143970380Y-84832000D01*
X143922761Y-84865333D01*
X143827523Y-84898666D01*
X143541809Y-84898666D01*
X143446571Y-84865333D01*
X143398952Y-84832000D01*
X144303714Y-84198666D02*
X144637047Y-84898666D01*
X144970380Y-84198666D01*
X145208476Y-84198666D02*
X145827523Y-84198666D01*
X145494190Y-84465333D01*
X145637047Y-84465333D01*
X145732285Y-84498666D01*
X145779904Y-84532000D01*
X145827523Y-84598666D01*
X145827523Y-84765333D01*
X145779904Y-84832000D01*
X145732285Y-84865333D01*
X145637047Y-84898666D01*
X145351333Y-84898666D01*
X145256095Y-84865333D01*
X145208476Y-84832000D01*
X111242571Y-45791428D02*
X111699714Y-45791428D01*
X111471142Y-46172380D02*
X111471142Y-45410476D01*
X112271142Y-45172380D02*
X111985428Y-45172380D01*
X111956857Y-45648571D01*
X111985428Y-45600952D01*
X112042571Y-45553333D01*
X112185428Y-45553333D01*
X112242571Y-45600952D01*
X112271142Y-45648571D01*
X112299714Y-45743809D01*
X112299714Y-45981904D01*
X112271142Y-46077142D01*
X112242571Y-46124761D01*
X112185428Y-46172380D01*
X112042571Y-46172380D01*
X111985428Y-46124761D01*
X111956857Y-46077142D01*
X112471142Y-45172380D02*
X112671142Y-46172380D01*
X112871142Y-45172380D01*
X149169523Y-79098000D02*
X149169523Y-79664666D01*
X149121904Y-79731333D01*
X149074285Y-79764666D01*
X148979047Y-79798000D01*
X148836190Y-79798000D01*
X148740952Y-79764666D01*
X149169523Y-79531333D02*
X149074285Y-79564666D01*
X148883809Y-79564666D01*
X148788571Y-79531333D01*
X148740952Y-79498000D01*
X148693333Y-79431333D01*
X148693333Y-79231333D01*
X148740952Y-79164666D01*
X148788571Y-79131333D01*
X148883809Y-79098000D01*
X149074285Y-79098000D01*
X149169523Y-79131333D01*
X149645714Y-79098000D02*
X149645714Y-79564666D01*
X149645714Y-79164666D02*
X149693333Y-79131333D01*
X149788571Y-79098000D01*
X149931428Y-79098000D01*
X150026666Y-79131333D01*
X150074285Y-79198000D01*
X150074285Y-79564666D01*
X150979047Y-79564666D02*
X150979047Y-78864666D01*
X150979047Y-79531333D02*
X150883809Y-79564666D01*
X150693333Y-79564666D01*
X150598095Y-79531333D01*
X150550476Y-79498000D01*
X150502857Y-79431333D01*
X150502857Y-79231333D01*
X150550476Y-79164666D01*
X150598095Y-79131333D01*
X150693333Y-79098000D01*
X150883809Y-79098000D01*
X150979047Y-79131333D01*
X165711142Y-70678166D02*
X165758761Y-70725785D01*
X165806380Y-70868642D01*
X165806380Y-70963880D01*
X165758761Y-71106738D01*
X165663523Y-71201976D01*
X165568285Y-71249595D01*
X165377809Y-71297214D01*
X165234952Y-71297214D01*
X165044476Y-71249595D01*
X164949238Y-71201976D01*
X164854000Y-71106738D01*
X164806380Y-70963880D01*
X164806380Y-70868642D01*
X164854000Y-70725785D01*
X164901619Y-70678166D01*
X165139714Y-69821023D02*
X165806380Y-69821023D01*
X164758761Y-70059119D02*
X165473047Y-70297214D01*
X165473047Y-69678166D01*
X165020666Y-74382380D02*
X165020666Y-75096666D01*
X164973047Y-75239523D01*
X164877809Y-75334761D01*
X164734952Y-75382380D01*
X164639714Y-75382380D01*
X165973047Y-74382380D02*
X165496857Y-74382380D01*
X165449238Y-74858571D01*
X165496857Y-74810952D01*
X165592095Y-74763333D01*
X165830190Y-74763333D01*
X165925428Y-74810952D01*
X165973047Y-74858571D01*
X166020666Y-74953809D01*
X166020666Y-75191904D01*
X165973047Y-75287142D01*
X165925428Y-75334761D01*
X165830190Y-75382380D01*
X165592095Y-75382380D01*
X165496857Y-75334761D01*
X165449238Y-75287142D01*
X112201833Y-48363142D02*
X112154214Y-48410761D01*
X112011357Y-48458380D01*
X111916119Y-48458380D01*
X111773261Y-48410761D01*
X111678023Y-48315523D01*
X111630404Y-48220285D01*
X111582785Y-48029809D01*
X111582785Y-47886952D01*
X111630404Y-47696476D01*
X111678023Y-47601238D01*
X111773261Y-47506000D01*
X111916119Y-47458380D01*
X112011357Y-47458380D01*
X112154214Y-47506000D01*
X112201833Y-47553619D01*
X113154214Y-48458380D02*
X112582785Y-48458380D01*
X112868500Y-48458380D02*
X112868500Y-47458380D01*
X112773261Y-47601238D01*
X112678023Y-47696476D01*
X112582785Y-47744095D01*
X165020666Y-55586380D02*
X165020666Y-56300666D01*
X164973047Y-56443523D01*
X164877809Y-56538761D01*
X164734952Y-56586380D01*
X164639714Y-56586380D01*
X165449238Y-55681619D02*
X165496857Y-55634000D01*
X165592095Y-55586380D01*
X165830190Y-55586380D01*
X165925428Y-55634000D01*
X165973047Y-55681619D01*
X166020666Y-55776857D01*
X166020666Y-55872095D01*
X165973047Y-56014952D01*
X165401619Y-56586380D01*
X166020666Y-56586380D01*
X146137333Y-71477142D02*
X146089714Y-71524761D01*
X145946857Y-71572380D01*
X145851619Y-71572380D01*
X145708761Y-71524761D01*
X145613523Y-71429523D01*
X145565904Y-71334285D01*
X145518285Y-71143809D01*
X145518285Y-71000952D01*
X145565904Y-70810476D01*
X145613523Y-70715238D01*
X145708761Y-70620000D01*
X145851619Y-70572380D01*
X145946857Y-70572380D01*
X146089714Y-70620000D01*
X146137333Y-70667619D01*
X146470666Y-70572380D02*
X147089714Y-70572380D01*
X146756380Y-70953333D01*
X146899238Y-70953333D01*
X146994476Y-71000952D01*
X147042095Y-71048571D01*
X147089714Y-71143809D01*
X147089714Y-71381904D01*
X147042095Y-71477142D01*
X146994476Y-71524761D01*
X146899238Y-71572380D01*
X146613523Y-71572380D01*
X146518285Y-71524761D01*
X146470666Y-71477142D01*
X142581333Y-82907142D02*
X142533714Y-82954761D01*
X142390857Y-83002380D01*
X142295619Y-83002380D01*
X142152761Y-82954761D01*
X142057523Y-82859523D01*
X142009904Y-82764285D01*
X141962285Y-82573809D01*
X141962285Y-82430952D01*
X142009904Y-82240476D01*
X142057523Y-82145238D01*
X142152761Y-82050000D01*
X142295619Y-82002380D01*
X142390857Y-82002380D01*
X142533714Y-82050000D01*
X142581333Y-82097619D01*
X143057523Y-83002380D02*
X143248000Y-83002380D01*
X143343238Y-82954761D01*
X143390857Y-82907142D01*
X143486095Y-82764285D01*
X143533714Y-82573809D01*
X143533714Y-82192857D01*
X143486095Y-82097619D01*
X143438476Y-82050000D01*
X143343238Y-82002380D01*
X143152761Y-82002380D01*
X143057523Y-82050000D01*
X143009904Y-82097619D01*
X142962285Y-82192857D01*
X142962285Y-82430952D01*
X143009904Y-82526190D01*
X143057523Y-82573809D01*
X143152761Y-82621428D01*
X143343238Y-82621428D01*
X143438476Y-82573809D01*
X143486095Y-82526190D01*
X143533714Y-82430952D01*
X165965142Y-49850166D02*
X166012761Y-49897785D01*
X166060380Y-50040642D01*
X166060380Y-50135880D01*
X166012761Y-50278738D01*
X165917523Y-50373976D01*
X165822285Y-50421595D01*
X165631809Y-50469214D01*
X165488952Y-50469214D01*
X165298476Y-50421595D01*
X165203238Y-50373976D01*
X165108000Y-50278738D01*
X165060380Y-50135880D01*
X165060380Y-50040642D01*
X165108000Y-49897785D01*
X165155619Y-49850166D01*
X165155619Y-49469214D02*
X165108000Y-49421595D01*
X165060380Y-49326357D01*
X165060380Y-49088261D01*
X165108000Y-48993023D01*
X165155619Y-48945404D01*
X165250857Y-48897785D01*
X165346095Y-48897785D01*
X165488952Y-48945404D01*
X166060380Y-49516833D01*
X166060380Y-48897785D01*
X112101333Y-63857142D02*
X112053714Y-63904761D01*
X111910857Y-63952380D01*
X111815619Y-63952380D01*
X111672761Y-63904761D01*
X111577523Y-63809523D01*
X111529904Y-63714285D01*
X111482285Y-63523809D01*
X111482285Y-63380952D01*
X111529904Y-63190476D01*
X111577523Y-63095238D01*
X111672761Y-63000000D01*
X111815619Y-62952380D01*
X111910857Y-62952380D01*
X112053714Y-63000000D01*
X112101333Y-63047619D01*
X113006095Y-62952380D02*
X112529904Y-62952380D01*
X112482285Y-63428571D01*
X112529904Y-63380952D01*
X112625142Y-63333333D01*
X112863238Y-63333333D01*
X112958476Y-63380952D01*
X113006095Y-63428571D01*
X113053714Y-63523809D01*
X113053714Y-63761904D01*
X113006095Y-63857142D01*
X112958476Y-63904761D01*
X112863238Y-63952380D01*
X112625142Y-63952380D01*
X112529904Y-63904761D01*
X112482285Y-63857142D01*
X164131666Y-87082380D02*
X164131666Y-87796666D01*
X164084047Y-87939523D01*
X163988809Y-88034761D01*
X163845952Y-88082380D01*
X163750714Y-88082380D01*
X164512619Y-87082380D02*
X165179285Y-87082380D01*
X164750714Y-88082380D01*
X112696666Y-86447380D02*
X112696666Y-87161666D01*
X112649047Y-87304523D01*
X112553809Y-87399761D01*
X112410952Y-87447380D01*
X112315714Y-87447380D01*
X113601428Y-86447380D02*
X113410952Y-86447380D01*
X113315714Y-86495000D01*
X113268095Y-86542619D01*
X113172857Y-86685476D01*
X113125238Y-86875952D01*
X113125238Y-87256904D01*
X113172857Y-87352142D01*
X113220476Y-87399761D01*
X113315714Y-87447380D01*
X113506190Y-87447380D01*
X113601428Y-87399761D01*
X113649047Y-87352142D01*
X113696666Y-87256904D01*
X113696666Y-87018809D01*
X113649047Y-86923571D01*
X113601428Y-86875952D01*
X113506190Y-86828333D01*
X113315714Y-86828333D01*
X113220476Y-86875952D01*
X113172857Y-86923571D01*
X113125238Y-87018809D01*
X165020666Y-64476380D02*
X165020666Y-65190666D01*
X164973047Y-65333523D01*
X164877809Y-65428761D01*
X164734952Y-65476380D01*
X164639714Y-65476380D01*
X165925428Y-64809714D02*
X165925428Y-65476380D01*
X165687333Y-64428761D02*
X165449238Y-65143047D01*
X166068285Y-65143047D01*
X112101333Y-40997142D02*
X112053714Y-41044761D01*
X111910857Y-41092380D01*
X111815619Y-41092380D01*
X111672761Y-41044761D01*
X111577523Y-40949523D01*
X111529904Y-40854285D01*
X111482285Y-40663809D01*
X111482285Y-40520952D01*
X111529904Y-40330476D01*
X111577523Y-40235238D01*
X111672761Y-40140000D01*
X111815619Y-40092380D01*
X111910857Y-40092380D01*
X112053714Y-40140000D01*
X112101333Y-40187619D01*
X112958476Y-40092380D02*
X112768000Y-40092380D01*
X112672761Y-40140000D01*
X112625142Y-40187619D01*
X112529904Y-40330476D01*
X112482285Y-40520952D01*
X112482285Y-40901904D01*
X112529904Y-40997142D01*
X112577523Y-41044761D01*
X112672761Y-41092380D01*
X112863238Y-41092380D01*
X112958476Y-41044761D01*
X113006095Y-40997142D01*
X113053714Y-40901904D01*
X113053714Y-40663809D01*
X113006095Y-40568571D01*
X112958476Y-40520952D01*
X112863238Y-40473333D01*
X112672761Y-40473333D01*
X112577523Y-40520952D01*
X112529904Y-40568571D01*
X112482285Y-40663809D01*
X113599933Y-80367142D02*
X113552314Y-80414761D01*
X113409457Y-80462380D01*
X113314219Y-80462380D01*
X113171361Y-80414761D01*
X113076123Y-80319523D01*
X113028504Y-80224285D01*
X112980885Y-80033809D01*
X112980885Y-79890952D01*
X113028504Y-79700476D01*
X113076123Y-79605238D01*
X113171361Y-79510000D01*
X113314219Y-79462380D01*
X113409457Y-79462380D01*
X113552314Y-79510000D01*
X113599933Y-79557619D01*
X114171361Y-79890952D02*
X114076123Y-79843333D01*
X114028504Y-79795714D01*
X113980885Y-79700476D01*
X113980885Y-79652857D01*
X114028504Y-79557619D01*
X114076123Y-79510000D01*
X114171361Y-79462380D01*
X114361838Y-79462380D01*
X114457076Y-79510000D01*
X114504695Y-79557619D01*
X114552314Y-79652857D01*
X114552314Y-79700476D01*
X114504695Y-79795714D01*
X114457076Y-79843333D01*
X114361838Y-79890952D01*
X114171361Y-79890952D01*
X114076123Y-79938571D01*
X114028504Y-79986190D01*
X113980885Y-80081428D01*
X113980885Y-80271904D01*
X114028504Y-80367142D01*
X114076123Y-80414761D01*
X114171361Y-80462380D01*
X114361838Y-80462380D01*
X114457076Y-80414761D01*
X114504695Y-80367142D01*
X114552314Y-80271904D01*
X114552314Y-80081428D01*
X114504695Y-79986190D01*
X114457076Y-79938571D01*
X114361838Y-79890952D01*
X154860666Y-59396380D02*
X154860666Y-60110666D01*
X154813047Y-60253523D01*
X154717809Y-60348761D01*
X154574952Y-60396380D01*
X154479714Y-60396380D01*
X155241619Y-59396380D02*
X155860666Y-59396380D01*
X155527333Y-59777333D01*
X155670190Y-59777333D01*
X155765428Y-59824952D01*
X155813047Y-59872571D01*
X155860666Y-59967809D01*
X155860666Y-60205904D01*
X155813047Y-60301142D01*
X155765428Y-60348761D01*
X155670190Y-60396380D01*
X155384476Y-60396380D01*
X155289238Y-60348761D01*
X155241619Y-60301142D01*
X112101333Y-56237142D02*
X112053714Y-56284761D01*
X111910857Y-56332380D01*
X111815619Y-56332380D01*
X111672761Y-56284761D01*
X111577523Y-56189523D01*
X111529904Y-56094285D01*
X111482285Y-55903809D01*
X111482285Y-55760952D01*
X111529904Y-55570476D01*
X111577523Y-55475238D01*
X111672761Y-55380000D01*
X111815619Y-55332380D01*
X111910857Y-55332380D01*
X112053714Y-55380000D01*
X112101333Y-55427619D01*
X112434666Y-55332380D02*
X113101333Y-55332380D01*
X112672761Y-56332380D01*
D11*
X165864000Y-67863767D02*
X165864000Y-67571233D01*
X164844000Y-67863767D02*
X164844000Y-67571233D01*
X161290000Y-74930000D02*
X163890000Y-74930000D01*
X161290000Y-72330000D02*
X161290000Y-74930000D01*
X163890000Y-74930000D02*
X163890000Y-77530000D01*
X161290000Y-72330000D02*
X118050000Y-72330000D01*
X162560000Y-72330000D02*
X163890000Y-72330000D01*
X163890000Y-77530000D02*
X118050000Y-77530000D01*
X118050000Y-72330000D02*
X118050000Y-77530000D01*
X163890000Y-72330000D02*
X163890000Y-73660000D01*
X115016233Y-47496000D02*
X115308767Y-47496000D01*
X115016233Y-48516000D02*
X115308767Y-48516000D01*
X163890000Y-52070000D02*
X163890000Y-54670000D01*
X163890000Y-54670000D02*
X112970000Y-54670000D01*
X161290000Y-49470000D02*
X161290000Y-52070000D01*
X162560000Y-49470000D02*
X163890000Y-49470000D01*
X163890000Y-49470000D02*
X163890000Y-50800000D01*
X161290000Y-49470000D02*
X112970000Y-49470000D01*
X161290000Y-52070000D02*
X163890000Y-52070000D01*
X112970000Y-49470000D02*
X112970000Y-54670000D01*
X149244267Y-71630000D02*
X148951733Y-71630000D01*
X149244267Y-70610000D02*
X148951733Y-70610000D01*
X144016000Y-81996233D02*
X144016000Y-82288767D01*
X145036000Y-81996233D02*
X145036000Y-82288767D01*
X166118000Y-52623767D02*
X166118000Y-52331233D01*
X165098000Y-52623767D02*
X165098000Y-52331233D01*
X115016233Y-64010000D02*
X115308767Y-64010000D01*
X115016233Y-62990000D02*
X115308767Y-62990000D01*
X147999520Y-93910000D02*
X147999520Y-85280000D01*
X152760000Y-85280000D02*
X152760000Y-84870000D01*
X147172855Y-93910000D02*
X147172855Y-85280000D01*
X147527140Y-93910000D02*
X147527140Y-85280000D01*
X156210000Y-93910000D02*
X156210000Y-85280000D01*
X146346190Y-93910000D02*
X146346190Y-85280000D01*
X146700475Y-93910000D02*
X146700475Y-85280000D01*
X159660000Y-82770000D02*
X159660000Y-82330000D01*
X147290950Y-93910000D02*
X147290950Y-85280000D01*
X152040000Y-85280000D02*
X152040000Y-84870000D01*
X148117615Y-93910000D02*
X148117615Y-85280000D01*
X158750000Y-93910000D02*
X158750000Y-85280000D01*
X146464285Y-93910000D02*
X146464285Y-85280000D01*
X152040000Y-82770000D02*
X152040000Y-82330000D01*
X160380000Y-85280000D02*
X160380000Y-84870000D01*
X146582380Y-93910000D02*
X146582380Y-85280000D01*
X146936665Y-93910000D02*
X146936665Y-85280000D01*
X155300000Y-82770000D02*
X155300000Y-82330000D01*
X149500000Y-85280000D02*
X149500000Y-84870000D01*
X147763330Y-93910000D02*
X147763330Y-85280000D01*
X146960000Y-85280000D02*
X146960000Y-84870000D01*
X153670000Y-93910000D02*
X153670000Y-85280000D01*
X157120000Y-85280000D02*
X157120000Y-84870000D01*
X159660000Y-85280000D02*
X159660000Y-84870000D01*
X148235710Y-93910000D02*
X148235710Y-85280000D01*
X150220000Y-82770000D02*
X150220000Y-82330000D01*
X150220000Y-85280000D02*
X150220000Y-84870000D01*
X147680000Y-85280000D02*
X147680000Y-84870000D01*
X160380000Y-82770000D02*
X160380000Y-82330000D01*
X145990000Y-81280000D02*
X145990000Y-80170000D01*
X147645235Y-93910000D02*
X147645235Y-85280000D01*
X147680000Y-82770000D02*
X147680000Y-82390000D01*
X149500000Y-82770000D02*
X149500000Y-82330000D01*
X147409045Y-93910000D02*
X147409045Y-85280000D01*
X145990000Y-93910000D02*
X161350000Y-93910000D01*
X146818570Y-93910000D02*
X146818570Y-85280000D01*
X151130000Y-93910000D02*
X151130000Y-85280000D01*
X146960000Y-82770000D02*
X146960000Y-82390000D01*
X161350000Y-93910000D02*
X161350000Y-85280000D01*
X145990000Y-93910000D02*
X145990000Y-85280000D01*
X154580000Y-85280000D02*
X154580000Y-84870000D01*
X147054760Y-93910000D02*
X147054760Y-85280000D01*
X147881425Y-93910000D02*
X147881425Y-85280000D01*
X148353805Y-93910000D02*
X148353805Y-85280000D01*
X157120000Y-82770000D02*
X157120000Y-82330000D01*
X155300000Y-85280000D02*
X155300000Y-84870000D01*
X146228095Y-93910000D02*
X146228095Y-85280000D01*
X145990000Y-80170000D02*
X147320000Y-80170000D01*
X157840000Y-82770000D02*
X157840000Y-82330000D01*
X148590000Y-93910000D02*
X148590000Y-85280000D01*
X152760000Y-82770000D02*
X152760000Y-82330000D01*
X146110000Y-93910000D02*
X146110000Y-85280000D01*
X154580000Y-82770000D02*
X154580000Y-82330000D01*
X145990000Y-85280000D02*
X161350000Y-85280000D01*
X157840000Y-85280000D02*
X157840000Y-84870000D01*
X148471900Y-93910000D02*
X148471900Y-85280000D01*
X131720000Y-82770000D02*
X131720000Y-82330000D01*
X127360000Y-85280000D02*
X127360000Y-84870000D01*
X136800000Y-85280000D02*
X136800000Y-84870000D01*
X121560000Y-85280000D02*
X121560000Y-84870000D01*
X132440000Y-82770000D02*
X132440000Y-82330000D01*
X129180000Y-82770000D02*
X129180000Y-82330000D01*
X129900000Y-85280000D02*
X129900000Y-84870000D01*
X125730000Y-93910000D02*
X125730000Y-85280000D01*
X117200000Y-85280000D02*
X117200000Y-84870000D01*
X134980000Y-82770000D02*
X134980000Y-82330000D01*
X130810000Y-93910000D02*
X130810000Y-85280000D01*
X127360000Y-82770000D02*
X127360000Y-82330000D01*
X116692855Y-93910000D02*
X116692855Y-85280000D01*
X131720000Y-85280000D02*
X131720000Y-84870000D01*
X117755710Y-93910000D02*
X117755710Y-85280000D01*
X116480000Y-85280000D02*
X116480000Y-84870000D01*
X132440000Y-85280000D02*
X132440000Y-84870000D01*
X124820000Y-82770000D02*
X124820000Y-82330000D01*
X119740000Y-82770000D02*
X119740000Y-82330000D01*
X115984285Y-93910000D02*
X115984285Y-85280000D01*
X136800000Y-82770000D02*
X136800000Y-82330000D01*
X138490000Y-93910000D02*
X138490000Y-85280000D01*
X115510000Y-81280000D02*
X115510000Y-80170000D01*
X126640000Y-82770000D02*
X126640000Y-82330000D01*
X118110000Y-93910000D02*
X118110000Y-85280000D01*
X124100000Y-82770000D02*
X124100000Y-82330000D01*
X116220475Y-93910000D02*
X116220475Y-85280000D01*
X123190000Y-93910000D02*
X123190000Y-85280000D01*
X128270000Y-93910000D02*
X128270000Y-85280000D01*
X120650000Y-93910000D02*
X120650000Y-85280000D01*
X122280000Y-82770000D02*
X122280000Y-82330000D01*
X117519520Y-93910000D02*
X117519520Y-85280000D01*
X126640000Y-85280000D02*
X126640000Y-84870000D01*
X137520000Y-85280000D02*
X137520000Y-84870000D01*
X115866190Y-93910000D02*
X115866190Y-85280000D01*
X117637615Y-93910000D02*
X117637615Y-85280000D01*
X115510000Y-80170000D02*
X116840000Y-80170000D01*
X116480000Y-82770000D02*
X116480000Y-82390000D01*
X134260000Y-82770000D02*
X134260000Y-82330000D01*
X115630000Y-93910000D02*
X115630000Y-85280000D01*
X137520000Y-82770000D02*
X137520000Y-82330000D01*
X117047140Y-93910000D02*
X117047140Y-85280000D01*
X115510000Y-93910000D02*
X138490000Y-93910000D01*
X124100000Y-85280000D02*
X124100000Y-84870000D01*
X117165235Y-93910000D02*
X117165235Y-85280000D01*
X122280000Y-85280000D02*
X122280000Y-84870000D01*
X117991900Y-93910000D02*
X117991900Y-85280000D01*
X129180000Y-85280000D02*
X129180000Y-84870000D01*
X119020000Y-85280000D02*
X119020000Y-84870000D01*
X134980000Y-85280000D02*
X134980000Y-84870000D01*
X119020000Y-82770000D02*
X119020000Y-82330000D01*
X115748095Y-93910000D02*
X115748095Y-85280000D01*
X116929045Y-93910000D02*
X116929045Y-85280000D01*
X116574760Y-93910000D02*
X116574760Y-85280000D01*
X119740000Y-85280000D02*
X119740000Y-84870000D01*
X133350000Y-93910000D02*
X133350000Y-85280000D01*
X121560000Y-82770000D02*
X121560000Y-82330000D01*
X115510000Y-93910000D02*
X115510000Y-85280000D01*
X117200000Y-82770000D02*
X117200000Y-82390000D01*
X135890000Y-93910000D02*
X135890000Y-85280000D01*
X116338570Y-93910000D02*
X116338570Y-85280000D01*
X134260000Y-85280000D02*
X134260000Y-84870000D01*
X124820000Y-85280000D02*
X124820000Y-84870000D01*
X116810950Y-93910000D02*
X116810950Y-85280000D01*
X129900000Y-82770000D02*
X129900000Y-82330000D01*
X116102380Y-93910000D02*
X116102380Y-85280000D01*
X116456665Y-93910000D02*
X116456665Y-85280000D01*
X117873805Y-93910000D02*
X117873805Y-85280000D01*
X115510000Y-85280000D02*
X138490000Y-85280000D01*
X117283330Y-93910000D02*
X117283330Y-85280000D01*
X117401425Y-93910000D02*
X117401425Y-85280000D01*
X161290000Y-67310000D02*
X163890000Y-67310000D01*
X163890000Y-67310000D02*
X163890000Y-69910000D01*
X161290000Y-64710000D02*
X120590000Y-64710000D01*
X163890000Y-69910000D02*
X120590000Y-69910000D01*
X161290000Y-64710000D02*
X161290000Y-67310000D01*
X162560000Y-64710000D02*
X163890000Y-64710000D01*
X163890000Y-64710000D02*
X163890000Y-66040000D01*
X120590000Y-64710000D02*
X120590000Y-69910000D01*
X115016233Y-41150000D02*
X115308767Y-41150000D01*
X115016233Y-40130000D02*
X115308767Y-40130000D01*
X113593833Y-78843600D02*
X113886367Y-78843600D01*
X113593833Y-77823600D02*
X113886367Y-77823600D01*
X112970000Y-57090000D02*
X112970000Y-62290000D01*
X152400000Y-57090000D02*
X153730000Y-57090000D01*
X151130000Y-59690000D02*
X153730000Y-59690000D01*
X151130000Y-57090000D02*
X151130000Y-59690000D01*
X153730000Y-59690000D02*
X153730000Y-62290000D01*
X151130000Y-57090000D02*
X112970000Y-57090000D01*
X153730000Y-57090000D02*
X153730000Y-58420000D01*
X153730000Y-62290000D02*
X112970000Y-62290000D01*
X115016233Y-55370000D02*
X115308767Y-55370000D01*
X115016233Y-56390000D02*
X115308767Y-56390000D01*
%LPC*%
D12*
X165354000Y-68580000D03*
X165354000Y-66855000D03*
D13*
X162560000Y-73660000D03*
D14*
X162560000Y-76200000D03*
X160020000Y-73660000D03*
X160020000Y-76200000D03*
X157480000Y-73660000D03*
X157480000Y-76200000D03*
X154940000Y-73660000D03*
X154940000Y-76200000D03*
X152400000Y-73660000D03*
X152400000Y-76200000D03*
X149860000Y-73660000D03*
X149860000Y-76200000D03*
X147320000Y-73660000D03*
X147320000Y-76200000D03*
X144780000Y-73660000D03*
X144780000Y-76200000D03*
X142240000Y-73660000D03*
X142240000Y-76200000D03*
X139700000Y-73660000D03*
X139700000Y-76200000D03*
X137160000Y-73660000D03*
X137160000Y-76200000D03*
X134620000Y-73660000D03*
X134620000Y-76200000D03*
X132080000Y-73660000D03*
X132080000Y-76200000D03*
X129540000Y-73660000D03*
X129540000Y-76200000D03*
X127000000Y-73660000D03*
X127000000Y-76200000D03*
X124460000Y-73660000D03*
X124460000Y-76200000D03*
X121920000Y-73660000D03*
X121920000Y-76200000D03*
X119380000Y-73660000D03*
X119380000Y-76200000D03*
D15*
X114300000Y-48006000D03*
X116025000Y-48006000D03*
D16*
X142240000Y-89535000D03*
D13*
X162560000Y-50800000D03*
D14*
X162560000Y-53340000D03*
X160020000Y-50800000D03*
X160020000Y-53340000D03*
X157480000Y-50800000D03*
X157480000Y-53340000D03*
X154940000Y-50800000D03*
X154940000Y-53340000D03*
X152400000Y-50800000D03*
X152400000Y-53340000D03*
X149860000Y-50800000D03*
X149860000Y-53340000D03*
X147320000Y-50800000D03*
X147320000Y-53340000D03*
X144780000Y-50800000D03*
X144780000Y-53340000D03*
X142240000Y-50800000D03*
X142240000Y-53340000D03*
X139700000Y-50800000D03*
X139700000Y-53340000D03*
X137160000Y-50800000D03*
X137160000Y-53340000D03*
X134620000Y-50800000D03*
X134620000Y-53340000D03*
X132080000Y-50800000D03*
X132080000Y-53340000D03*
X129540000Y-50800000D03*
X129540000Y-53340000D03*
X127000000Y-50800000D03*
X127000000Y-53340000D03*
X124460000Y-50800000D03*
X124460000Y-53340000D03*
X121920000Y-50800000D03*
X121920000Y-53340000D03*
X119380000Y-50800000D03*
X119380000Y-53340000D03*
X116840000Y-50800000D03*
X116840000Y-53340000D03*
X114300000Y-50800000D03*
X114300000Y-53340000D03*
D17*
X149960500Y-71120000D03*
X148235500Y-71120000D03*
D18*
X144526000Y-81280000D03*
X144526000Y-83005000D03*
D12*
X165608000Y-53340000D03*
X165608000Y-51615000D03*
D15*
X114300000Y-63500000D03*
X116025000Y-63500000D03*
D13*
X147320000Y-81280000D03*
D14*
X147320000Y-83820000D03*
X149860000Y-81280000D03*
X149860000Y-83820000D03*
X152400000Y-81280000D03*
X152400000Y-83820000D03*
X154940000Y-81280000D03*
X154940000Y-83820000D03*
X157480000Y-81280000D03*
X157480000Y-83820000D03*
X160020000Y-81280000D03*
X160020000Y-83820000D03*
D13*
X116840000Y-81280000D03*
D14*
X116840000Y-83820000D03*
X119380000Y-81280000D03*
X119380000Y-83820000D03*
X121920000Y-81280000D03*
X121920000Y-83820000D03*
X124460000Y-81280000D03*
X124460000Y-83820000D03*
X127000000Y-81280000D03*
X127000000Y-83820000D03*
X129540000Y-81280000D03*
X129540000Y-83820000D03*
X132080000Y-81280000D03*
X132080000Y-83820000D03*
X134620000Y-81280000D03*
X134620000Y-83820000D03*
X137160000Y-81280000D03*
X137160000Y-83820000D03*
D13*
X162560000Y-66040000D03*
D14*
X162560000Y-68580000D03*
X160020000Y-66040000D03*
X160020000Y-68580000D03*
X157480000Y-66040000D03*
X157480000Y-68580000D03*
X154940000Y-66040000D03*
X154940000Y-68580000D03*
X152400000Y-66040000D03*
X152400000Y-68580000D03*
X149860000Y-66040000D03*
X149860000Y-68580000D03*
X147320000Y-66040000D03*
X147320000Y-68580000D03*
X144780000Y-66040000D03*
X144780000Y-68580000D03*
X142240000Y-66040000D03*
X142240000Y-68580000D03*
X139700000Y-66040000D03*
X139700000Y-68580000D03*
X137160000Y-66040000D03*
X137160000Y-68580000D03*
X134620000Y-66040000D03*
X134620000Y-68580000D03*
X132080000Y-66040000D03*
X132080000Y-68580000D03*
X129540000Y-66040000D03*
X129540000Y-68580000D03*
X127000000Y-66040000D03*
X127000000Y-68580000D03*
X124460000Y-66040000D03*
X124460000Y-68580000D03*
X121920000Y-66040000D03*
X121920000Y-68580000D03*
D15*
X114300000Y-40640000D03*
X116025000Y-40640000D03*
X112877600Y-78333600D03*
X114602600Y-78333600D03*
D13*
X152400000Y-58420000D03*
D14*
X152400000Y-60960000D03*
X149860000Y-58420000D03*
X149860000Y-60960000D03*
X147320000Y-58420000D03*
X147320000Y-60960000D03*
X144780000Y-58420000D03*
X144780000Y-60960000D03*
X142240000Y-58420000D03*
X142240000Y-60960000D03*
X139700000Y-58420000D03*
X139700000Y-60960000D03*
X137160000Y-58420000D03*
X137160000Y-60960000D03*
X134620000Y-58420000D03*
X134620000Y-60960000D03*
X132080000Y-58420000D03*
X132080000Y-60960000D03*
X129540000Y-58420000D03*
X129540000Y-60960000D03*
X127000000Y-58420000D03*
X127000000Y-60960000D03*
X124460000Y-58420000D03*
X124460000Y-60960000D03*
X121920000Y-58420000D03*
X121920000Y-60960000D03*
X119380000Y-58420000D03*
X119380000Y-60960000D03*
X116840000Y-58420000D03*
X116840000Y-60960000D03*
X114300000Y-58420000D03*
X114300000Y-60960000D03*
D15*
X114300000Y-55880000D03*
X116025000Y-55880000D03*
D13*
X114300000Y-45720000D03*
D14*
X114300000Y-43180000D03*
X116840000Y-45720000D03*
X116840000Y-43180000D03*
X119380000Y-45720000D03*
X119380000Y-43180000D03*
X121920000Y-45720000D03*
X121920000Y-43180000D03*
X124460000Y-45720000D03*
X124460000Y-43180000D03*
X127000000Y-45720000D03*
X127000000Y-43180000D03*
X129540000Y-45720000D03*
X129540000Y-43180000D03*
X132080000Y-45720000D03*
X132080000Y-43180000D03*
X134620000Y-45720000D03*
X134620000Y-43180000D03*
X137160000Y-45720000D03*
X137160000Y-43180000D03*
X139700000Y-45720000D03*
X139700000Y-43180000D03*
X142240000Y-45720000D03*
X142240000Y-43180000D03*
X144780000Y-45720000D03*
X144780000Y-43180000D03*
X147320000Y-45720000D03*
X147320000Y-43180000D03*
X149860000Y-45720000D03*
X149860000Y-43180000D03*
X152400000Y-45720000D03*
X152400000Y-43180000D03*
X154940000Y-45720000D03*
X154940000Y-43180000D03*
X157480000Y-45720000D03*
X157480000Y-43180000D03*
X160020000Y-45720000D03*
X160020000Y-43180000D03*
X162560000Y-45720000D03*
X162560000Y-43180000D03*
M02*
